<svg width="780" height="500" enable-background="new 0 0 780 500" version="1.1" viewBox="0 0 780 500" xml:space="preserve" xmlns="http://www.w3.org/2000/svg"><path d="M40,0h700c22.092,0,40,17.909,40,40v420c0,22.092-17.908,40-40,40H40c-22.091,0-40-17.908-40-40V40   C0,17.909,17.909,0,40,0z" fill="#fff"/><path d="m114.26 257.95c-4.8 0.601-13.203 2.4-18.004 6.601-14.403 12.599-6.001 34.798 23.406 34.798 16.803 0 33.607-10.8 46.81-27.6-19.204-9-34.808-15.6-52.212-13.799z" fill="#2BA6DF"/><path d="m221.83 273.4c27.006 9 33.007 9.6 33.007 9.6v-95.998c0-16.199-13.203-29.398-30.006-29.398h-126.03c-16.204 0-30.007 13.2-30.007 29.4v126c0 16.199 13.203 29.398 30.007 29.398h126.03c16.203 0 30.006-13.2 30.006-29.4v-1.199s-48.01-19.799-72.616-31.799c-16.203 19.799-37.208 32.399-59.413 32.399-37.208 0-49.811-32.399-31.807-53.399 3.6-4.8 10.202-9 20.404-11.399 15.604-3.601 40.81 2.399 64.215 10.2 4.2-7.801 7.801-16.2 10.202-25.2h-72.616v-7.2h37.208v-14.399h-45.61v-7.2h45.61v-18.599s0-3 3-3h18.005v22.2h45.01v6.601h-45.01v13.199h36.608c-3.6 14.399-9.002 27.599-15.604 38.998 12.003 4.2 22.205 7.801 29.407 10.199z" fill="#2BA6DF"/><path d="m340.49 201.22l39.608 85.797h-21.005l-10.802-22.801h-32.408l-10.802 22.801h-13.803l40.209-83.398s1.199-2.4 3.6-2.4h5.402v1e-3zm-21.006 55.197h25.206l-12.603-27-12.603 27zm87.448 31.282h-19.204v-81.598c0-2.399 1.2-3.601 4.2-3.601h15.004v85.199zm36.007-0.558h-19.203v-61.798c0-2.4 1.199-3.601 4.199-3.601h15.004v65.399zm23.483-64.116h12.604v6c2.4-1.8 4.801-3.601 7.801-4.2 3.002-1.199 6.002-1.8 10.203-1.8 4.199 0 7.801 0.601 10.803 2.399 3.6 1.801 6 3.601 8.4 6.601s4.201 6 5.402 9.601c1.199 3.6 1.799 7.199 1.799 11.398 0 5.4-0.6 10.2-2.398 14.4-1.801 4.199-3.602 8.399-6.602 11.399-3.002 3-6.002 5.999-10.203 7.8-4.201 1.799-8.402 2.399-13.203 2.399h-6.602c-1.799 0-3.6-0.601-5.4-1.2v21.6h-19.206v-78.598c-0.599-7.799 2.401-7.799 6.602-7.799zm12.603 46.798c0 1.801 0 3 0.6 4.2s1.201 2.399 2.4 3.601c1.199 1.199 2.4 1.799 3.602 2.399 1.199 0.601 3 0.601 4.801 0.601 1.799 0 3-0.601 4.801-1.801 1.199-1.199 3-2.4 3.602-4.8 0.6-2.399 1.799-4.2 2.398-7.2 0.602-3 1.201-5.4 1.201-9 0-4.199 0-7.799-0.6-10.799-0.602-3-1.201-5.4-2.4-7.8-1.201-1.8-2.4-3.601-3.6-4.8-1.201-1.2-3.002-1.801-4.803-1.801-1.199 0-2.4 0-3.6 0.601-1.201 0.601-2.4 1.2-3.002 1.8-1.199 0.6-1.799 1.801-3 2.4-1.201 1.199-1.801 1.8-2.4 3v29.4-1e-3zm81.028-46.798c4.801 0 8.402 0.601 12.002 1.2 3 0.6 6.002 1.8 8.402 3.6 2.4 1.801 3.6 3.6 4.801 5.4 1.199 2.4 1.801 4.8 1.801 7.199v47.398h-19.205v-4.8c-1.199 1.2-2.398 1.8-3 2.399l-3.602 1.801c-1.199 0.6-2.4 1.199-4.199 1.199-1.801 0.601-3.602 0.601-5.402 0.601-3 0-5.4-0.601-7.803-1.2-2.398-0.6-4.199-1.8-6-3.6-1.801-1.2-3.002-3-3.602-5.4-0.6-1.8-1.199-4.199-1.199-6.6s0.6-4.801 1.199-6.6c0.6-1.801 2.4-3.601 3.602-5.4 1.199-1.801 3.6-3 5.4-4.2 2.4-1.2 4.201-2.399 7.203-3.601 2.398-1.198 4.799-1.799 7.801-2.998 2.4-0.601 5.4-1.801 7.801-2.4l2.4-0.6v-6.601c0-1.8 0-3.6-0.6-5.399l-1.801-3.601c-0.6-0.6-1.799-1.8-2.398-1.8-1.201-0.6-2.4-0.6-3.602-0.6 0 0-10.203 0-19.205 7.8l-4.201-6.601c-1.798 1.203 9.004-6.596 23.407-6.596zm6.599 31.799c-1.799 0.601-3.6 1.8-5.398 3l-5.402 3.601c-1.801 1.199-3 2.399-3.6 4.199-1.201 1.2-1.201 3-1.201 4.2s0 2.4 0.6 3.601c0.6 1.199 0.6 1.8 1.199 3 0.602 1.199 1.201 1.199 1.801 1.8 0.6 0.6 1.201 0.6 2.4 0.6 1.801 0 3.002-0.6 4.801-1.2l5.402-3.6v-19.2h-0.602zm46.555 53.998h-12.604l-0.6-11.399s15.604 0.6 20.404-5.4c1.801-2.4 3-8.999 3-8.999l-31.205-59.998h21.004l19.805 38.999 17.404-39h13.803l-31.807 70.799c-1.2 2.4-6.001 14.999-19.204 14.998z" fill="#3F3A39"/><ellipse cx="433.4" cy="204.1" rx="9.602" ry="8.5" fill="#2BA6DF"/><path d="m683.68 172.91h-6.602v-1.201h14.402v1.201h-6.6v18.599h-1.801v-18.599h0.601zm10.716-1.201h2.4l4.201 11.4 1.801 4.2c0.6-1.2 1.199-3 1.799-4.2l4.201-11.4h2.4v20.4h-2.398v-18l-1.8 4.801-4.201 12h-1.199l-4.201-12-1.801-4.801v18h-1.801v-20.4h0.599z" fill="#3F3A39"/></svg>
