<?xml version="1.0" encoding="utf-8"?>
<!-- Generator: Adobe Illustrator 26.0.2, SVG Export Plug-In . SVG Version: 6.00 Build 0)  -->
<svg version="1.1" id="Layer_1" xmlns="http://www.w3.org/2000/svg" xmlns:xlink="http://www.w3.org/1999/xlink" x="0px" y="0px"
	 viewBox="0 0 780 500" style="enable-background:new 0 0 780 500;" xml:space="preserve">
<style type="text/css">
	.st0{fill:#000C9D;}
	.st1{fill:#9D9400;}
	.st2{fill:#FFFFFF;}
	.st3{fill:#FFFFFF;fill-opacity:0.784;}
</style>
<path class="st0" d="M40,0h700c22.1,0,40,17.9,40,40v420c0,22.1-17.9,40-40,40H40c-22.1,0-40-17.9-40-40V40C0,17.9,17.9,0,40,0z"/>
<rect x="66.9" y="106.9" class="st1" width="110.3" height="99.7"/>
<path class="st2" d="M94.7,284.1v-3.8h-5.1v-11.3h-4.2L85,280.4H73.6l10.6-25.1l-4-1.7l-11.7,27.1v3.4h16.4v9.7h4.7v-9.7L94.7,284.1
	L94.7,284.1z M114.3,253.6c-4,0-7.9,1.4-11.2,4.6l2.6,2.9c2.6-2.5,5-3.7,8.4-3.7c4.2,0,7.5,2.4,7.5,6.7c0,4.8-3.7,7-7.5,7h-2.4
	l-0.6,3.8h3.3c4.7,0,8.2,1.8,8.2,7.5c0,4.9-3.3,8.1-8.9,8.1c-3.2,0-6.6-1.3-8.8-4l-3.2,2.6c3,3.7,7.7,5.2,12.1,5.2
	c8.2,0,13.7-5.2,13.7-12c0-6.2-4.4-9.4-9-9.7c4.2-0.8,7.8-4.4,7.8-9.2C126.4,258.1,121.7,253.6,114.3,253.6L114.3,253.6z
	 M148.8,253.6c-5.3,0-8.9,1.9-12.1,5.7l3.3,2.5c2.5-2.9,4.7-4.2,8.6-4.2c4.4,0,7.1,2.8,7.1,7.2c0,6.5-3.2,10.8-18.2,25.1v3.9H161
	l0.6-4.1H143c13.1-11.9,17.7-17.8,17.7-25.1C160.7,258.3,156.3,253.6,148.8,253.6L148.8,253.6z M197.5,289.9h-8.3v-35.6H185
	l-11.7,7.2l2.1,3.4l9.1-5.5v30.5h-9.8v3.9h22.8L197.5,289.9L197.5,289.9z M267.1,284.1v-3.8H262v-11.3h-4.2l-0.4,11.3h-11.4
	l10.6-25.1l-4-1.7l-11.7,27.1v3.4h16.4v9.7h4.7v-9.7L267.1,284.1L267.1,284.1z M286.7,253.6c-4,0-7.9,1.4-11.2,4.6l2.6,2.9
	c2.6-2.5,5-3.7,8.4-3.7c4.2,0,7.5,2.4,7.5,6.7c0,4.8-3.7,7-7.5,7h-2.4l-0.6,3.8h3.3c4.7,0,8.2,1.8,8.2,7.5c0,4.9-3.3,8.1-8.9,8.1
	c-3.2,0-6.6-1.3-8.8-4l-3.2,2.6c3,3.7,7.7,5.2,12.1,5.2c8.2,0,13.7-5.2,13.7-12c0-6.2-4.4-9.4-9-9.7c4.2-0.8,7.8-4.4,7.8-9.2
	C298.8,258.1,294.1,253.6,286.7,253.6L286.7,253.6z M321.2,253.6c-5.3,0-8.9,1.9-12.1,5.7l3.3,2.5c2.5-2.9,4.7-4.2,8.6-4.2
	c4.4,0,7.1,2.8,7.1,7.2c0,6.5-3.2,10.8-18.2,25.1v3.9h23.5l0.6-4.1h-18.6c13.1-11.9,17.7-17.8,17.7-25.1
	C333.1,258.3,328.6,253.6,321.2,253.6L321.2,253.6z M369.9,289.9h-8.3v-35.6h-4.2l-11.7,7.2l2.1,3.4l9.1-5.5v30.5h-9.8v3.9h22.8
	L369.9,289.9L369.9,289.9z M439.5,284.1v-3.8h-5.1v-11.3h-4.2l-0.4,11.3h-11.4l10.6-25.1l-4-1.7l-11.7,27.1v3.4h16.4v9.7h4.7v-9.7
	L439.5,284.1L439.5,284.1z M459.1,253.6c-4,0-7.9,1.4-11.2,4.6l2.6,2.9c2.6-2.5,5-3.7,8.4-3.7c4.2,0,7.5,2.4,7.5,6.7
	c0,4.8-3.7,7-7.5,7h-2.4l-0.6,3.8h3.3c4.7,0,8.2,1.8,8.2,7.5c0,4.9-3.3,8.1-8.9,8.1c-3.2,0-6.6-1.3-8.8-4l-3.2,2.6
	c3,3.7,7.7,5.2,12.1,5.2c8.2,0,13.7-5.2,13.7-12c0-6.2-4.4-9.4-9-9.7c4.2-0.8,7.8-4.4,7.8-9.2C471.2,258.1,466.5,253.6,459.1,253.6
	L459.1,253.6z M493.6,253.6c-5.3,0-8.9,1.9-12.1,5.7l3.3,2.5c2.5-2.9,4.7-4.2,8.6-4.2c4.4,0,7.1,2.8,7.1,7.2
	c0,6.5-3.2,10.8-18.2,25.1v3.9h23.5l0.6-4.1h-18.6c13.1-11.9,17.7-17.8,17.7-25.1C505.5,258.3,501,253.6,493.6,253.6L493.6,253.6
	L493.6,253.6z M542.3,289.9H534v-35.6h-4.2l-11.7,7.2l2.1,3.4l9.1-5.5v30.5h-9.8v3.9h22.8L542.3,289.9L542.3,289.9z M611.9,284.1
	v-3.8h-5.1v-11.3h-4.2l-0.4,11.3h-11.4l10.6-25.1l-4-1.7l-11.7,27.1v3.4h16.4v9.7h4.7v-9.7L611.9,284.1L611.9,284.1z M631.5,253.6
	c-4,0-7.9,1.4-11.2,4.6l2.6,2.9c2.6-2.5,5-3.7,8.4-3.7c4.2,0,7.5,2.4,7.5,6.7c0,4.8-3.7,7-7.5,7h-2.4l-0.6,3.8h3.3
	c4.7,0,8.2,1.8,8.2,7.5c0,4.9-3.3,8.1-8.9,8.1c-3.2,0-6.6-1.3-8.8-4l-3.2,2.6c3,3.7,7.7,5.2,12.1,5.2c8.2,0,13.7-5.2,13.7-12
	c0-6.2-4.4-9.4-9-9.7c4.2-0.8,7.8-4.4,7.8-9.2C643.6,258.1,638.9,253.6,631.5,253.6L631.5,253.6L631.5,253.6z M665.9,253.6
	c-5.3,0-8.9,1.9-12.1,5.7l3.3,2.5c2.5-2.9,4.7-4.2,8.6-4.2c4.4,0,7.1,2.8,7.1,7.2c0,6.5-3.2,10.8-18.2,25.1v3.9h23.5l0.6-4.1h-18.6
	c13.1-11.9,17.7-17.8,17.7-25.1C677.8,258.3,673.4,253.6,665.9,253.6L665.9,253.6z M714.7,289.9h-8.3v-35.6h-4.2l-11.7,7.2l2.1,3.4
	l9.1-5.5v30.5h-9.8v3.9h22.8L714.7,289.9L714.7,289.9z"/>
<path class="st3" d="M72.2,389.2h6.4V367l-7,1.4v-3.6l7-1.4h3.9v25.8H89v3.3H72.2C72.2,392.5,72.2,389.2,72.2,389.2z M97.7,389.2
	h6.4V367l-7,1.4v-3.6l7-1.4h3.9v25.8h6.4v3.3H97.7C97.7,392.5,97.7,389.2,97.7,389.2z M138.6,389.2h13.8v3.3h-18.5v-3.3
	c1.5-1.5,3.5-3.6,6.1-6.2c2.6-2.6,4.2-4.3,4.9-5.1c1.3-1.4,2.1-2.6,2.6-3.6c0.5-1,0.8-2,0.8-2.9c0-1.5-0.5-2.8-1.6-3.8
	c-1.1-1-2.5-1.5-4.2-1.5c-1.2,0-2.5,0.2-3.9,0.6c-1.4,0.4-2.8,1.1-4.4,2v-4c1.6-0.6,3.1-1.1,4.5-1.4c1.4-0.3,2.6-0.5,3.8-0.5
	c3,0,5.4,0.8,7.2,2.3c1.8,1.5,2.7,3.5,2.7,6.1c0,1.2-0.2,2.3-0.7,3.4c-0.4,1.1-1.3,2.3-2.4,3.8c-0.3,0.4-1.4,1.5-3.1,3.3
	C144.2,383.4,141.8,386,138.6,389.2L138.6,389.2z M172.6,376.8c1.9,0.4,3.4,1.2,4.4,2.5c1.1,1.3,1.6,2.9,1.6,4.7c0,2.9-1,5.1-3,6.7
	c-2,1.6-4.8,2.4-8.4,2.4c-1.2,0-2.5-0.1-3.8-0.4c-1.3-0.2-2.6-0.6-4-1.1v-3.8c1.1,0.6,2.3,1.1,3.6,1.4c1.3,0.3,2.7,0.5,4.1,0.5
	c2.5,0,4.4-0.5,5.6-1.5c1.3-1,2-2.4,2-4.3c0-1.7-0.6-3.1-1.8-4c-1.2-1-2.9-1.5-5-1.5h-3.4v-3.2h3.6c1.9,0,3.4-0.4,4.5-1.2
	c1-0.8,1.5-1.9,1.5-3.4c0-1.5-0.5-2.6-1.6-3.4c-1.1-0.8-2.6-1.2-4.6-1.2c-1.1,0-2.2,0.1-3.5,0.4c-1.2,0.2-2.6,0.6-4.1,1.1v-3.5
	c1.5-0.4,2.9-0.7,4.2-0.9c1.3-0.2,2.6-0.3,3.7-0.3c3,0,5.4,0.7,7.1,2c1.7,1.4,2.6,3.2,2.6,5.5c0,1.6-0.5,3-1.4,4.1
	C175.6,375.6,174.3,376.4,172.6,376.8z M198.9,363.4h15.5v3.3h-11.9v7.1c0.6-0.2,1.1-0.3,1.7-0.4c0.6-0.1,1.1-0.2,1.7-0.2
	c3.3,0,5.8,0.9,7.7,2.7s2.9,4.2,2.9,7.2c0,3.1-1,5.6-2.9,7.3c-2,1.7-4.7,2.6-8.3,2.6c-1.2,0-2.5-0.1-3.8-0.3
	c-1.3-0.2-2.6-0.5-3.9-0.9v-4c1.2,0.6,2.4,1.1,3.6,1.4s2.6,0.5,4,0.5c2.3,0,4-0.6,5.4-1.8s2-2.8,2-4.8s-0.7-3.6-2-4.8
	s-3.1-1.8-5.4-1.8c-1.1,0-2.1,0.1-3.2,0.4c-1,0.2-2.1,0.6-3.2,1.1L198.9,363.4z M232.8,378.7c-1.9,0-3.4,0.5-4.4,1.5
	c-1.1,1-1.6,2.4-1.6,4.1s0.5,3.1,1.6,4.1c1.1,1,2.6,1.5,4.4,1.5c1.9,0,3.4-0.5,4.4-1.5c1.1-1,1.6-2.4,1.6-4.1c0-1.8-0.5-3.1-1.6-4.1
	C236.2,379.2,234.7,378.7,232.8,378.7L232.8,378.7z M228.8,377c-1.7-0.4-3-1.2-4-2.4c-0.9-1.2-1.4-2.6-1.4-4.2
	c0-2.3,0.8-4.2,2.5-5.5c1.7-1.4,3.9-2,6.8-2c2.9,0,5.2,0.7,6.8,2c1.7,1.4,2.5,3.2,2.5,5.5c0,1.7-0.5,3.1-1.4,4.2
	c-0.9,1.2-2.2,1.9-3.9,2.4c1.9,0.4,3.4,1.3,4.4,2.6c1.1,1.3,1.6,2.9,1.6,4.7c0,2.8-0.9,5-2.6,6.5c-1.7,1.5-4.2,2.3-7.4,2.3
	s-5.7-0.8-7.4-2.3c-1.7-1.5-2.6-3.7-2.6-6.5c0-1.9,0.5-3.4,1.6-4.7C225.5,378.3,226.9,377.4,228.8,377z M227.4,370.8
	c0,1.5,0.5,2.7,1.4,3.5c0.9,0.8,2.3,1.3,4,1.3c1.7,0,3-0.4,4-1.3c1-0.8,1.4-2,1.4-3.5c0-1.5-0.5-2.7-1.4-3.5c-1-0.8-2.3-1.3-4-1.3
	c-1.7,0-3,0.4-4,1.3C227.9,368.1,227.4,369.3,227.4,370.8L227.4,370.8z"/>
<path class="st3" d="M325.5,388.2h6.4V366l-7,1.4v-3.6l7-1.4h3.9v25.8h6.4v3.3h-16.8L325.5,388.2L325.5,388.2z M362.2,375.8
	c1.9,0.4,3.4,1.2,4.4,2.5c1.1,1.3,1.6,2.9,1.6,4.7c0,2.9-1,5.1-3,6.7c-2,1.6-4.8,2.4-8.4,2.4c-1.2,0-2.5-0.1-3.8-0.4
	c-1.3-0.2-2.6-0.6-4-1.1v-3.8c1.1,0.6,2.3,1.1,3.6,1.4c1.3,0.3,2.7,0.5,4.1,0.5c2.5,0,4.4-0.5,5.6-1.5c1.3-1,2-2.4,2-4.3
	c0-1.7-0.6-3.1-1.8-4c-1.2-1-2.9-1.5-5-1.5H354v-3.2h3.6c1.9,0,3.4-0.4,4.5-1.2c1-0.8,1.5-1.9,1.5-3.4c0-1.5-0.5-2.6-1.6-3.4
	c-1.1-0.8-2.6-1.2-4.5-1.2c-1.1,0-2.2,0.1-3.5,0.4c-1.2,0.2-2.6,0.6-4.1,1.1v-3.5c1.5-0.4,2.9-0.7,4.2-0.9c1.3-0.2,2.6-0.3,3.7-0.3
	c3,0,5.4,0.7,7.1,2.1c1.7,1.4,2.6,3.2,2.6,5.5c0,1.6-0.5,3-1.4,4.1C365.2,374.6,363.9,375.4,362.2,375.8L362.2,375.8z M379.1,388.2
	h13.8v3.3h-18.5v-3.3c1.5-1.6,3.5-3.6,6.1-6.2c2.6-2.6,4.2-4.3,4.9-5.1c1.3-1.4,2.1-2.6,2.6-3.6c0.5-1,0.8-2,0.8-2.9
	c0-1.5-0.5-2.8-1.6-3.8c-1.1-1-2.5-1.5-4.2-1.5c-1.2,0-2.5,0.2-3.9,0.6c-1.4,0.4-2.8,1.1-4.4,2v-4c1.6-0.6,3.1-1.1,4.5-1.4
	s2.6-0.5,3.8-0.5c3,0,5.4,0.8,7.2,2.3c1.8,1.5,2.7,3.5,2.7,6.1c0,1.2-0.2,2.3-0.7,3.4c-0.4,1.1-1.3,2.3-2.4,3.8
	c-0.3,0.4-1.4,1.5-3.1,3.3C384.7,382.5,382.3,385,379.1,388.2L379.1,388.2z M401.9,388.2h6.4V366l-7,1.4v-3.6l7-1.4h3.9v25.8h6.4
	v3.3h-16.8L401.9,388.2z M451.3,375.8c1.9,0.4,3.4,1.2,4.4,2.5c1.1,1.3,1.6,2.9,1.6,4.7c0,2.9-1,5.1-3,6.7c-2,1.6-4.8,2.4-8.4,2.4
	c-1.2,0-2.5-0.1-3.8-0.4c-1.3-0.2-2.6-0.6-4-1.1v-3.8c1.1,0.6,2.3,1.1,3.6,1.4c1.3,0.3,2.7,0.5,4.1,0.5c2.5,0,4.4-0.5,5.6-1.5
	c1.3-1,2-2.4,2-4.3c0-1.7-0.6-3.1-1.8-4c-1.2-1-2.9-1.5-5-1.5h-3.4v-3.2h3.6c1.9,0,3.4-0.4,4.5-1.2c1-0.8,1.5-1.9,1.5-3.4
	c0-1.5-0.5-2.6-1.6-3.4c-1.1-0.8-2.6-1.2-4.6-1.2c-1.1,0-2.2,0.1-3.5,0.4c-1.2,0.2-2.6,0.6-4.1,1.1v-3.5c1.5-0.4,2.9-0.7,4.2-0.9
	c1.3-0.2,2.6-0.3,3.7-0.3c3,0,5.4,0.7,7.1,2.1c1.7,1.4,2.6,3.2,2.6,5.5c0,1.6-0.5,3-1.4,4.1C454.4,374.6,453,375.4,451.3,375.8
	L451.3,375.8z M475.7,365.8l-10,15.6h10L475.7,365.8L475.7,365.8z M474.6,362.4h5v19h4.2v3.3h-4.2v6.9h-3.9v-6.9h-13.2v-3.8
	L474.6,362.4L474.6,362.4L474.6,362.4z M490.4,362.4h15.5v3.3H494v7.1c0.6-0.2,1.1-0.3,1.7-0.4c0.6-0.1,1.1-0.2,1.7-0.2
	c3.3,0,5.8,0.9,7.7,2.7c1.9,1.8,2.9,4.2,2.9,7.2c0,3.1-1,5.6-2.9,7.3c-2,1.7-4.7,2.6-8.3,2.6c-1.2,0-2.5-0.1-3.8-0.3
	c-1.3-0.2-2.6-0.5-3.9-0.9v-4c1.2,0.6,2.4,1.1,3.6,1.4c1.2,0.3,2.6,0.5,4,0.5c2.3,0,4-0.6,5.4-1.8c1.3-1.2,2-2.8,2-4.8
	s-0.7-3.6-2-4.8c-1.3-1.2-3.1-1.8-5.4-1.8c-1.1,0-2.1,0.1-3.2,0.4c-1,0.2-2.1,0.6-3.2,1.1V362.4L490.4,362.4z M515.8,362.4h15.5v3.3
	h-11.9v7.1c0.6-0.2,1.1-0.3,1.7-0.4c0.6-0.1,1.1-0.2,1.7-0.2c3.3,0,5.8,0.9,7.7,2.7c1.9,1.8,2.9,4.2,2.9,7.2c0,3.1-1,5.6-2.9,7.3
	c-2,1.7-4.7,2.6-8.3,2.6c-1.2,0-2.5-0.1-3.8-0.3c-1.3-0.2-2.6-0.5-3.9-0.9v-4c1.2,0.6,2.4,1.1,3.6,1.4c1.2,0.3,2.6,0.5,4,0.5
	c2.3,0,4-0.6,5.4-1.8c1.3-1.2,2-2.8,2-4.8s-0.7-3.6-2-4.8c-1.3-1.2-3.1-1.8-5.4-1.8c-1.1,0-2.1,0.1-3.2,0.4c-1,0.2-2.1,0.6-3.2,1.1
	L515.8,362.4L515.8,362.4z"/>
<path class="st2" d="M756.3,213.3v-2.5h-3.4v-7.4h-2.8l-0.3,7.4h-7.5l7-16.5l-2.6-1.1L739,211v2.3h10.8v6.4h3.1v-6.4L756.3,213.3
	L756.3,213.3z M725.4,193.1c-2.6,0-5.2,0.9-7.4,3l1.7,1.9c1.7-1.6,3.3-2.4,5.5-2.4c2.8,0,5,1.6,5,4.4c0,3.1-2.5,4.6-5,4.6h-1.6
	l-0.4,2.5h2.2c3.1,0,5.4,1.2,5.4,5c0,3.3-2.2,5.3-5.8,5.3c-2.1,0-4.3-0.9-5.8-2.6l-2.1,1.7c2,2.4,5.1,3.4,8,3.4c5.4,0,9-3.4,9-7.9
	c0-4-2.9-6.2-5.9-6.4c2.8-0.5,5.1-2.9,5.1-6C733.4,196.1,730.3,193.1,725.4,193.1L725.4,193.1L725.4,193.1z M702.9,193.1
	c-3.5,0-5.9,1.2-7.9,3.7l2.2,1.7c1.7-1.9,3.1-2.8,5.6-2.8c2.9,0,4.7,1.8,4.7,4.7c0,4.3-2.1,7.1-11.9,16.5v2.6h15.5l0.4-2.7h-12.3
	c8.6-7.8,11.6-11.7,11.6-16.5C710.7,196.3,707.8,193.1,702.9,193.1L702.9,193.1z M689,217h-5.4v-23.4h-2.8l-7.7,4.8l1.4,2.2l6-3.6
	v20H674v2.6h15V217L689,217z"/>
</svg>
