<svg width="780" height="500" enable-background="new 0 0 780 500" version="1.1" viewBox="0 0 780 500" xml:space="preserve" xmlns="http://www.w3.org/2000/svg"><path d="M740,0H40C17.909,0,0,17.909,0,40v420c0,22.092,17.909,40,40,40h700c22.092,0,40-17.908,40-40V40  C780,17.909,762.092,0,740,0z" fill="#000C9D"/><path d="m686.85 324.72v-3.795h5.117v-11.272h4.198l0.401 11.271h11.443l-10.58-25.07 3.967-1.727 11.674 27.141v3.451h-16.446v9.658h-4.658v-9.658h-5.116v1e-3zm-19.586-30.59c4.026 0 7.878 1.379 11.213 4.6l-2.587 2.932c-2.645-2.473-5.003-3.68-8.395-3.68-4.198 0-7.533 2.357-7.533 6.727 0 4.773 3.738 6.959 7.533 6.959h2.356l0.575 3.795h-3.335c-4.657 0-8.222 1.84-8.222 7.531 0 4.945 3.276 8.109 8.854 8.109 3.221 0 6.556-1.324 8.797-3.969l3.221 2.645c-2.99 3.68-7.705 5.234-12.133 5.234-8.164 0-13.742-5.176-13.742-12.02 0-6.15 4.37-9.371 9.027-9.717-4.197-0.805-7.763-4.428-7.763-9.199 2e-3 -5.404 4.717-9.947 12.134-9.947zm-34.477 0c5.348 0 8.913 1.896 12.075 5.691l-3.335 2.531c-2.53-2.934-4.657-4.199-8.567-4.199-4.428 0-7.073 2.76-7.073 7.189 0 6.496 3.22 10.809 18.17 25.127v3.908h-23.517l-0.575-4.08h18.63c-13.053-11.904-17.71-17.826-17.71-25.07 0-6.326 4.427-11.097 11.902-11.097zm-48.737 36.34h8.28v-35.65h4.197l11.729 7.244-2.07 3.393-9.085-5.463v30.477h9.775v3.908h-22.827v-3.909zm-69.588-5.75v-3.795h5.117v-11.272h4.198l0.401 11.271h11.443l-10.58-25.07 3.967-1.727 11.673 27.141v3.451h-16.444v9.658h-4.658v-9.658h-5.117v1e-3zm-19.585-30.59c4.025 0 7.877 1.379 11.212 4.6l-2.587 2.932c-2.646-2.473-5.003-3.68-8.396-3.68-4.197 0-7.532 2.357-7.532 6.727 0 4.773 3.737 6.959 7.532 6.959h2.357l0.575 3.795h-3.334c-4.657 0-8.222 1.84-8.222 7.531 0 4.945 3.276 8.109 8.854 8.109 3.22 0 6.555-1.324 8.797-3.969l3.22 2.645c-2.989 3.68-7.704 5.234-12.132 5.234-8.165 0-13.743-5.176-13.743-12.02 0-6.15 4.37-9.371 9.028-9.717-4.198-0.805-7.763-4.428-7.763-9.199 1e-3 -5.404 4.716-9.947 12.134-9.947zm-34.478 0c5.349 0 8.913 1.896 12.075 5.691l-3.335 2.531c-2.529-2.934-4.657-4.199-8.566-4.199-4.429 0-7.073 2.76-7.073 7.189 0 6.496 3.22 10.809 18.17 25.127v3.908h-23.517l-0.575-4.08h18.63c-13.053-11.904-17.71-17.826-17.71-25.07-1e-3 -6.326 4.426-11.097 11.901-11.097zm-48.737 36.34h8.279v-35.65h4.197l11.73 7.244-2.07 3.393-9.085-5.463v30.477h9.775v3.908h-22.827v-3.909zm-69.588-5.75v-3.795h5.118v-11.272h4.196l0.403 11.271h11.442l-10.58-25.07 3.968-1.727 11.672 27.141v3.451h-16.445v9.658h-4.657v-9.658h-5.117v1e-3zm-19.585-30.59c4.024 0 7.878 1.379 11.213 4.6l-2.588 2.932c-2.646-2.473-5.002-3.68-8.396-3.68-4.197 0-7.532 2.357-7.532 6.727 0 4.773 3.737 6.959 7.532 6.959h2.358l0.575 3.795h-3.335c-4.658 0-8.224 1.84-8.224 7.531 0 4.945 3.278 8.109 8.855 8.109 3.22 0 6.555-1.324 8.798-3.969l3.22 2.645c-2.99 3.68-7.705 5.234-12.133 5.234-8.165 0-13.742-5.176-13.742-12.02 0-6.15 4.37-9.371 9.027-9.717-4.197-0.805-7.762-4.428-7.762-9.199 2e-3 -5.404 4.717-9.947 12.134-9.947zm-34.477 0c5.347 0 8.912 1.896 12.075 5.691l-3.335 2.531c-2.53-2.934-4.658-4.199-8.568-4.199-4.427 0-7.072 2.76-7.072 7.189 0 6.496 3.22 10.809 18.17 25.127v3.908h-23.518l-0.575-4.08h18.63c-13.052-11.904-17.71-17.826-17.71-25.07 0-6.326 4.428-11.097 11.903-11.097zm-48.738 36.34h8.28v-35.65h4.198l11.73 7.244-2.07 3.393-9.085-5.463v30.477h9.775v3.908h-22.828v-3.909zm-69.587-5.75v-3.795h5.117v-11.272h4.198l0.402 11.271h11.443l-10.58-25.07 3.967-1.727 11.673 27.141v3.451h-16.445v9.658h-4.658v-9.658h-5.117zm-19.585-30.59c4.025 0 7.877 1.379 11.212 4.6l-2.587 2.932c-2.645-2.473-5.003-3.68-8.395-3.68-4.198 0-7.533 2.357-7.533 6.727 0 4.773 3.738 6.959 7.533 6.959h2.357l0.575 3.795h-3.335c-4.657 0-8.222 1.84-8.222 7.531 0 4.945 3.277 8.109 8.855 8.109 3.22 0 6.555-1.324 8.797-3.969l3.22 2.645c-2.99 3.68-7.705 5.234-12.132 5.234-8.165 0-13.743-5.176-13.743-12.02 0-6.15 4.37-9.371 9.028-9.717-4.198-0.805-7.763-4.428-7.763-9.199 0-5.404 4.715-9.947 12.133-9.947zm-34.478 0c5.348 0 8.913 1.896 12.075 5.691l-3.335 2.531c-2.53-2.934-4.657-4.199-8.567-4.199-4.428 0-7.073 2.76-7.073 7.189 0 6.496 3.22 10.809 18.17 25.127v3.908h-23.517l-0.575-4.08h18.63c-13.053-11.904-17.71-17.826-17.71-25.07 0-6.326 4.427-11.097 11.902-11.097zm-48.738 36.34h8.28v-35.65h4.198l11.73 7.244-2.07 3.393-9.085-5.463v30.477h9.775v3.908h-22.828v-3.909z" fill="#fff" fill-opacity=".196"/><path d="m709.39 429.77h-6.444v-22.244l7.012 1.406v-3.596l-6.973-1.404h-3.945v25.84h-6.446v3.32h16.797v-3.322zm-25.468 0h-6.446v-22.244l7.013 1.406v-3.596l-6.974-1.404h-3.944v25.84h-6.445v3.32h16.797v-3.322zm-40.918 0h-13.77v3.322h18.516v-3.32c-1.497-1.549-3.535-3.627-6.114-6.23-2.59-2.617-4.218-4.305-4.882-5.061-1.264-1.418-2.143-2.615-2.637-3.592-0.508-0.99-0.763-1.959-0.763-2.91 0-1.549 0.547-2.812 1.641-3.791 1.081-0.977 2.494-1.463 4.24-1.463 1.236 0 2.545 0.215 3.925 0.645 1.366 0.43 2.831 1.08 4.394 1.953v-3.986c-1.588-0.637-3.072-1.119-4.453-1.443-1.38-0.326-2.643-0.488-3.789-0.488-3.021 0-5.429 0.754-7.226 2.264-1.797 1.512-2.696 3.529-2.696 6.057 0 1.197 0.229 2.336 0.685 3.418 0.442 1.068 1.256 2.33 2.44 3.789 0.326 0.377 1.361 1.471 3.106 3.281 1.744 1.797 4.206 4.316 7.383 7.559v-4e-3zm-34.024-12.401c-1.889 0.402-3.359 1.244-4.414 2.52-1.067 1.275-1.602 2.852-1.602 4.727 0 2.877 0.989 5.104 2.968 6.68s4.792 2.363 8.438 2.363c1.224 0 2.487-0.125 3.789-0.373 1.288-0.232 2.623-0.592 4.004-1.072v-3.81c-1.094 0.639-2.291 1.119-3.594 1.445-1.302 0.324-2.663 0.488-4.082 0.488-2.475 0-4.355-0.488-5.646-1.465-1.302-0.977-1.953-2.396-1.953-4.258 0-1.719 0.606-3.061 1.817-4.023 1.198-0.977 2.871-1.465 5.021-1.465h3.397v-3.242h-3.555c-1.94 0-3.425-0.385-4.453-1.152-1.028-0.781-1.543-1.902-1.543-3.359 0-1.498 0.533-2.645 1.601-3.438 1.056-0.809 2.572-1.211 4.552-1.211 1.08 0 2.239 0.117 3.477 0.352 1.236 0.234 2.598 0.598 4.082 1.092v-3.514c-1.497-0.418-2.897-0.73-4.2-0.938-1.314-0.209-2.551-0.312-3.71-0.312-2.995 0-5.364 0.684-7.11 2.049-1.744 1.355-2.616 3.191-2.616 5.51 0 1.613 0.462 2.98 1.387 4.102 0.925 1.105 2.239 1.875 3.945 2.304zm-26.289-13.437h-15.488v3.318h11.875v7.15c-0.573-0.195-1.146-0.34-1.719-0.43-0.573-0.105-1.146-0.156-1.72-0.156-3.255 0-5.833 0.893-7.733 2.676-1.901 1.783-2.853 4.199-2.853 7.246 0 3.139 0.977 5.578 2.931 7.324 1.953 1.732 4.707 2.598 8.262 2.598 1.224 0 2.474-0.104 3.75-0.312 1.263-0.209 2.571-0.521 3.926-0.938v-3.965c-1.172 0.639-2.383 1.113-3.633 1.426s-2.571 0.469-3.965 0.469c-2.253 0-4.037-0.594-5.353-1.777-1.314-1.186-1.972-2.793-1.972-4.824s0.657-3.641 1.972-4.826c1.315-1.184 3.1-1.775 5.353-1.775 1.055 0 2.109 0.117 3.164 0.352 1.041 0.234 2.108 0.598 3.203 1.092v-14.648zm-33.867 15.312c1.875 0 3.353 0.5 4.434 1.504 1.067 1.002 1.602 2.383 1.602 4.141s-0.534 3.137-1.603 4.139c-1.08 1.004-2.558 1.506-4.433 1.506s-3.354-0.502-4.435-1.504c-1.079-1.016-1.619-2.396-1.619-4.141 0-1.758 0.54-3.139 1.619-4.141 1.069-1.004 2.547-1.504 4.435-1.504zm3.945-1.679c1.692-0.418 3.015-1.205 3.965-2.363 0.938-1.16 1.405-2.572 1.405-4.238 0-2.332-0.826-4.174-2.479-5.527-1.667-1.355-3.945-2.031-6.836-2.031-2.904 0-5.183 0.676-6.836 2.029-1.653 1.355-2.48 3.197-2.48 5.529 0 1.666 0.476 3.078 1.426 4.238 0.938 1.158 2.246 1.945 3.926 2.363-1.901 0.441-3.379 1.309-4.435 2.596-1.067 1.291-1.601 2.865-1.601 4.729 0 2.824 0.866 4.992 2.598 6.504 1.719 1.51 4.187 2.266 7.402 2.266s5.69-0.756 7.422-2.266c1.719-1.512 2.578-3.68 2.578-6.504 0-1.863-0.534-3.438-1.603-4.729-1.066-1.288-2.55-2.155-4.452-2.596zm1.446-6.231c0 1.51-0.469 2.688-1.407 3.535-0.95 0.846-2.278 1.27-3.983 1.27-1.693 0-3.015-0.424-3.965-1.27-0.964-0.848-1.445-2.025-1.445-3.535 0-1.512 0.481-2.689 1.445-3.535 0.95-0.848 2.272-1.271 3.965-1.271 1.706 0 3.034 0.424 3.983 1.271 0.938 0.846 1.407 2.023 1.407 3.535z" fill="#fff" fill-opacity=".196"/><path d="m456.16 428.8h-6.445v-22.246l7.012 1.406v-3.594l-6.973-1.406h-3.946v25.84h-6.444v3.32h16.797v-3.32h-1e-3zm-36.738-12.403c-1.888 0.404-3.359 1.244-4.415 2.52-1.067 1.275-1.601 2.852-1.601 4.727 0 2.877 0.989 5.105 2.969 6.68 1.979 1.576 4.791 2.363 8.438 2.363 1.224 0 2.487-0.123 3.79-0.371 1.288-0.234 2.622-0.592 4.003-1.074v-3.809c-1.094 0.639-2.292 1.121-3.595 1.445-1.302 0.326-2.662 0.488-4.082 0.488-2.473 0-4.354-0.488-5.644-1.465-1.302-0.977-1.953-2.395-1.953-4.258 0-1.719 0.605-3.059 1.816-4.023 1.197-0.977 2.871-1.465 5.02-1.465h3.398v-3.242h-3.556c-1.939 0-3.424-0.385-4.453-1.152-1.028-0.781-1.543-1.9-1.543-3.359 0-1.496 0.534-2.643 1.603-3.438 1.055-0.807 2.571-1.209 4.55-1.209 1.081 0 2.24 0.115 3.478 0.35 1.236 0.234 2.598 0.6 4.081 1.094v-3.516c-1.497-0.416-2.896-0.729-4.198-0.938-1.315-0.209-2.553-0.312-3.71-0.312-2.996 0-5.365 0.684-7.11 2.051-1.744 1.354-2.617 3.191-2.617 5.508 0 1.615 0.462 2.982 1.386 4.102 0.923 1.106 2.239 1.874 3.945 2.303zm-16.915 12.403h-13.77v3.32h18.517v-3.32c-1.498-1.549-3.536-3.625-6.114-6.23-2.59-2.617-4.218-4.303-4.883-5.059-1.263-1.418-2.142-2.617-2.636-3.594-0.508-0.988-0.762-1.959-0.762-2.91 0-1.549 0.547-2.812 1.64-3.789 1.081-0.977 2.494-1.465 4.239-1.465 1.236 0 2.545 0.215 3.926 0.645 1.367 0.43 2.831 1.08 4.395 1.953v-3.984c-1.589-0.637-3.073-1.119-4.453-1.445s-2.644-0.488-3.789-0.488c-3.021 0-5.43 0.756-7.227 2.266s-2.695 3.529-2.695 6.055c0 1.197 0.228 2.338 0.684 3.418 0.442 1.068 1.256 2.332 2.441 3.791 0.325 0.377 1.36 1.471 3.105 3.279 1.745 1.797 4.205 4.316 7.382 7.561v-4e-3zm-22.753 0h-6.446v-22.246l7.013 1.406v-3.594l-6.974-1.406h-3.944v25.84h-6.445v3.32h16.797v-3.32h-1e-3zm-49.473-12.403c-1.888 0.404-3.359 1.244-4.414 2.52-1.068 1.275-1.603 2.852-1.603 4.727 0 2.877 0.99 5.105 2.97 6.68 1.979 1.576 4.792 2.363 8.438 2.363 1.224 0 2.486-0.123 3.789-0.371 1.289-0.234 2.623-0.592 4.004-1.074v-3.809c-1.094 0.639-2.292 1.121-3.594 1.445-1.302 0.326-2.663 0.488-4.082 0.488-2.474 0-4.355-0.488-5.645-1.465-1.303-0.977-1.953-2.395-1.953-4.258 0-1.719 0.605-3.059 1.815-4.023 1.198-0.977 2.872-1.465 5.021-1.465h3.397v-3.242h-3.554c-1.94 0-3.424-0.385-4.453-1.152-1.028-0.781-1.543-1.9-1.543-3.359 0-1.496 0.534-2.643 1.602-3.438 1.055-0.807 2.571-1.209 4.551-1.209 1.08 0 2.239 0.115 3.477 0.35s2.598 0.6 4.082 1.094v-3.516c-1.497-0.416-2.897-0.729-4.2-0.938-1.314-0.209-2.551-0.312-3.71-0.312-2.995 0-5.365 0.684-7.109 2.051-1.745 1.354-2.617 3.191-2.617 5.508 0 1.615 0.462 2.982 1.387 4.102 0.923 1.106 2.238 1.874 3.944 2.303zm-24.355-10l9.96 15.566h-9.96v-15.566zm1.035-3.437h-4.961v19.004h-4.16v3.281h4.16v6.875h3.925v-6.875h13.165v-3.809l-12.129-18.476zm-15.704 0h-15.488v3.32h11.875v7.148c-0.573-0.195-1.146-0.338-1.719-0.43-0.573-0.104-1.146-0.156-1.718-0.156-3.255 0-5.833 0.893-7.735 2.676-1.901 1.785-2.851 4.199-2.851 7.246 0 3.139 0.977 5.58 2.93 7.324 1.953 1.732 4.707 2.598 8.261 2.598 1.224 0 2.474-0.104 3.75-0.312 1.263-0.207 2.572-0.52 3.926-0.938v-3.965c-1.172 0.639-2.383 1.113-3.633 1.426s-2.572 0.469-3.965 0.469c-2.253 0-4.037-0.592-5.351-1.777-1.315-1.184-1.973-2.793-1.973-4.824s0.658-3.639 1.973-4.824c1.314-1.186 3.098-1.777 5.351-1.777 1.055 0 2.109 0.117 3.164 0.352 1.042 0.234 2.109 0.6 3.203 1.094v-14.65zm-25.468 0h-15.489v3.32h11.875v7.148c-0.573-0.195-1.146-0.338-1.718-0.43-0.573-0.104-1.146-0.156-1.72-0.156-3.255 0-5.833 0.893-7.733 2.676-1.901 1.785-2.852 4.199-2.852 7.246 0 3.139 0.977 5.58 2.93 7.324 1.953 1.732 4.707 2.598 8.261 2.598 1.224 0 2.474-0.104 3.75-0.312 1.263-0.207 2.572-0.52 3.926-0.938v-3.965c-1.172 0.639-2.383 1.113-3.633 1.426s-2.571 0.469-3.964 0.469c-2.253 0-4.037-0.592-5.352-1.777-1.315-1.184-1.973-2.793-1.973-4.824s0.658-3.639 1.973-4.824c1.315-1.186 3.099-1.777 5.352-1.777 1.055 0 2.109 0.117 3.164 0.352 1.042 0.234 2.109 0.6 3.203 1.094v-14.65z" fill="#fff" fill-opacity=".196"/><rect y="66.346" width="780" height="102" fill="#333"/><path d="m31 191.35h562v80h-562v-80z" fill="#fff"/><path d="m513.85 244.95h-7.199v-31h-3.651l-10.2 6.3 1.8 2.95 7.9-4.75v26.5h-8.5v3.4h19.85v-3.4zm17.58-31.6c-4.649 0-7.75 1.65-10.5 4.95l2.9 2.2c2.2-2.55 4.05-3.65 7.45-3.65 3.85 0 6.149 2.4 6.149 6.25 0 5.65-2.8 9.4-15.8 21.85v3.4h20.45l0.5-3.55h-16.2c11.351-10.35 15.4-15.5 15.4-21.8 1e-3 -5.5-3.849-9.65-10.349-9.65zm29.98 0c-3.5 0-6.851 1.2-9.75 4l2.25 2.55c2.3-2.15 4.35-3.2 7.3-3.2 3.65 0 6.55 2.05 6.55 5.85 0 4.15-3.25 6.05-6.55 6.05h-2.05l-0.5 3.3h2.899c4.051 0 7.15 1.6 7.15 6.55 0 4.3-2.85 7.05-7.7 7.05-2.8 0-5.7-1.15-7.649-3.45l-2.801 2.3c2.601 3.2 6.7 4.55 10.551 4.55 7.1 0 11.949-4.5 11.949-10.45 0-5.35-3.8-8.15-7.85-8.45 3.65-0.7 6.75-3.85 6.75-8 1e-3 -4.7-4.099-8.65-10.549-8.65z"/><path d="m56 354.93h83c13.807 0 25 11.193 25 25v45c0 13.807-11.193 25-25 25h-83c-13.807 0-25-11.193-25-25v-45c0-13.807 11.193-25 25-25z" fill="#A5A5A5"/></svg>
