<svg width="780" height="500" enable-background="new 0 0 780 500" version="1.1" viewBox="0 0 780 500" xml:space="preserve" xmlns="http://www.w3.org/2000/svg"><g transform="translate(15 15)"><path d="M26.059,0H724.44c14.393,0,26.06,11.916,26.06,26.616v416.269   c0,14.698-11.667,26.615-26.06,26.615H26.059C11.667,469.5,0,457.583,0,442.885V26.616C0,11.916,11.667,0,26.059,0z" fill="none" stroke="#393939" stroke-width="30"/><path d="m88.038 243.11c-5.003 0.639-13.763 2.556-18.767 7.026-15.013 13.412-6.255 37.047 24.397 37.047 17.515 0 35.031-11.498 48.793-29.384-20.017-9.579-36.282-16.607-54.423-14.689z" fill="#393939"/><path d="m200.17 259.55c28.15 9.581 34.405 10.22 34.405 10.22v-102.2c0-17.247-13.763-31.298-31.277-31.298h-131.37c-16.89 0-31.278 14.053-31.278 31.299v134.14c0 17.246 13.763 31.298 31.278 31.298h131.37c16.889 0 31.277-14.054 31.277-31.3v-1.277s-50.043-21.077-75.692-33.854c-16.889 21.078-38.784 34.494-61.929 34.494-38.785 0-51.921-34.494-33.155-56.851 3.753-5.11 10.634-9.582 21.268-12.136 16.265-3.833 42.539 2.554 66.935 10.86 4.378-8.306 8.132-17.248 10.635-26.83h-75.692v-7.665h38.784v-15.33h-47.542v-7.666h47.542v-19.799s0-3.194 3.127-3.194h18.768v23.634h46.916v7.027h-46.916v14.053h38.158c-3.752 15.33-9.383 29.382-16.265 41.519 12.512 4.472 23.146 8.305 30.653 10.859zm123.68-76.849l41.286 91.341h-21.895l-11.259-24.273h-33.781l-11.259 24.273h-14.388l41.913-88.788s1.25-2.555 3.752-2.555h5.631v2e-3zm-21.895 58.765h26.273l-13.136-28.745-13.137 28.745zm91.151 33.303h-20.017v-86.871c0-2.555 1.251-3.833 4.378-3.833h15.639v90.704zm37.535-0.594h-20.019v-65.792c0-2.554 1.251-3.833 4.378-3.833h15.641v69.625zm24.475-68.26h13.137v6.388c2.503-1.917 5.005-3.833 8.133-4.472 3.128-1.277 6.256-1.917 10.634-1.917s8.134 0.639 11.261 2.555c3.752 1.917 6.254 3.833 8.757 7.027 2.504 3.194 4.379 6.388 5.631 10.221 1.251 3.833 1.875 7.666 1.875 12.135 0 5.749-0.624 10.86-2.5 15.331-1.877 4.471-3.753 8.943-6.881 12.137-3.129 3.193-6.258 6.387-10.637 8.304-4.378 1.914-8.757 2.556-13.761 2.556h-6.882c-1.875 0-3.752-0.642-5.63-1.279v22.996h-20.019v-83.678c-0.625-8.304 2.503-8.304 6.882-8.304zm13.137 49.824c0 1.916 0 3.193 0.627 4.471 0.624 1.277 1.25 2.555 2.501 3.834 1.25 1.276 2.501 1.914 3.753 2.554s3.128 0.64 5.005 0.64 3.128-0.64 5.004-1.917c1.252-1.276 3.128-2.556 3.753-5.11 0.626-2.555 1.878-4.471 2.502-7.665 0.627-3.194 1.252-5.75 1.252-9.582 0-4.472 0-8.303-0.625-11.497-0.627-3.193-1.251-5.749-2.503-8.304-1.251-1.917-2.502-3.833-3.752-5.11-1.251-1.277-3.128-1.916-5.005-1.916-1.251 0-2.503 0-3.754 0.639-1.25 0.638-2.502 1.277-3.128 1.916-1.251 0.639-1.875 1.916-3.126 2.555-1.253 1.278-1.877 1.917-2.504 3.194v31.298zm84.46-49.824c5.004 0 8.759 0.639 12.512 1.278 3.127 0.639 6.255 1.917 8.758 3.833 2.502 1.917 3.753 3.833 5.003 5.749 1.252 2.555 1.878 5.11 1.878 7.665v50.461h-20.017v-5.109c-1.253 1.277-2.503 1.916-3.129 2.554l-3.754 1.917c-1.251 0.639-2.502 1.276-4.378 1.276-1.876 0.642-3.753 0.642-5.632 0.642-3.126 0-5.629-0.642-8.133-1.279-2.499-0.639-4.377-1.916-6.254-3.832-1.876-1.277-3.129-3.194-3.753-5.749-0.627-1.916-1.251-4.471-1.251-7.026s0.624-5.111 1.251-7.027c0.624-1.916 2.5-3.832 3.752-5.749 1.251-1.916 3.754-3.193 5.631-4.471 2.502-1.279 4.379-2.556 7.507-3.833 2.502-1.276 5.005-1.915 8.134-3.193 2.5-0.639 5.628-1.915 8.129-2.555l2.504-0.639v-7.026c0-1.916 0-3.832-0.625-5.749l-1.879-3.833c-0.624-0.638-1.875-1.916-2.499-1.916-1.252-0.639-2.503-0.639-3.755-0.639 0 0-10.634 0-20.018 8.304l-4.38-7.027c-1.875 1.277 9.385-7.027 24.398-7.027zm6.881 33.854c-1.877 0.64-3.753 1.917-5.629 3.194l-5.631 3.832c-1.876 1.278-3.128 2.556-3.753 4.471-1.251 1.279-1.251 3.195-1.251 4.474 0 1.277 0 2.554 0.624 3.832 0.627 1.277 0.627 1.916 1.252 3.194 0.625 1.277 1.252 1.277 1.876 1.916 0.627 0.639 1.252 0.639 2.503 0.639 1.876 0 3.128-0.639 5.003-1.277l5.632-3.833v-20.441h-0.626v-1e-3zm48.526 57.488h-13.137l-0.626-12.136s16.265 0.64 21.269-5.749c1.875-2.555 3.127-9.58 3.127-9.58l-32.527-63.876h21.895l20.643 41.519 18.141-41.52h14.388l-33.153 75.374c-1.251 2.556-6.256 15.97-20.018 15.97v-2e-3z" fill="#393939"/><ellipse cx="420.7" cy="185.78" rx="10.01" ry="9.05" fill="#393939"/><path d="m681.58 152.57h-6.881v-1.277h15.014v1.277h-6.881v19.801h-1.877v-19.801h0.625zm11.171-1.277h2.501l4.381 12.136 1.877 4.472c0.624-1.278 1.25-3.194 1.875-4.472l4.379-12.136h2.502v21.718h-2.5v-19.163l-1.877 5.11-4.378 12.776h-1.252l-4.379-12.776-1.876-5.11v19.163h-1.878v-21.718h0.625z" fill="#393939"/></g></svg>
