<?xml version="1.0" encoding="UTF-8"?><svg id="a" xmlns="http://www.w3.org/2000/svg" width="780" height="500" viewBox="0 0 780 500"><g><path d="M53.5,15H727c21.3,0,38.5,16.8,38.5,37.5V446.5c0,20.7-17.2,37.5-38.5,37.5H53.5c-21.3,0-38.5-16.8-38.5-37.5V52.5c0-20.7,17.2-37.5,38.5-37.5Z" style="fill:none; stroke:#393939; stroke-width:30px;"/><path d="M81.4,159h67c10.8,0,19.6,8.5,19.6,19.1v55.4c0,10.5-8.8,19.1-19.6,19.1H81.4c-10.8,0-19.6-8.5-19.6-19.1v-55.4c.1-10.5,8.8-19.1,19.6-19.1Z"/><path d="M85.2,292h-4l-.4,10.6h-11l10.2-23.5-3.8-1.6-11.2,25.5v3.2h15.8v9.1h4.5v-9.1h4.9v-3.6h-4.9l-.1-10.6h0Zm23.8-14.6c-3.9,0-7.6,1.3-10.8,4.3l2.5,2.8c2.5-2.3,4.8-3.5,8.1-3.5,4,0,7.2,2.2,7.2,6.3,0,4.5-3.6,6.5-7.2,6.5h-2.3l-.6,3.6h3.2c4.5,0,7.9,1.7,7.9,7.1,0,4.6-3.2,7.6-8.5,7.6-3.1,0-6.3-1.2-8.5-3.7l-3.1,2.5c2.9,3.5,7.4,4.9,11.7,4.9,7.9,0,13.2-4.9,13.2-11.3,0-5.8-4.2-8.8-8.7-9.1,4-.8,7.5-4.2,7.5-8.6,.1-5.1-4.5-9.4-11.6-9.4h0Zm33.2,0c-5.1,0-8.6,1.8-11.6,5.3l3.2,2.4c2.4-2.8,4.5-3.9,8.2-3.9,4.3,0,6.8,2.6,6.8,6.7,0,6.1-3.1,10.1-17.5,23.6v3.7h22.7l.6-3.8h-17.9c12.6-11.2,17-16.7,17-23.5-.1-6-4.3-10.5-11.5-10.5h0Zm34.9,.7l-11.3,6.8,2,3.2,8.7-5.1v28.6h-9.4v3.7h22v-3.7h-8v-33.4l-4-.1h0Zm74,13.9h-4l-.4,10.6h-11l10.2-23.5-3.8-1.6-11.2,25.5v3.2h15.8v9.1h4.5v-9.1h4.9v-3.6h-4.9l-.1-10.6h0Zm23.8-14.6c-3.9,0-7.6,1.3-10.8,4.3l2.5,2.8c2.5-2.3,4.8-3.5,8.1-3.5,4,0,7.2,2.2,7.2,6.3,0,4.5-3.6,6.5-7.2,6.5h-2.3l-.6,3.6h3.2c4.5,0,7.9,1.7,7.9,7.1,0,4.6-3.2,7.6-8.5,7.6-3.1,0-6.3-1.2-8.5-3.7l-3.1,2.5c2.9,3.5,7.4,4.9,11.7,4.9,7.9,0,13.2-4.9,13.2-11.3,0-5.8-4.2-8.8-8.7-9.1,4-.8,7.5-4.2,7.5-8.6,0-5.1-4.5-9.4-11.6-9.4h0Zm33.1,0c-5.1,0-8.6,1.8-11.6,5.3l3.2,2.4c2.4-2.8,4.5-3.9,8.2-3.9,4.3,0,6.8,2.6,6.8,6.7,0,6.1-3.1,10.1-17.5,23.6v3.7h22.6l.6-3.8h-17.9c12.6-11.2,17-16.7,17-23.5,.1-6-4.2-10.5-11.4-10.5h0Zm34.9,.7l-11.3,6.8,2,3.2,8.7-5.1v28.6h-9.3v3.7h22v-3.7h-8v-33.4l-4.1-.1h0Zm74.1,13.9h-4l-.4,10.6h-11l10.2-23.5-3.8-1.6-11.2,25.5v3.2h15.8v9.1h4.5v-9.1h4.9v-3.6h-5v-10.6h0Zm23.7-14.6c-3.9,0-7.6,1.3-10.8,4.3l2.5,2.8c2.5-2.3,4.8-3.5,8.1-3.5,4,0,7.2,2.2,7.2,6.3,0,4.5-3.6,6.5-7.2,6.5h-2.3l-.6,3.6h3.2c4.5,0,7.9,1.7,7.9,7.1,0,4.6-3.2,7.6-8.5,7.6-3.1,0-6.3-1.2-8.5-3.7l-3.1,2.5c2.9,3.5,7.4,4.9,11.7,4.9,7.9,0,13.2-4.9,13.2-11.3,0-5.8-4.2-8.8-8.7-9.1,4-.8,7.5-4.2,7.5-8.6,.1-5.1-4.4-9.4-11.6-9.4h0Zm33.2,0c-5.1,0-8.6,1.8-11.6,5.3l3.2,2.4c2.4-2.8,4.5-3.9,8.2-3.9,4.3,0,6.8,2.6,6.8,6.7,0,6.1-3.1,10.1-17.5,23.6v3.7h22.6l.6-3.8h-17.9c12.6-11.2,17-16.7,17-23.5,.1-6-4.2-10.5-11.4-10.5h0Zm34.9,.7l-11.3,6.8,2,3.2,8.7-5.1v28.6h-9.4v3.7h22v-3.7h-8v-33.4l-4-.1h0Zm74,13.9h-4l-.4,10.6h-11l10.2-23.5-3.8-1.6-11.2,25.5v3.2h15.8v9.1h4.5v-9.1h4.9v-3.6h-4.9l-.1-10.6h0Zm23.8-14.6c-3.9,0-7.6,1.3-10.8,4.3l2.5,2.8c2.5-2.3,4.8-3.5,8.1-3.5,4,0,7.2,2.2,7.2,6.3,0,4.5-3.6,6.5-7.2,6.5h-2.3l-.6,3.6h3.2c4.5,0,7.9,1.7,7.9,7.1,0,4.6-3.2,7.6-8.5,7.6-3.1,0-6.3-1.2-8.5-3.7l-3.1,2.5c2.9,3.5,7.4,4.9,11.7,4.9,7.9,0,13.2-4.9,13.2-11.3,0-5.8-4.2-8.8-8.7-9.1,4-.8,7.5-4.2,7.5-8.6,.1-5.1-4.5-9.4-11.6-9.4h0Zm33.2,0c-5.1,0-8.6,1.8-11.6,5.3l3.2,2.4c2.4-2.8,4.5-3.9,8.2-3.9,4.3,0,6.8,2.6,6.8,6.7,0,6.1-3.1,10.1-17.5,23.6v3.7h22.6l.6-3.8h-17.9c12.6-11.2,17-16.7,17-23.5,0-6-4.2-10.5-11.4-10.5h0Zm34.9,.7l-11.3,6.8,2,3.2,8.7-5.1v28.6h-9.4v3.7h22v-3.7h-8v-33.4l-4-.1h0Z"/><path d="M68,385.1v-3.4l6.7-1.3h3.8v24.2h6.2v3.1h-16.2v-3.1h6.2v-20.9l-6.7,1.4h0Zm24.5,0v-3.4l6.7-1.3h3.8v24.2h6.2v3.1h-16.2v-3.1h6.2v-20.9l-6.7,1.4h0Zm39.9,19.6h13.2v3.1h-17.8v-3.1c1.9-2,3.9-3.9,5.9-5.8,2.5-2.5,4.1-4,4.7-4.7,1.2-1.3,2.1-2.5,2.5-3.4,.5-.9,.7-1.8,.7-2.7,0-1.5-.5-2.6-1.6-3.6-1-.9-2.4-1.4-4.1-1.4-1.2,0-2.4,.2-3.8,.6-1.3,.4-2.7,1-4.2,1.8v-3.7c1.5-.6,3-1,4.3-1.4,1.3-.3,2.5-.5,3.6-.5,2.9,0,5.2,.7,7,2.1,1.7,1.4,2.6,3.3,2.6,5.7,0,1.1-.2,2.2-.7,3.2-.4,1-1.2,2.2-2.3,3.6-.3,.4-1.3,1.4-3,3.1-2.3,2.3-4.6,4.7-7,7.1h0Zm32.7-11.7c1.8,.4,3.2,1.2,4.2,2.4s1.5,2.7,1.5,4.4c0,2.7-1,4.8-2.9,6.3s-4.6,2.2-8.1,2.2c-1.2,0-2.4-.1-3.6-.3-1.3-.2-2.6-.6-3.9-1v-3.6c1.1,.6,2.2,1.1,3.5,1.4,1.3,.3,2.6,.5,3.9,.5,2.4,0,4.2-.5,5.4-1.4,1.3-.9,1.9-2.2,1.9-4,0-1.6-.6-2.9-1.7-3.8-1.2-.9-2.8-1.4-4.8-1.4h-3.3v-3h3.4c1.9,0,3.3-.4,4.3-1.1,1-.7,1.5-1.8,1.5-3.2s-.5-2.5-1.5-3.2c-1-.8-2.5-1.1-4.4-1.1-1,0-2.2,.1-3.3,.3-1.2,.2-2.5,.6-3.9,1v-3.3c1.3-.4,2.7-.7,4-.9,1.2-.2,2.4-.3,3.6-.3,2.9,0,5.2,.6,6.8,1.9,1.7,1.3,2.5,3,2.5,5.2,0,1.5-.4,2.8-1.3,3.8-.9,1.1-2.1,1.8-3.8,2.2h0Zm25.3-12.6h14.9v3.1h-11.4v6.7c.5-.2,1.1-.3,1.7-.4,.5-.1,1.1-.1,1.7-.1,3.1,0,5.6,.8,7.4,2.5,1.8,1.7,2.7,3.9,2.7,6.8s-.9,5.2-2.8,6.9c-1.9,1.6-4.5,2.4-7.9,2.4-1.2,0-2.4-.1-3.6-.3-1.3-.2-2.5-.5-3.8-.9v-3.7c1.1,.6,2.3,1,3.5,1.3s2.5,.4,3.8,.4c2.2,0,3.9-.6,5.1-1.7,1.3-1.1,1.9-2.6,1.9-4.5s-.6-3.4-1.9-4.5c-1.3-1.1-3-1.7-5.1-1.7-1,0-2,.1-3,.3-1.1,.2-2.1,.6-3.1,1l-.1-13.6h0Zm32.6,14.4c-1.8,0-3.2,.5-4.3,1.4-1,.9-1.5,2.2-1.5,3.9s.5,2.9,1.5,3.9c1,.9,2.5,1.4,4.3,1.4s3.2-.5,4.3-1.4c1-1,1.6-2.2,1.6-3.9,0-1.6-.5-2.9-1.6-3.9-1.1-.9-2.5-1.4-4.3-1.4h0Zm-3.8-1.6c-1.6-.4-2.9-1.1-3.8-2.2-.9-1.1-1.4-2.4-1.4-4,0-2.2,.8-3.9,2.4-5.2,1.6-1.3,3.8-1.9,6.6-1.9s5,.6,6.6,1.9c1.6,1.3,2.4,3,2.4,5.2,0,1.6-.5,2.9-1.4,4s-2.2,1.8-3.8,2.2c1.8,.4,3.3,1.2,4.3,2.4s1.5,2.7,1.5,4.4c0,2.7-.8,4.7-2.5,6.1-1.7,1.4-4,2.1-7.1,2.1s-5.5-.7-7.1-2.1c-1.7-1.4-2.5-3.5-2.5-6.1,0-1.7,.5-3.2,1.5-4.4s2.5-2,4.3-2.4Zm-1.4-5.8c0,1.4,.5,2.5,1.4,3.3s2.2,1.2,3.8,1.2,2.9-.4,3.8-1.2c.9-.8,1.4-1.9,1.4-3.3s-.5-2.5-1.4-3.3-2.2-1.2-3.8-1.2-2.9,.4-3.8,1.2c-.9,.8-1.4,1.9-1.4,3.3h0Z"/><path d="M311.6,384.2v-3.4l6.7-1.3h3.8v24.2h6.2v3.1h-16.2v-3.1h6.2v-20.9l-6.7,1.4Zm35.9,7.9c1.8,.4,3.2,1.2,4.2,2.4s1.5,2.7,1.5,4.4c0,2.7-1,4.8-2.9,6.3s-4.6,2.2-8.1,2.2c-1.2,0-2.4-.1-3.6-.3-1.3-.2-2.6-.6-3.9-1v-3.6c1.1,.6,2.2,1.1,3.5,1.4,1.3,.3,2.6,.5,3.9,.5,2.4,0,4.2-.5,5.4-1.4,1.3-.9,1.9-2.2,1.9-4,0-1.6-.6-2.9-1.7-3.8-1.2-.9-2.8-1.4-4.8-1.4h-3.3v-3h3.4c1.9,0,3.3-.4,4.3-1.1,1-.7,1.5-1.8,1.5-3.2s-.5-2.5-1.5-3.2c-1-.8-2.5-1.1-4.4-1.1-1,0-2.2,.1-3.3,.3-1.2,.2-2.5,.6-3.9,1v-3.3c1.3-.4,2.7-.7,4-.9,1.2-.2,2.4-.3,3.6-.3,2.9,0,5.2,.6,6.8,1.9,1.7,1.3,2.5,3,2.5,5.2,0,1.5-.4,2.8-1.3,3.8-.9,1.1-2.2,1.8-3.8,2.2h0Zm16.3,11.7h13.2v3.1h-17.8v-3.1c2-2,3.9-3.9,5.9-5.8,2.5-2.5,4.1-4,4.7-4.7,1.2-1.3,2.1-2.5,2.5-3.4,.5-.9,.7-1.8,.7-2.7,0-1.5-.5-2.6-1.6-3.6-1-.9-2.4-1.4-4.1-1.4-1.2,0-2.5,.2-3.8,.6-1.3,.4-2.7,1-4.2,1.8v-3.7c1.5-.6,3-1.1,4.3-1.4s2.5-.5,3.6-.5c2.9,0,5.2,.7,7,2.1,1.7,1.4,2.6,3.3,2.6,5.7,0,1.1-.2,2.2-.7,3.2-.4,1-1.2,2.2-2.3,3.6-.3,.4-1.3,1.4-3,3.1-2.3,2.3-4.6,4.7-7,7.1h0Zm21.3-19.6v-3.4l6.7-1.3h3.8v24.2h6.2v3.1h-16.2v-3.1h6.2v-20.9l-6.7,1.4h0Zm48.2,7.9c1.8,.4,3.2,1.2,4.2,2.4s1.5,2.7,1.5,4.4c0,2.7-1,4.8-2.9,6.3s-4.6,2.2-8.1,2.2c-1.2,0-2.4-.1-3.6-.3-1.3-.2-2.6-.6-3.9-1v-3.6c1.1,.6,2.2,1.1,3.5,1.4,1.3,.3,2.6,.5,3.9,.5,2.4,0,4.2-.5,5.4-1.4,1.3-.9,1.9-2.2,1.9-4,0-1.6-.6-2.9-1.7-3.8-1.2-.9-2.8-1.4-4.8-1.4h-3.3v-3h3.4c1.9,0,3.3-.4,4.3-1.1,1-.7,1.5-1.8,1.5-3.2s-.5-2.5-1.5-3.2c-1-.8-2.5-1.1-4.4-1.1-1,0-2.2,.1-3.3,.3-1.2,.2-2.5,.6-3.9,1v-3.3c1.3-.4,2.7-.7,4-.9,1.2-.2,2.4-.3,3.6-.3,2.9,0,5.2,.6,6.8,1.9,1.7,1.3,2.5,3,2.5,5.2,0,1.5-.4,2.8-1.3,3.8-.9,1.1-2.2,1.8-3.8,2.2h0Zm23.4-9.4l-9.6,14.6h9.6v-14.6Zm-1-3.2h4.8v17.8h4v3.1h-4v6.4h-3.8v-6.4h-12.7v-3.6l11.7-17.3h0Zm15.1,0h14.9v3.1h-11.4v6.7c.5-.2,1.1-.3,1.7-.4,.5-.1,1.1-.1,1.7-.1,3.1,0,5.6,.8,7.4,2.5s2.7,3.9,2.7,6.8-.9,5.2-2.8,6.9c-1.9,1.6-4.5,2.4-7.9,2.4-1.2,0-2.4-.1-3.6-.3-1.3-.2-2.5-.5-3.8-.9v-3.7c1.1,.6,2.3,1,3.5,1.3s2.5,.4,3.8,.4c2.2,0,3.9-.6,5.1-1.7,1.3-1.1,1.9-2.6,1.9-4.5s-.6-3.4-1.9-4.5-3-1.7-5.1-1.7c-1,0-2,.1-3,.3-1.1,.2-2.1,.6-3.1,1l-.1-13.6h0Zm24.5,0h14.9v3.1h-11.4v6.7c.5-.2,1.1-.3,1.7-.4,.5-.1,1.1-.1,1.7-.1,3.1,0,5.6,.8,7.4,2.5s2.7,3.9,2.7,6.8-.9,5.2-2.8,6.9c-1.9,1.6-4.5,2.4-7.9,2.4-1.2,0-2.4-.1-3.6-.3-1.3-.2-2.5-.5-3.8-.9v-3.7c1.1,.6,2.3,1,3.5,1.3s2.5,.4,3.8,.4c2.2,0,3.9-.6,5.1-1.7,1.3-1.1,1.9-2.6,1.9-4.5s-.6-3.4-1.9-4.5-3-1.7-5.1-1.7c-1,0-2,.1-3,.3-1.1,.2-2.1,.6-3.1,1l-.1-13.6Z"/></g><path d="M731.9,256.7v-2.5h-3.4v-7.4h-2.8l-.3,7.4h-7.4l7-16.5-2.6-1.1-7.7,17.8v2.3h10.8v6.4h3.1v-6.4h3.3Zm-30.8-20.1c-2.6,0-5.2,.9-7.4,3l1.7,1.9c1.7-1.6,3.3-2.4,5.5-2.4,2.8,0,5,1.6,5,4.4,0,3.1-2.5,4.6-5,4.6h-1.6l-.4,2.5h2.2c3.1,0,5.4,1.2,5.4,5,0,3.3-2.2,5.3-5.8,5.3-2.1,0-4.3-.9-5.8-2.6l-2.1,1.7c2,2.4,5.1,3.4,8,3.4,5.4,0,9-3.4,9-7.9,0-4-2.9-6.2-5.9-6.4,2.8-.5,5.1-2.9,5.1-6,.1-3.6-3-6.5-7.9-6.5h0Zm-22.6,0c-3.5,0-5.9,1.2-7.9,3.7l2.2,1.7c1.7-1.9,3.1-2.8,5.6-2.8,2.9,0,4.7,1.8,4.7,4.7,0,4.3-2.1,7.1-11.9,16.5v2.6h15.5l.4-2.7h-12.3c8.6-7.8,11.6-11.7,11.6-16.5,0-4.1-2.9-7.2-7.9-7.2h0Zm-13.8,23.9h-5.4v-23.5h-2.8l-7.7,4.8,1.4,2.2,6-3.6v20h-6.4v2.6h15v-2.5h-.1Z" style="fill:#373737;"/></svg>