<?xml version="1.0" encoding="utf-8"?>
<!-- Generator: Adobe Illustrator 26.0.2, SVG Export Plug-In . SVG Version: 6.00 Build 0)  -->
<svg version="1.1" id="Layer_1" xmlns="http://www.w3.org/2000/svg" xmlns:xlink="http://www.w3.org/1999/xlink" x="0px" y="0px"
	 viewBox="0 0 780 500" style="enable-background:new 0 0 780 500;" xml:space="preserve">
<style type="text/css">
	.st0{fill:none;stroke:#393939;stroke-width:30;}
	.st1{fill-opacity:0.196;}
	.st2{fill-opacity:0.784;}
	.st3{fill:#373737;}
</style>
<g transform="translate(15 -254)">
	<path class="st0" d="M38.5,269H712c21.3,0,38.5,16.8,38.5,37.5v394c0,20.7-17.2,37.5-38.5,37.5H38.5C17.2,738,0,721.2,0,700.5v-394
		C0,285.8,17.2,269,38.5,269z"/>
	<path class="st1" d="M66.4,413h67c10.8,0,19.6,8.5,19.6,19.1v55.4c0,10.5-8.8,19.1-19.6,19.1h-67c-10.8,0-19.6-8.5-19.6-19.1v-55.4
		C46.9,421.6,55.6,413,66.4,413z"/>
	<path class="st2" d="M70.2,546h-4l-0.4,10.6h-11L65,533.1l-3.8-1.6l-11.2,25.5v3.2h15.8v9.1h4.5v-9.1h4.9v-3.6h-4.9L70.2,546
		L70.2,546z M94,531.4c-3.9,0-7.6,1.3-10.8,4.3l2.5,2.8c2.5-2.3,4.8-3.5,8.1-3.5c4,0,7.2,2.2,7.2,6.3c0,4.5-3.6,6.5-7.2,6.5h-2.3
		l-0.6,3.6h3.2c4.5,0,7.9,1.7,7.9,7.1c0,4.6-3.2,7.6-8.5,7.6c-3.1,0-6.3-1.2-8.5-3.7l-3.1,2.5c2.9,3.5,7.4,4.9,11.7,4.9
		c7.9,0,13.2-4.9,13.2-11.3c0-5.8-4.2-8.8-8.7-9.1c4-0.8,7.5-4.2,7.5-8.6C105.7,535.7,101.1,531.4,94,531.4L94,531.4z M127.2,531.4
		c-5.1,0-8.6,1.8-11.6,5.3l3.2,2.4c2.4-2.8,4.5-3.9,8.2-3.9c4.3,0,6.8,2.6,6.8,6.7c0,6.1-3.1,10.1-17.5,23.6v3.7H139l0.6-3.8h-17.9
		c12.6-11.2,17-16.7,17-23.5C138.6,535.9,134.4,531.4,127.2,531.4L127.2,531.4z M162.1,532.1l-11.3,6.8l2,3.2l8.7-5.1v28.6h-9.4v3.7
		h22v-3.7h-8v-33.4L162.1,532.1L162.1,532.1z M236.1,546h-4l-0.4,10.6h-11l10.2-23.5l-3.8-1.6l-11.2,25.5v3.2h15.8v9.1h4.5v-9.1h4.9
		v-3.6h-4.9L236.1,546L236.1,546z M259.9,531.4c-3.9,0-7.6,1.3-10.8,4.3l2.5,2.8c2.5-2.3,4.8-3.5,8.1-3.5c4,0,7.2,2.2,7.2,6.3
		c0,4.5-3.6,6.5-7.2,6.5h-2.3l-0.6,3.6h3.2c4.5,0,7.9,1.7,7.9,7.1c0,4.6-3.2,7.6-8.5,7.6c-3.1,0-6.3-1.2-8.5-3.7l-3.1,2.5
		c2.9,3.5,7.4,4.9,11.7,4.9c7.9,0,13.2-4.9,13.2-11.3c0-5.8-4.2-8.8-8.7-9.1c4-0.8,7.5-4.2,7.5-8.6
		C271.5,535.7,267,531.4,259.9,531.4L259.9,531.4z M293,531.4c-5.1,0-8.6,1.8-11.6,5.3l3.2,2.4c2.4-2.8,4.5-3.9,8.2-3.9
		c4.3,0,6.8,2.6,6.8,6.7c0,6.1-3.1,10.1-17.5,23.6v3.7h22.6l0.6-3.8h-17.9c12.6-11.2,17-16.7,17-23.5
		C304.5,535.9,300.2,531.4,293,531.4L293,531.4z M327.9,532.1l-11.3,6.8l2,3.2l8.7-5.1v28.6H318v3.7h22v-3.7h-8v-33.4L327.9,532.1
		L327.9,532.1z M402,546h-4l-0.4,10.6h-11l10.2-23.5l-3.8-1.6l-11.2,25.5v3.2h15.8v9.1h4.5v-9.1h4.9v-3.6H402V546L402,546z
		 M425.7,531.4c-3.9,0-7.6,1.3-10.8,4.3l2.5,2.8c2.5-2.3,4.8-3.5,8.1-3.5c4,0,7.2,2.2,7.2,6.3c0,4.5-3.6,6.5-7.2,6.5h-2.3l-0.6,3.6
		h3.2c4.5,0,7.9,1.7,7.9,7.1c0,4.6-3.2,7.6-8.5,7.6c-3.1,0-6.3-1.2-8.5-3.7l-3.1,2.5c2.9,3.5,7.4,4.9,11.7,4.9
		c7.9,0,13.2-4.9,13.2-11.3c0-5.8-4.2-8.8-8.7-9.1c4-0.8,7.5-4.2,7.5-8.6C437.4,535.7,432.9,531.4,425.7,531.4L425.7,531.4z
		 M458.9,531.4c-5.1,0-8.6,1.8-11.6,5.3l3.2,2.4c2.4-2.8,4.5-3.9,8.2-3.9c4.3,0,6.8,2.6,6.8,6.7c0,6.1-3.1,10.1-17.5,23.6v3.7h22.6
		l0.6-3.8h-17.9c12.6-11.2,17-16.7,17-23.5C470.4,535.9,466.1,531.4,458.9,531.4L458.9,531.4z M493.8,532.1l-11.3,6.8l2,3.2l8.7-5.1
		v28.6h-9.4v3.7h22v-3.7h-8v-33.4L493.8,532.1L493.8,532.1z M567.8,546h-4l-0.4,10.6h-11l10.2-23.5l-3.8-1.6l-11.2,25.5v3.2h15.8
		v9.1h4.5v-9.1h4.9v-3.6h-4.9L567.8,546L567.8,546z M591.6,531.4c-3.9,0-7.6,1.3-10.8,4.3l2.5,2.8c2.5-2.3,4.8-3.5,8.1-3.5
		c4,0,7.2,2.2,7.2,6.3c0,4.5-3.6,6.5-7.2,6.5h-2.3l-0.6,3.6h3.2c4.5,0,7.9,1.7,7.9,7.1c0,4.6-3.2,7.6-8.5,7.6
		c-3.1,0-6.3-1.2-8.5-3.7l-3.1,2.5c2.9,3.5,7.4,4.9,11.7,4.9c7.9,0,13.2-4.9,13.2-11.3c0-5.8-4.2-8.8-8.7-9.1c4-0.8,7.5-4.2,7.5-8.6
		C603.3,535.7,598.7,531.4,591.6,531.4L591.6,531.4L591.6,531.4z M624.8,531.4c-5.1,0-8.6,1.8-11.6,5.3l3.2,2.4
		c2.4-2.8,4.5-3.9,8.2-3.9c4.3,0,6.8,2.6,6.8,6.7c0,6.1-3.1,10.1-17.5,23.6v3.7h22.6l0.6-3.8h-17.9c12.6-11.2,17-16.7,17-23.5
		C636.2,535.9,632,531.4,624.8,531.4L624.8,531.4z M659.7,532.1l-11.3,6.8l2,3.2l8.7-5.1v28.6h-9.4v3.7h22v-3.7h-8v-33.4
		L659.7,532.1L659.7,532.1z"/>
	<path class="st2" d="M53,639.1v-3.4l6.7-1.3h3.8v24.2h6.2v3.1H53.5v-3.1h6.2v-20.9L53,639.1L53,639.1z M77.5,639.1v-3.4l6.7-1.3H88
		v24.2h6.2v3.1H78v-3.1h6.2v-20.9L77.5,639.1L77.5,639.1z M117.4,658.7h13.2v3.1h-17.8v-3.1c1.9-2,3.9-3.9,5.9-5.8
		c2.5-2.5,4.1-4,4.7-4.7c1.2-1.3,2.1-2.5,2.5-3.4c0.5-0.9,0.7-1.8,0.7-2.7c0-1.5-0.5-2.6-1.6-3.6c-1-0.9-2.4-1.4-4.1-1.4
		c-1.2,0-2.4,0.2-3.8,0.6c-1.3,0.4-2.7,1-4.2,1.8v-3.7c1.5-0.6,3-1,4.3-1.4c1.3-0.3,2.5-0.5,3.6-0.5c2.9,0,5.2,0.7,7,2.1
		c1.7,1.4,2.6,3.3,2.6,5.7c0,1.1-0.2,2.2-0.7,3.2c-0.4,1-1.2,2.2-2.3,3.6c-0.3,0.4-1.3,1.4-3,3.1
		C122.1,653.9,119.8,656.3,117.4,658.7L117.4,658.7z M150.1,647c1.8,0.4,3.2,1.2,4.2,2.4c1,1.2,1.5,2.7,1.5,4.4c0,2.7-1,4.8-2.9,6.3
		c-1.9,1.5-4.6,2.2-8.1,2.2c-1.2,0-2.4-0.1-3.6-0.3c-1.3-0.2-2.6-0.6-3.9-1v-3.6c1.1,0.6,2.2,1.1,3.5,1.4c1.3,0.3,2.6,0.5,3.9,0.5
		c2.4,0,4.2-0.5,5.4-1.4c1.3-0.9,1.9-2.2,1.9-4c0-1.6-0.6-2.9-1.7-3.8c-1.2-0.9-2.8-1.4-4.8-1.4h-3.3v-3h3.4c1.9,0,3.3-0.4,4.3-1.1
		c1-0.7,1.5-1.8,1.5-3.2c0-1.4-0.5-2.5-1.5-3.2c-1-0.8-2.5-1.1-4.4-1.1c-1,0-2.2,0.1-3.3,0.3c-1.2,0.2-2.5,0.6-3.9,1v-3.3
		c1.3-0.4,2.7-0.7,4-0.9c1.2-0.2,2.4-0.3,3.6-0.3c2.9,0,5.2,0.6,6.8,1.9c1.7,1.3,2.5,3,2.5,5.2c0,1.5-0.4,2.8-1.3,3.8
		C153,645.9,151.8,646.6,150.1,647L150.1,647z M175.4,634.4h14.9v3.1h-11.4v6.7c0.5-0.2,1.1-0.3,1.7-0.4c0.5-0.1,1.1-0.1,1.7-0.1
		c3.1,0,5.6,0.8,7.4,2.5c1.8,1.7,2.7,3.9,2.7,6.8c0,2.9-0.9,5.2-2.8,6.9c-1.9,1.6-4.5,2.4-7.9,2.4c-1.2,0-2.4-0.1-3.6-0.3
		c-1.3-0.2-2.5-0.5-3.8-0.9v-3.7c1.1,0.6,2.3,1,3.5,1.3c1.2,0.3,2.5,0.4,3.8,0.4c2.2,0,3.9-0.6,5.1-1.7c1.3-1.1,1.9-2.6,1.9-4.5
		s-0.6-3.4-1.9-4.5c-1.3-1.1-3-1.7-5.1-1.7c-1,0-2,0.1-3,0.3c-1.1,0.2-2.1,0.6-3.1,1L175.4,634.4L175.4,634.4z M208,648.8
		c-1.8,0-3.2,0.5-4.3,1.4c-1,0.9-1.5,2.2-1.5,3.9s0.5,2.9,1.5,3.9c1,0.9,2.5,1.4,4.3,1.4c1.8,0,3.2-0.5,4.3-1.4c1-1,1.6-2.2,1.6-3.9
		c0-1.6-0.5-2.9-1.6-3.9C211.2,649.3,209.8,648.8,208,648.8L208,648.8z M204.2,647.2c-1.6-0.4-2.9-1.1-3.8-2.2
		c-0.9-1.1-1.4-2.4-1.4-4c0-2.2,0.8-3.9,2.4-5.2c1.6-1.3,3.8-1.9,6.6-1.9c2.8,0,5,0.6,6.6,1.9c1.6,1.3,2.4,3,2.4,5.2
		c0,1.6-0.5,2.9-1.4,4c-0.9,1.1-2.2,1.8-3.8,2.2c1.8,0.4,3.3,1.2,4.3,2.4c1,1.2,1.5,2.7,1.5,4.4c0,2.7-0.8,4.7-2.5,6.1
		c-1.7,1.4-4,2.1-7.1,2.1c-3.1,0-5.5-0.7-7.1-2.1c-1.7-1.4-2.5-3.5-2.5-6.1c0-1.7,0.5-3.2,1.5-4.4
		C200.9,648.4,202.4,647.6,204.2,647.2z M202.8,641.4c0,1.4,0.5,2.5,1.4,3.3c0.9,0.8,2.2,1.2,3.8,1.2c1.6,0,2.9-0.4,3.8-1.2
		c0.9-0.8,1.4-1.9,1.4-3.3c0-1.4-0.5-2.5-1.4-3.3c-0.9-0.8-2.2-1.2-3.8-1.2c-1.6,0-2.9,0.4-3.8,1.2
		C203.3,638.9,202.8,640,202.8,641.4L202.8,641.4z"/>
	<path class="st2" d="M296.6,638.2v-3.4l6.7-1.3h3.8v24.2h6.2v3.1h-16.2v-3.1h6.2v-20.9L296.6,638.2z M332.5,646.1
		c1.8,0.4,3.2,1.2,4.2,2.4c1,1.2,1.5,2.7,1.5,4.4c0,2.7-1,4.8-2.9,6.3c-1.9,1.5-4.6,2.2-8.1,2.2c-1.2,0-2.4-0.1-3.6-0.3
		c-1.3-0.2-2.6-0.6-3.9-1v-3.6c1.1,0.6,2.2,1.1,3.5,1.4c1.3,0.3,2.6,0.5,3.9,0.5c2.4,0,4.2-0.5,5.4-1.4c1.3-0.9,1.9-2.2,1.9-4
		c0-1.6-0.6-2.9-1.7-3.8c-1.2-0.9-2.8-1.4-4.8-1.4h-3.3v-3h3.4c1.9,0,3.3-0.4,4.3-1.1c1-0.7,1.5-1.8,1.5-3.2c0-1.4-0.5-2.5-1.5-3.2
		c-1-0.8-2.5-1.1-4.4-1.1c-1,0-2.2,0.1-3.3,0.3c-1.2,0.2-2.5,0.6-3.9,1v-3.3c1.3-0.4,2.7-0.7,4-0.9c1.2-0.2,2.4-0.3,3.6-0.3
		c2.9,0,5.2,0.6,6.8,1.9c1.7,1.3,2.5,3,2.5,5.2c0,1.5-0.4,2.8-1.3,3.8C335.4,645,334.1,645.7,332.5,646.1L332.5,646.1L332.5,646.1z
		 M348.8,657.8H362v3.1h-17.8v-3.1c2-2,3.9-3.9,5.9-5.8c2.5-2.5,4.1-4,4.7-4.7c1.2-1.3,2.1-2.5,2.5-3.4c0.5-0.9,0.7-1.8,0.7-2.7
		c0-1.5-0.5-2.6-1.6-3.6c-1-0.9-2.4-1.4-4.1-1.4c-1.2,0-2.5,0.2-3.8,0.6c-1.3,0.4-2.7,1-4.2,1.8v-3.7c1.5-0.6,3-1.1,4.3-1.4
		s2.5-0.5,3.6-0.5c2.9,0,5.2,0.7,7,2.1c1.7,1.4,2.6,3.3,2.6,5.7c0,1.1-0.2,2.2-0.7,3.2c-0.4,1-1.2,2.2-2.3,3.6
		c-0.3,0.4-1.3,1.4-3,3.1C353.5,653,351.2,655.4,348.8,657.8L348.8,657.8L348.8,657.8z M370.1,638.2v-3.4l6.7-1.3h3.8v24.2h6.2v3.1
		h-16.2v-3.1h6.2v-20.9L370.1,638.2L370.1,638.2z M418.3,646.1c1.8,0.4,3.2,1.2,4.2,2.4c1,1.2,1.5,2.7,1.5,4.4c0,2.7-1,4.8-2.9,6.3
		c-1.9,1.5-4.6,2.2-8.1,2.2c-1.2,0-2.4-0.1-3.6-0.3c-1.3-0.2-2.6-0.6-3.9-1v-3.6c1.1,0.6,2.2,1.1,3.5,1.4c1.3,0.3,2.6,0.5,3.9,0.5
		c2.4,0,4.2-0.5,5.4-1.4c1.3-0.9,1.9-2.2,1.9-4c0-1.6-0.6-2.9-1.7-3.8c-1.2-0.9-2.8-1.4-4.8-1.4h-3.3v-3h3.4c1.9,0,3.3-0.4,4.3-1.1
		c1-0.7,1.5-1.8,1.5-3.2c0-1.4-0.5-2.5-1.5-3.2c-1-0.8-2.5-1.1-4.4-1.1c-1,0-2.2,0.1-3.3,0.3c-1.2,0.2-2.5,0.6-3.9,1v-3.3
		c1.3-0.4,2.7-0.7,4-0.9c1.2-0.2,2.4-0.3,3.6-0.3c2.9,0,5.2,0.6,6.8,1.9c1.7,1.3,2.5,3,2.5,5.2c0,1.5-0.4,2.8-1.3,3.8
		C421.2,645,419.9,645.7,418.3,646.1L418.3,646.1L418.3,646.1z M441.7,636.7l-9.6,14.6h9.6V636.7z M440.7,633.5h4.8v17.8h4v3.1h-4
		v6.4h-3.8v-6.4H429v-3.6L440.7,633.5L440.7,633.5z M455.8,633.5h14.9v3.1h-11.4v6.7c0.5-0.2,1.1-0.3,1.7-0.4
		c0.5-0.1,1.1-0.1,1.7-0.1c3.1,0,5.6,0.8,7.4,2.5c1.8,1.7,2.7,3.9,2.7,6.8c0,2.9-0.9,5.2-2.8,6.9c-1.9,1.6-4.5,2.4-7.9,2.4
		c-1.2,0-2.4-0.1-3.6-0.3c-1.3-0.2-2.5-0.5-3.8-0.9v-3.7c1.1,0.6,2.3,1,3.5,1.3c1.2,0.3,2.5,0.4,3.8,0.4c2.2,0,3.9-0.6,5.1-1.7
		c1.3-1.1,1.9-2.6,1.9-4.5s-0.6-3.4-1.9-4.5c-1.3-1.1-3-1.7-5.1-1.7c-1,0-2,0.1-3,0.3c-1.1,0.2-2.1,0.6-3.1,1L455.8,633.5
		L455.8,633.5z M480.3,633.5h14.9v3.1h-11.4v6.7c0.5-0.2,1.1-0.3,1.7-0.4c0.5-0.1,1.1-0.1,1.7-0.1c3.1,0,5.6,0.8,7.4,2.5
		c1.8,1.7,2.7,3.9,2.7,6.8c0,2.9-0.9,5.2-2.8,6.9c-1.9,1.6-4.5,2.4-7.9,2.4c-1.2,0-2.4-0.1-3.6-0.3c-1.3-0.2-2.5-0.5-3.8-0.9v-3.7
		c1.1,0.6,2.3,1,3.5,1.3c1.2,0.3,2.5,0.4,3.8,0.4c2.2,0,3.9-0.6,5.1-1.7c1.3-1.1,1.9-2.6,1.9-4.5s-0.6-3.4-1.9-4.5
		c-1.3-1.1-3-1.7-5.1-1.7c-1,0-2,0.1-3,0.3c-1.1,0.2-2.1,0.6-3.1,1L480.3,633.5z"/>
</g>
<path class="st3" d="M731.9,256.7v-2.5h-3.4v-7.4h-2.8l-0.3,7.4H718l7-16.5l-2.6-1.1l-7.7,17.8v2.3h10.8v6.4h3.1v-6.4L731.9,256.7
	L731.9,256.7z M701.1,236.6c-2.6,0-5.2,0.9-7.4,3l1.7,1.9c1.7-1.6,3.3-2.4,5.5-2.4c2.8,0,5,1.6,5,4.4c0,3.1-2.5,4.6-5,4.6h-1.6
	l-0.4,2.5h2.2c3.1,0,5.4,1.2,5.4,5c0,3.3-2.2,5.3-5.8,5.3c-2.1,0-4.3-0.9-5.8-2.6l-2.1,1.7c2,2.4,5.1,3.4,8,3.4c5.4,0,9-3.4,9-7.9
	c0-4-2.9-6.2-5.9-6.4c2.8-0.5,5.1-2.9,5.1-6C709.1,239.5,706,236.6,701.1,236.6L701.1,236.6L701.1,236.6z M678.5,236.6
	c-3.5,0-5.9,1.2-7.9,3.7l2.2,1.7c1.7-1.9,3.1-2.8,5.6-2.8c2.9,0,4.7,1.8,4.7,4.7c0,4.3-2.1,7.1-11.9,16.5v2.6h15.5l0.4-2.7h-12.3
	c8.6-7.8,11.6-11.7,11.6-16.5C686.4,239.7,683.5,236.6,678.5,236.6L678.5,236.6z M664.7,260.5h-5.4V237h-2.8l-7.7,4.8l1.4,2.2l6-3.6
	v20h-6.4v2.6h15V260.5L664.7,260.5z"/>
</svg>
