<svg width="780" height="500" enable-background="new 0 0 780 500" version="1.1" viewBox="0 0 780 500" xml:space="preserve" xmlns="http://www.w3.org/2000/svg"><g transform="translate(15 -254)"><path d="M38.488,269h673.526c21.255,0,38.486,16.798,38.486,37.52v393.959   c0,20.723-17.231,37.521-38.486,37.521H38.488C17.231,738,0,721.202,0,700.479V306.52C0,285.798,17.231,269,38.488,269z" fill="none" stroke="#393939" stroke-width="30"/><path d="m66.423 413.05h67.042c10.799 0 19.554 8.535 19.554 19.063v55.373c0 10.528-8.755 19.062-19.554 19.062h-67.042c-10.8 0-19.555-8.534-19.555-19.062v-55.373c0-10.528 8.755-19.063 19.555-19.063z" fill-opacity=".196"/><path d="m70.225 546h-4.039l-0.387 10.571h-11.01l10.18-23.516-3.817-1.618-11.232 25.458v3.236h15.823v9.062h4.481v-9.062h4.924v-3.56h-4.924v-10.571zm23.768-14.562c-3.872 0-7.58 1.294-10.789 4.314l2.49 2.751c2.545-2.319 4.813-3.451 8.078-3.451 4.038 0 7.248 2.211 7.248 6.31 0 4.478-3.597 6.527-7.248 6.527h-2.269l-0.553 3.56h3.208c4.482 0 7.912 1.726 7.912 7.064 0 4.639-3.153 7.605-8.52 7.605-3.098 0-6.308-1.241-8.465-3.722l-3.099 2.48c2.877 3.452 7.414 4.909 11.674 4.909 7.856 0 13.222-4.854 13.222-11.273 0-5.771-4.205-8.79-8.686-9.114 4.038-0.755 7.468-4.153 7.468-8.63 3e-3 -5.07-4.534-9.33-11.671-9.33zm33.174 0c-5.145 0-8.575 1.78-11.618 5.34l3.208 2.373c2.435-2.751 4.482-3.938 8.245-3.938 4.259 0 6.804 2.589 6.804 6.742 0 6.095-3.098 10.14-17.483 23.569v3.668h22.628l0.554-3.829h-17.925c12.558-11.165 17.04-16.72 17.04-23.516-1e-3 -5.933-4.261-10.409-11.453-10.409zm34.888 0.646l-11.287 6.796 1.992 3.183 8.741-5.124v28.586h-9.405v3.667h21.963v-3.667h-7.966v-33.44h-4.038zm74.038 13.916h-4.04l-0.386 10.571h-11.01l10.179-23.516-3.817-1.618-11.231 25.457v3.236h15.822v9.062h4.483v-9.062h4.923v-3.56h-4.923v-10.57zm23.767-14.562c-3.873 0-7.579 1.294-10.788 4.314l2.489 2.751c2.545-2.319 4.814-3.451 8.078-3.451 4.04 0 7.249 2.211 7.249 6.31 0 4.478-3.597 6.527-7.249 6.527h-2.268l-0.552 3.56h3.208c4.481 0 7.911 1.726 7.911 7.064 0 4.639-3.153 7.605-8.52 7.605-3.098 0-6.307-1.241-8.464-3.722l-3.098 2.48c2.876 3.452 7.413 4.909 11.673 4.909 7.856 0 13.223-4.854 13.223-11.273 0-5.771-4.205-8.79-8.687-9.114 4.039-0.755 7.469-4.153 7.469-8.63 1e-3 -5.07-4.536-9.33-11.674-9.33zm33.174 0c-5.145 0-8.576 1.78-11.618 5.34l3.208 2.373c2.435-2.751 4.481-3.938 8.243-3.938 4.261 0 6.806 2.589 6.806 6.742 0 6.095-3.098 10.14-17.483 23.569v3.668h22.627l0.554-3.829h-17.925c12.559-11.165 17.04-16.72 17.04-23.516 1e-3 -5.933-4.258-10.409-11.452-10.409zm34.889 0.646l-11.286 6.796 1.992 3.183 8.741-5.124v28.586h-9.406v3.667h21.964v-3.667h-7.967v-33.44h-4.038zm74.037 13.916h-4.038l-0.388 10.571h-11.01l10.181-23.516-3.818-1.618-11.23 25.457v3.236h15.824v9.062h4.479v-9.062h4.925v-3.56h-4.925v-10.57zm23.769-14.562c-3.872 0-7.58 1.294-10.788 4.314l2.489 2.751c2.546-2.319 4.813-3.451 8.079-3.451 4.036 0 7.245 2.211 7.245 6.31 0 4.478-3.595 6.527-7.245 6.527h-2.27l-0.555 3.56h3.21c4.482 0 7.912 1.726 7.912 7.064 0 4.639-3.154 7.605-8.521 7.605-3.098 0-6.307-1.241-8.466-3.722l-3.098 2.48c2.877 3.452 7.413 4.909 11.675 4.909 7.855 0 13.222-4.854 13.222-11.273 0-5.771-4.205-8.79-8.686-9.114 4.039-0.755 7.469-4.153 7.469-8.63 1e-3 -5.07-4.536-9.33-11.672-9.33zm33.173 0c-5.146 0-8.575 1.78-11.619 5.34l3.209 2.373c2.436-2.751 4.482-3.938 8.244-3.938 4.26 0 6.804 2.589 6.804 6.742 0 6.095-3.098 10.14-17.482 23.569v3.668h22.629l0.553-3.829h-17.925c12.558-11.165 17.04-16.72 17.04-23.516-1e-3 -5.933-4.26-10.409-11.453-10.409zm34.889 0.646l-11.287 6.796 1.992 3.183 8.741-5.124v28.586h-9.405v3.667h21.964v-3.667h-7.965v-33.44h-4.04zm74.037 13.916h-4.038l-0.388 10.571h-11.01l10.181-23.516-3.818-1.618-11.23 25.457v3.236h15.823v9.062h4.48v-9.062h4.925v-3.56h-4.925v-10.57zm23.767-14.562c-3.87 0-7.577 1.294-10.787 4.314l2.49 2.751c2.545-2.319 4.813-3.451 8.078-3.451 4.039 0 7.248 2.211 7.248 6.31 0 4.478-3.597 6.527-7.248 6.527h-2.27l-0.552 3.56h3.208c4.481 0 7.911 1.726 7.911 7.064 0 4.639-3.153 7.605-8.52 7.605-3.098 0-6.308-1.241-8.465-3.722l-3.098 2.48c2.877 3.452 7.412 4.909 11.673 4.909 7.857 0 13.223-4.854 13.223-11.273 0-5.771-4.204-8.79-8.686-9.114 4.039-0.755 7.469-4.153 7.469-8.63 0-5.07-4.537-9.331-11.673-9.331h-1e-3zm33.175 0c-5.145 0-8.574 1.78-11.618 5.34l3.209 2.373c2.435-2.751 4.481-3.938 8.244-3.938 4.26 0 6.806 2.589 6.806 6.742 0 6.095-3.1 10.14-17.484 23.569v3.668h22.63l0.553-3.829h-17.926c12.559-11.165 17.04-16.72 17.04-23.516-1e-3 -5.933-4.262-10.409-11.454-10.409zm34.889 0.646l-11.286 6.796 1.99 3.183 8.742-5.124v28.586h-9.405v3.667h21.966v-3.667h-7.968v-33.44h-4.039z" fill-opacity=".784"/><path d="m52.958 639.12v-3.372l6.709-1.318h3.795v24.238h6.202v3.114h-16.16v-3.114h6.201v-20.867l-6.747 1.319zm24.506 0v-3.372l6.709-1.318h3.796v24.238h6.201v3.114h-16.161v-3.114h6.202v-20.867l-6.747 1.319zm39.915 19.547h13.25v3.115h-17.816v-3.114c1.949-1.958 3.91-3.907 5.883-5.844 2.492-2.456 4.059-4.037 4.697-4.747 1.215-1.33 2.061-2.454 2.538-3.37 0.489-0.929 0.733-1.838 0.733-2.729 0-1.453-0.526-2.638-1.578-3.555-1.041-0.915-2.399-1.373-4.079-1.373-1.19 0-2.449 0.202-3.777 0.605-1.315 0.402-2.725 1.012-4.228 1.831v-3.738c1.527-0.599 2.957-1.05 4.284-1.354 1.328-0.307 2.543-0.458 3.646-0.458 2.906 0 5.225 0.707 6.953 2.125 1.729 1.415 2.594 3.31 2.594 5.68 5e-3 1.101-0.219 2.191-0.658 3.206-0.426 1.002-1.208 2.186-2.349 3.554-0.314 0.354-1.31 1.38-2.988 3.077-2.363 2.368-4.732 4.731-7.105 7.089zm32.737-11.632c1.817 0.378 3.233 1.165 4.248 2.363 1.027 1.196 1.541 2.673 1.541 4.433 0 2.698-0.953 4.788-2.856 6.267-1.905 1.476-4.61 2.215-8.119 2.215-1.178 0-2.393-0.115-3.646-0.348-1.308-0.237-2.597-0.574-3.852-1.007v-3.572c1.081 0.609 2.245 1.065 3.458 1.354 1.285 0.31 2.604 0.464 3.927 0.458 2.381 0 4.191-0.458 5.432-1.374 1.252-0.916 1.879-2.246 1.879-3.993 0-1.613-0.583-2.87-1.748-3.773-1.153-0.916-2.761-1.374-4.83-1.374h-3.27v-3.042h3.42c1.867 0 3.295-0.36 4.286-1.08 0.99-0.732 1.484-1.784 1.484-3.153 0-1.402-0.514-2.479-1.541-3.223-1.014-0.756-2.474-1.136-4.378-1.136-1.04 0-2.155 0.11-3.345 0.329-1.19 0.221-2.499 0.562-3.928 1.026v-3.298c1.329-0.366 2.678-0.661 4.042-0.879 1.18-0.188 2.374-0.286 3.569-0.293 2.882 0 5.162 0.642 6.841 1.923 1.678 1.271 2.518 2.991 2.518 5.167 0 1.515-0.444 2.797-1.335 3.847-0.89 1.039-2.156 1.759-3.797 2.163zm25.295-12.605h14.902v3.114h-11.425v6.705c0.539-0.181 1.092-0.314 1.654-0.402 0.546-0.097 1.1-0.146 1.654-0.146 3.132 0 5.612 0.837 7.442 2.51 1.829 1.673 2.744 3.939 2.744 6.797 0 2.944-0.94 5.234-2.819 6.87-1.879 1.624-4.529 2.436-7.95 2.436-1.178 0-2.38-0.098-3.608-0.292-1.277-0.209-2.539-0.504-3.776-0.879v-3.72c1.102 0.59 2.275 1.039 3.494 1.338 1.204 0.293 2.476 0.438 3.815 0.438 2.168 0 3.885-0.556 5.15-1.667 1.265-1.11 1.897-2.619 1.897-4.524s-0.632-3.414-1.897-4.525c-1.266-1.111-2.983-1.667-5.15-1.667-1.015 0-2.03 0.109-3.043 0.33-1.06 0.238-2.093 0.582-3.082 1.025l-2e-3 -13.741zm32.586 14.363c-1.804 0-3.226 0.469-4.266 1.409-1.027 0.941-1.54 2.237-1.54 3.886s0.513 2.943 1.54 3.883c1.04 0.94 2.463 1.411 4.266 1.411 1.805 0 3.227-0.471 4.267-1.41 1.039-0.952 1.559-2.248 1.559-3.884 0-1.648-0.52-2.944-1.559-3.886-1.028-0.939-2.451-1.409-4.267-1.409zm-3.795-1.575c-1.628-0.392-2.901-1.131-3.815-2.218-0.903-1.086-1.354-2.411-1.354-3.975 0-2.186 0.795-3.914 2.387-5.186 1.604-1.27 3.795-1.904 6.577-1.904 2.795 0 4.986 0.635 6.578 1.904 1.592 1.271 2.386 3 2.386 5.186 0 1.563-0.456 2.889-1.371 3.977-0.902 1.085-2.161 1.824-3.777 2.216 1.829 0.416 3.251 1.228 4.266 2.435 1.027 1.21 1.541 2.688 1.541 4.436 0 2.65-0.833 4.685-2.499 6.101-1.654 1.416-4.028 2.124-7.123 2.124-3.094 0-5.474-0.708-7.14-2.124-1.655-1.416-2.481-3.45-2.481-6.101 0-1.747 0.513-3.226 1.541-4.436 1.025-1.208 2.454-2.019 4.284-2.435zm-1.391-5.843c0 1.415 0.452 2.52 1.353 3.314 0.915 0.795 2.192 1.192 3.833 1.192 1.63 0 2.901-0.397 3.816-1.192 0.926-0.795 1.39-1.899 1.39-3.315 0-1.418-0.464-2.522-1.39-3.316-0.914-0.795-2.186-1.191-3.816-1.191-1.641 0-2.918 0.396-3.833 1.191-0.903 0.794-1.353 1.898-1.353 3.317z" fill-opacity=".784"/><path d="m296.61 638.21v-3.371l6.709-1.32h3.796v24.238h6.201v3.114h-16.162v-3.114h6.201v-20.867l-6.745 1.32zm35.894 7.912c1.816 0.38 3.232 1.168 4.248 2.365 1.027 1.196 1.54 2.675 1.54 4.433 0 2.699-0.952 4.788-2.856 6.267-1.904 1.478-4.609 2.217-8.118 2.217-1.177 0-2.392-0.116-3.647-0.349-1.308-0.237-2.596-0.574-3.852-1.008v-3.573c1.083 0.61 2.246 1.066 3.459 1.356 1.285 0.311 2.604 0.464 3.928 0.459 2.38 0 4.19-0.459 5.431-1.375 1.252-0.916 1.879-2.247 1.879-3.994 0-1.611-0.583-2.869-1.748-3.773-1.152-0.916-2.763-1.374-4.83-1.374h-3.27v-3.041h3.42c1.867 0 3.295-0.361 4.286-1.081 0.988-0.732 1.484-1.783 1.484-3.152 0-1.404-0.515-2.478-1.542-3.224-1.015-0.756-2.475-1.134-4.378-1.134-1.04 0-2.155 0.108-3.346 0.327-1.19 0.221-2.5 0.564-3.926 1.027v-3.298c1.328-0.366 2.677-0.66 4.039-0.88 1.18-0.188 2.375-0.286 3.57-0.293 2.883 0 5.164 0.642 6.841 1.923 1.679 1.271 2.518 2.993 2.518 5.167 0 1.515-0.444 2.797-1.333 3.847-0.89 1.039-2.156 1.76-3.797 2.163v-2e-3zm16.275 11.635h13.25v3.114h-17.816v-3.114c1.95-1.96 3.91-3.906 5.882-5.845 2.493-2.455 4.059-4.036 4.698-4.745 1.216-1.331 2.06-2.453 2.536-3.369 0.489-0.93 0.733-1.839 0.733-2.73 0-1.454-0.525-2.639-1.577-3.555-1.04-0.916-2.4-1.374-4.079-1.374-1.191 0-2.45 0.201-3.778 0.605-1.315 0.404-2.725 1.013-4.229 1.832v-3.737c1.529-0.599 2.957-1.051 4.285-1.356s2.544-0.458 3.646-0.458c2.906 0 5.225 0.708 6.954 2.125 1.728 1.418 2.593 3.31 2.593 5.68 5e-3 1.102-0.219 2.191-0.657 3.206-0.426 1.002-1.208 2.186-2.349 3.556-0.313 0.354-1.308 1.378-2.989 3.077-2.362 2.367-4.729 4.73-7.103 7.091v-3e-3zm21.348-19.547v-3.371l6.709-1.32h3.795v24.238h6.202v3.114h-16.162v-3.114h6.203v-20.867l-6.747 1.32zm48.146 7.912c1.816 0.38 3.233 1.168 4.247 2.365 1.028 1.196 1.543 2.675 1.543 4.433 0 2.699-0.953 4.788-2.858 6.267-1.904 1.478-4.61 2.217-8.118 2.217-1.178 0-2.393-0.116-3.646-0.349-1.309-0.237-2.598-0.574-3.853-1.008v-3.573c1.08 0.61 2.244 1.066 3.458 1.356 1.285 0.311 2.604 0.464 3.928 0.459 2.379 0 4.19-0.459 5.431-1.375 1.254-0.916 1.88-2.247 1.88-3.994 0-1.611-0.583-2.869-1.747-3.773-1.153-0.916-2.764-1.374-4.831-1.374h-3.269v-3.041h3.419c1.867 0 3.295-0.361 4.284-1.081 0.99-0.732 1.485-1.783 1.485-3.152 0-1.404-0.515-2.478-1.541-3.224-1.015-0.756-2.474-1.134-4.379-1.134-1.039 0-2.155 0.108-3.345 0.327-1.191 0.221-2.5 0.564-3.929 1.027v-3.298c1.33-0.366 2.679-0.66 4.042-0.88 1.181-0.188 2.374-0.286 3.569-0.293 2.883 0 5.162 0.642 6.841 1.923 1.68 1.271 2.519 2.993 2.519 5.167 0 1.515-0.444 2.797-1.334 3.847-0.89 1.039-2.156 1.76-3.797 2.163v-2e-3zm23.435-9.379l-9.583 14.602h9.583v-14.602zm-0.996-3.224h4.773v17.826h4.003v3.078h-4.003v6.448h-3.776v-6.448h-12.667v-3.572l11.67-17.332zm15.11 0h14.901v3.114h-11.426v6.707c0.539-0.181 1.092-0.316 1.654-0.404 0.546-0.097 1.099-0.146 1.653-0.146 3.133 0 5.613 0.836 7.442 2.509 1.827 1.674 2.743 3.94 2.743 6.797 0 2.943-0.938 5.234-2.818 6.87-1.88 1.624-4.528 2.438-7.949 2.438-1.178 0-2.381-0.097-3.608-0.293-1.278-0.211-2.54-0.505-3.778-0.88v-3.72c1.103 0.59 2.277 1.04 3.496 1.338 1.202 0.293 2.474 0.44 3.815 0.44 2.167 0 3.883-0.557 5.148-1.667 1.267-1.112 1.898-2.621 1.898-4.526s-0.632-3.414-1.898-4.524c-1.266-1.111-2.981-1.667-5.148-1.667-1.016 0-2.03 0.109-3.044 0.329-1.062 0.24-2.094 0.583-3.082 1.025v-13.74zm24.504 0h14.904v3.114h-11.427v6.707c0.537-0.181 1.09-0.316 1.652-0.404 0.546-0.097 1.1-0.146 1.655-0.146 3.131 0 5.61 0.836 7.44 2.509 1.829 1.674 2.743 3.94 2.743 6.797 0 2.943-0.938 5.234-2.818 6.87-1.879 1.624-4.529 2.438-7.948 2.438-1.179 0-2.381-0.097-3.608-0.293-1.278-0.211-2.54-0.505-3.778-0.88v-3.72c1.103 0.59 2.277 1.04 3.496 1.338 1.203 0.293 2.475 0.44 3.814 0.44 2.168 0 3.885-0.557 5.148-1.667 1.267-1.112 1.899-2.621 1.899-4.526s-0.633-3.414-1.899-4.524c-1.264-1.111-2.98-1.667-5.148-1.667-1.015 0-2.03 0.109-3.044 0.329-1.061 0.24-2.094 0.583-3.083 1.025l2e-3 -13.74z" fill-opacity=".784"/></g></svg>
