<svg width="780" height="500" enable-background="new 0 0 780 500" version="1.1" viewBox="0 0 780 500" xml:space="preserve" xmlns="http://www.w3.org/2000/svg"><path d="M698.098,0H52.959C23.757,0,0,23.349,0,52.048v370.021c0,28.701,23.757,52.05,52.959,52.05h645.139  c29.201,0,52.958-23.349,52.958-52.05V52.048C751.056,23.349,727.299,0,698.098,0z" fill="none"/><path d="m52.959 13.812h674.02c21.273 0 38.517 16.948 38.517 37.853v397.46c0 20.906-17.243 37.854-38.517 37.854h-674.02c-21.271 0-38.516-16.948-38.516-37.854v-397.46c0-20.905 17.245-37.853 38.516-37.853z" fill="none" stroke="#393939" stroke-width="30"/><path d="m335.63 391.59l-275.9 0.096v-0.651c0-0.36 0.44-2.686 0.978-5.173 0.54-2.483 1.375-6.438 1.86-8.785 0.483-2.347 1.311-6.331 1.837-8.86 1.296-6.178 2.577-12.357 3.842-18.54 0.497-2.439 1.326-6.427 1.845-8.861 0.66-3.117 1.313-6.235 1.961-9.354 0.561-2.709 1.413-6.843 1.894-9.191 0.48-2.347 1.247-5.963 1.699-8.038 0.453-2.076 1.031-4.882 1.283-6.235 0.254-1.355 1.073-5.343 1.821-8.862 0.63-2.949 1.242-5.902 1.835-8.86 0.261-1.354 1.09-5.341 1.843-8.861 0.752-3.518 1.578-7.507 1.835-8.86s1.089-5.343 1.847-8.86c0.758-3.521 1.577-7.436 1.818-8.697 0.243-1.264 0.905-4.513 1.474-7.22 0.566-2.708 1.642-7.804 2.387-11.323 0.747-3.52 2.021-9.648 2.832-13.62 0.814-3.971 1.786-8.696 2.16-10.501 1.102-5.308 2.212-10.612 3.333-15.916 0.552-2.617 1.451-6.9 1.998-9.519 0.546-2.616 1.388-6.679 1.871-9.024 0.481-2.347 1.305-6.26 1.828-8.696 0.524-2.438 1.426-6.721 2.003-9.519 0.578-2.797 1.546-7.08 2.151-9.517 0.604-2.437 1.458-5.39 1.9-6.563 0.44-1.174 1.657-3.717 2.703-5.652l1.901-3.518 1.729-2.226c0.949-1.223 2.646-3.155 3.77-4.295s3.019-2.854 4.214-3.81c1.192-0.957 2.921-2.248 3.839-2.868 0.918-0.621 2.721-1.708 4.008-2.417 1.285-0.707 3.09-1.633 4.008-2.058s2.796-1.203 4.173-1.727c1.376-0.521 4.008-1.398 5.843-1.947 1.836-0.548 5.285-1.375 7.663-1.835 2.376-0.463 6.132-1.08 8.348-1.372l4.026-0.532 276.07-0.102 276.07-0.104v0.652c0 0.358-0.441 2.684-0.982 5.17-0.683 3.144-1.352 6.292-2.01 9.441-0.565 2.708-1.388 6.623-1.831 8.697-0.626 2.953-1.246 5.906-1.86 8.861-0.583 2.799-1.476 7.083-1.986 9.517-0.513 2.438-1.342 6.426-1.843 8.863-0.499 2.436-1.333 6.423-1.85 8.86-0.604 2.843-1.198 5.687-1.784 8.533-0.464 2.256-1.305 6.316-1.865 9.024-0.562 2.707-1.464 6.99-2.006 9.518-0.542 2.526-1.363 6.44-1.83 8.696-0.468 2.255-1.309 6.317-1.867 9.024-0.561 2.708-1.461 6.99-2.002 9.518s-1.345 6.367-1.792 8.533c-1.235 6.018-2.48 12.035-3.729 18.05-0.455 2.165-1.259 6.007-1.792 8.531-0.683 3.228-1.36 6.454-2.03 9.684-0.584 2.799-1.416 6.782-1.852 8.86-0.438 2.075-1.253 5.989-1.814 8.695-0.658 3.174-1.32 6.348-1.987 9.519-0.53 2.526-1.361 6.515-1.851 8.862-0.483 2.345-1.332 6.407-1.876 9.023-0.548 2.616-1.441 6.899-1.987 9.516-0.545 2.62-1.36 6.533-1.814 8.699-0.618 2.953-1.23 5.906-1.842 8.859-0.655 3.165-1.331 6.325-2.023 9.482l-1.005 4.558-1.197 3.152c-0.658 1.736-1.649 4.042-2.201 5.124-0.553 1.083-1.676 2.995-2.497 4.247-0.823 1.252-1.967 2.855-2.546 3.564-0.578 0.711-2.316 2.541-3.867 4.068l-2.813 2.777-2.712 1.893c-1.49 1.041-3.097 2.101-3.568 2.354-0.473 0.253-2.269 1.154-3.991 2.002-1.724 0.849-4.156 1.927-5.406 2.396-1.253 0.474-3.731 1.275-5.511 1.783-1.78 0.512-3.686 1.011-4.237 1.115-0.552 0.104-2.462 0.491-4.249 0.864-1.787 0.371-5.393 0.927-8.015 1.233l-4.766 0.558-275.91 0.098zm-98.162-70.139h7.18l0.202-0.52c0.113-0.287 0.204-0.957 0.204-1.49 0-0.538 0.237-2.481 0.526-4.323 0.288-1.843 0.967-6.082 1.508-9.421 0.541-3.34 1.349-8.359 1.798-11.157 0.425-2.649 0.832-5.303 1.217-7.96 0.221-1.578 0.489-2.871 0.598-2.871 0.108 0 0.573 0.698 1.032 1.552l0.833 1.551 1.852 1.833 1.853 1.831 2.276 0.897 2.28 0.898 2.714 0.345 2.718 0.347 3.446-0.208 3.446-0.207 3.732-0.95 3.733-0.95 2.002-0.897c1.104-0.494 3.057-1.572 4.342-2.396l2.338-1.495 2.18-2.143c1.199-1.174 2.89-3.064 3.757-4.193 0.868-1.131 1.577-2.138 1.577-2.239s0.428-0.8 0.947-1.555c0.521-0.754 1.587-2.85 2.369-4.654 0.781-1.806 2.002-5.054 2.716-7.22l1.294-3.938 0.669-3.411c0.368-1.877 0.841-4.977 1.053-6.893l0.382-3.48-0.222-2.953-0.221-2.953-0.696-2.955-0.696-2.953-1.129-2.211-1.128-2.213-2.178-2.269-2.179-2.271-2.577-1.309-2.578-1.311-2.839-0.668-2.839-0.667-2.839-0.204-2.836-0.205-3.163 0.357-3.162 0.355-2.581 0.648-2.579 0.646-2.243 1.022c-1.233 0.559-3.028 1.512-3.986 2.116-0.96 0.603-1.951 1.297-2.201 1.543-0.25 0.244-0.85 0.699-1.332 1.008l-0.877 0.564 0.613-2.884c0.338-1.585 0.619-3.065 0.626-3.292l0.014-0.41h-12.244l-1.073 6.646c-0.591 3.657-1.523 9.304-2.072 12.554-1.211 7.167-2.436 14.332-3.675 21.495-0.545 3.158-1.448 8.181-2.006 11.158-0.557 2.979-1.373 7.335-1.814 9.684-0.44 2.346-1.271 6.775-1.842 9.844-0.675 3.609-1.357 7.222-2.046 10.829-0.651 3.395-1.316 6.785-1.997 10.173-0.546 2.708-1.073 5.257-1.175 5.663l-0.183 0.738h7.181v2e-3zm30.909-37.944l-2.787 0.165-1.822-0.317-1.823-0.314-1.85-0.831-1.853-0.832-1.292-1.213-1.292-1.212-0.747-1.641c-0.411-0.903-0.939-2.437-1.171-3.409l-0.426-1.767 0.171-2.828 0.172-2.827 0.859-4.432c0.649-3.386 1.278-6.777 1.888-10.172 0.565-3.159 1.422-7.789 1.902-10.286l0.874-4.542 1.915-1.566c1.053-0.86 2.721-2.015 3.707-2.563l1.792-0.999 2.336-0.711 2.338-0.712 3.006-0.173 3.006-0.174 2.446 0.514 2.447 0.512 1.729 0.782 1.726 0.782 1.448 1.431 1.449 1.431 0.779 1.515c0.432 0.833 1.034 2.465 1.342 3.624l0.559 2.109-0.17 6.237-0.172 6.235-0.857 3.686c-0.471 2.027-1.369 5.129-1.994 6.892l-1.138 3.207-1.395 2.594c-0.767 1.427-1.947 3.357-2.626 4.287-0.678 0.931-1.759 2.137-2.402 2.678-0.777 0.651-1.576 1.28-2.391 1.885l-1.225 0.897-2.833 0.946-2.834 0.947-2.791 0.165zm69.34 9.02l3.673 0.044 3.674-0.331c2.021-0.18 5.325-0.559 7.346-0.838 2.021-0.278 5.51-0.906 7.756-1.39l4.081-0.884 0.204-1.479c0.112-0.812 0.57-3.233 1.019-5.382l0.816-3.901-0.183-0.177-0.178-0.176-1.249 0.591c-0.687 0.326-2.825 1.104-4.751 1.728l-3.502 1.134-3.678 0.701-3.674 0.7-5.845 0.012-5.844 9e-3 -2.005-0.629c-1.102-0.344-2.721-0.976-3.6-1.404l-1.598-0.776-1.319-1.172-1.319-1.172-1.029-1.768-1.029-1.77-0.646-2.215-0.646-2.219-4e-3 -4.104-5e-3 -4.104 0.572-3.66 0.575-3.66 5.023-0.23 5.023-0.231 18.576 0.118 18.574 0.117 0.56-2.339c0.31-1.286 0.782-3.944 1.049-5.907l0.487-3.569 0.012-3.001 0.01-3.002-0.528-2.243-0.53-2.24-0.875-1.484c-0.479-0.816-1.328-1.999-1.883-2.63-0.554-0.629-1.545-1.517-2.201-1.972s-1.943-1.22-2.861-1.7l-1.672-0.873-2.916-0.69-2.916-0.689-3.594-0.338-3.596-0.339-3.34 0.213-3.338 0.215-4.008 0.756-4.006 0.757-2.506 0.983c-1.377 0.54-3.481 1.527-4.676 2.193-1.191 0.665-2.846 1.748-3.671 2.406-0.828 0.658-2.259 1.938-3.181 2.844s-2.289 2.531-3.032 3.615c-0.745 1.084-1.887 3.002-2.538 4.267-0.652 1.264-1.5 3.035-1.887 3.938-0.385 0.902-1.086 2.748-1.557 4.102-0.473 1.354-1.213 3.939-1.646 5.744-0.51 2.188-0.951 4.389-1.322 6.602l-0.531 3.323 5e-3 4.883 5e-3 4.882 0.508 2.134c0.277 1.173 0.812 2.946 1.185 3.939 0.372 0.991 1.064 2.47 1.534 3.28 0.471 0.812 1.475 2.122 2.232 2.907 0.758 0.786 2.128 1.979 3.047 2.651 0.918 0.67 2.552 1.615 3.631 2.1l1.963 0.877 2.738 0.651c1.506 0.355 3.777 0.782 5.05 0.942s3.965 0.31 5.987 0.33zm6.288-46.23c-9.243 0-16.807-0.064-16.807-0.145s0.395-1.224 0.877-2.543c0.48-1.32 1.328-3.283 1.88-4.363l1.006-1.966 2.208-2.158 2.209-2.161 2.172-1.019c1.193-0.562 2.771-1.173 3.505-1.358 0.735-0.186 2.839-0.432 4.675-0.546l3.342-0.212 2.564 0.324 2.562 0.324 1.863 0.84 1.864 0.838 1.022 1.083c0.562 0.596 1.231 1.473 1.488 1.949l0.467 0.866 0.308 1.923 0.31 1.923-0.354 3.2-0.354 3.2h-16.807v1e-3zm99.899 46.232l3.676 0.042 4.172-0.487c2.295-0.267 5.349-0.709 6.788-0.983 1.738-0.346 3.467-0.748 5.176-1.209 1.408-0.392 2.683-0.812 2.831-0.939 0.148-0.126 0.546-1.615 0.885-3.31 0.336-1.694 0.763-3.968 0.944-5.051s0.275-2.025 0.207-2.098c-0.066-0.07-0.312 0.021-0.546 0.204s-1.872 0.86-3.641 1.505l-3.216 1.174-4.579 0.87-4.578 0.873-3.893-0.129-3.894-0.132-2.212-0.754-2.212-0.755-1.707-1.467-1.71-1.47-1.132-2.029-1.134-2.027-0.541-2.715-0.539-2.713 4e-3 -3.522 3e-3 -3.521 0.656-4.268 0.656-4.266 0.693-2.299c0.382-1.263 0.813-2.738 0.961-3.28 0.146-0.542 0.758-2.093 1.36-3.446s1.677-3.445 2.387-4.65l1.291-2.188 1.589-1.617 1.589-1.617 1.681-1.023 1.68-1.024 2.16-0.654c1.188-0.359 3.286-0.826 4.663-1.036l2.506-0.385 3.67 0.182 3.675 0.182 4.342 0.854 4.34 0.853 1.766 0.646c0.972 0.357 1.808 0.648 1.861 0.648 0.05 0 0.284-1.219 0.518-2.709 0.231-1.488 0.645-3.938 0.919-5.442 0.273-1.507 0.433-2.804 0.351-2.882-0.082-0.08-1.385-0.282-2.898-0.452-1.516-0.169-5.629-0.47-9.146-0.67l-6.391-0.36-4.509 0.34-4.508 0.34-3.341 0.688-3.337 0.69-2.152 0.846c-1.184 0.465-2.916 1.305-3.849 1.864-0.896 0.536-1.776 1.094-2.644 1.675-0.521 0.361-2.095 1.77-3.504 3.131l-2.556 2.474-1.43 2.056c-0.783 1.131-2.143 3.486-3.018 5.238l-1.59 3.184-1.22 3.445c-0.671 1.895-1.608 4.996-2.081 6.891l-0.86 3.447-0.313 3.118-0.312 3.118 2e-3 4.102 4e-3 4.103 0.316 2.385 0.314 2.388 1.001 2.456 0.999 2.454 1.157 1.773 1.153 1.776 1.837 1.776 1.838 1.774 1.943 1.012 1.944 1.009 2.553 0.697c1.401 0.382 3.432 0.823 4.506 0.979 1.075 0.152 3.607 0.298 5.629 0.318h-3e-3zm54.929-0.119l4.507-0.127 2.838-0.715 2.839-0.716 1.838-0.852c1.009-0.47 2.662-1.395 3.673-2.059 1.011-0.662 2.573-1.924 3.475-2.8 0.899-0.879 2.236-2.376 2.968-3.328s1.374-1.688 1.428-1.637c0.057 0.054-0.112 1.572-0.374 3.373-0.259 1.803-0.474 4.2-0.478 5.328l-7e-3 2.051h12.258l0.188-4.677 0.187-4.677 0.874-6.071c0.48-3.34 1.258-8.287 1.728-10.994 0.469-2.708 1.28-7.285 1.81-10.174 0.525-2.887 1.361-7.392 1.854-10.009l0.897-4.758 0.03-4.111 0.029-4.11-0.944-1.899-0.947-1.9-1.281-1.209-1.282-1.211-2.105-1.047-2.106-1.051-3.137-0.686-3.138-0.687-4.321-0.321-4.32-0.323-5.562 0.339c-3.063 0.186-7.37 0.553-9.574 0.816l-4.007 0.477-2.731 0.011-2.73 0.011-0.396 1.889c-0.219 1.036-0.827 3.502-1.35 5.479-0.525 1.977-0.904 3.64-0.844 3.697 0.057 0.061 1.519-0.268 3.244-0.723 1.727-0.457 5.394-1.207 8.149-1.669l5.007-0.839 4.508-0.181 4.508-0.185 2.905 0.5 2.902 0.502 1.938 0.939 1.939 0.941 1.084 1.589 1.086 1.59-0.016 2.506-0.016 2.507-0.574 2.75-0.576 2.75-12.015 0.043-12.016 0.042-3.932 1.061c-2.163 0.583-4.558 1.356-5.321 1.719-0.765 0.363-1.531 0.661-1.701 0.661-0.168 0-1.455 0.699-2.857 1.559l-2.55 1.557-2.007 1.971c-1.106 1.082-2.518 2.707-3.137 3.611-0.62 0.902-1.629 2.785-2.239 4.189l-1.109 2.547-0.513 2.867-0.512 2.864v6.016l0.488 2.504 0.487 2.501 0.904 1.635c0.498 0.897 1.411 2.214 2.028 2.924l1.126 1.288 1.995 1.192 1.997 1.195 2.287 0.634c1.257 0.349 3.171 0.772 4.253 0.941l1.968 0.304 4.506-0.125h-5e-3zm4.175-9.18l-2.672 0.14-1.77-0.443c-0.974-0.244-2.449-0.786-3.28-1.207l-1.513-0.763-0.826-0.965c-0.455-0.532-1.146-1.572-1.542-2.314l-0.715-1.351-0.139-3.157-0.143-3.154 0.567-1.913c0.311-1.053 1.04-2.88 1.624-4.059l1.056-2.146 2.025-1.974 2.023-1.977 2.15-1.018 2.149-1.016 2.671-0.625 2.672-0.624h16.696l0.527 0.215 0.527 0.214-0.444 2.576c-0.243 1.416-0.826 3.979-1.294 5.692-0.47 1.716-1.296 4.235-1.837 5.604-0.542 1.364-0.986 2.572-0.986 2.683s-0.548 1.106-1.221 2.211l-1.219 2.014-2.002 1.95c-1.1 1.069-2.122 1.947-2.271 1.947s-0.822 0.37-1.499 0.821l-1.231 0.82-2.708 0.842-2.709 0.842-2.666 0.135zm108.69 9.296l3.171 0.039 3.007-0.48c1.653-0.262 3.756-0.687 4.674-0.943s2.573-0.917 3.674-1.472l2.004-1.009 1.724-1.49 1.724-1.492 1.815-2.381c0.997-1.307 1.902-2.599 2.009-2.87l0.193-0.492-0.17 1.641c-0.118 1.098-0.272 2.193-0.46 3.283-0.162 0.902-0.394 2.637-0.514 3.854l-0.222 2.216h13.102v-4.432l0.996-8.368c0.55-4.604 1.362-10.731 1.803-13.619 0.443-2.888 1.129-7.022 1.524-9.188 0.39-2.166 1.087-6.08 1.544-8.697 0.459-2.616 1.284-7.195 1.836-10.173 0.553-2.979 1.438-7.704 1.965-10.503 0.528-2.797 1.35-7.154 1.825-9.68 0.475-2.527 1.327-6.959 1.892-9.846 0.591-3.013 1.203-6.021 1.835-9.026 0.445-2.075 0.809-3.884 0.809-4.019v-0.247h-14.296l-0.21 2.051c-0.115 1.13-0.662 4.856-1.216 8.287-0.654 4.05-1.321 8.097-2.003 12.143-0.394 2.333-0.786 4.667-1.17 7.002l-0.182 1.094-0.562-0.235c-0.312-0.131-1.993-0.59-3.736-1.02l-3.173-0.783-4.339-0.332-4.343-0.332-3.675 0.336-3.672 0.337-3.34 0.83-3.338 0.829-3.173 1.521-3.174 1.521-2.338 1.7-2.335 1.7-2.02 2.128c-1.11 1.171-2.713 3.105-3.565 4.302l-1.543 2.171-1.817 3.712c-0.997 2.042-2.212 4.748-2.698 6.01-0.486 1.265-1.345 4.064-1.908 6.224l-1.021 3.927-0.504 5.102-0.503 5.096 0.378 4.103 0.379 4.103 0.447 1.476c0.246 0.814 0.764 2.262 1.152 3.216l0.702 1.74 1.288 1.71 1.285 1.71 1.469 1.182 1.466 1.181 2.004 0.979c1.104 0.535 2.95 1.232 4.109 1.542 1.155 0.312 3.033 0.688 4.174 0.833 1.137 0.139 3.496 0.277 5.241 0.298zm5.694-9.31l-2.522 0.129-1.699-0.298c-0.937-0.166-2.434-0.611-3.331-0.988l-1.624-0.684-1.371-1.103-1.366-1.103-1.018-1.915-1.015-1.914-0.468-2.133-0.461-2.133 0.039-4.267 0.039-4.266 0.537-3.776 0.538-3.772 0.837-2.625c0.462-1.444 0.84-2.807 0.841-3.028 4e-3 -0.222 0.458-1.401 1.01-2.625 0.648-1.414 1.333-2.812 2.055-4.193 0.574-1.083 1.65-2.771 2.389-3.751 0.741-0.98 2.057-2.457 2.929-3.283 0.87-0.823 2.254-1.905 3.077-2.402l1.494-0.903 2.626-0.893 2.625-0.896 5.51-2e-3h5.512l3.171 0.865c1.744 0.477 3.598 1.027 4.117 1.227l0.945 0.361-0.186 0.9c-0.1 0.495-0.499 2.673-0.882 4.838-0.382 2.167-1.14 6.303-1.681 9.19s-1.37 7.245-1.846 9.681c-0.472 2.438-1.158 5.539-1.525 6.892-0.375 1.391-0.757 2.779-1.145 4.168-0.267 0.937-0.896 2.562-1.399 3.609-0.507 1.046-1.392 2.568-1.967 3.381-0.576 0.812-1.549 1.939-2.164 2.5-0.613 0.564-1.942 1.564-2.954 2.223l-1.836 1.201-2.656 0.827-2.652 0.828-2.523 0.133zm-491.45 7.714h8.112l0.583-3.527c0.319-1.942 0.945-5.67 1.389-8.286l1.836-10.83c0.566-3.34 1.416-8.288 1.887-10.995 0.47-2.707 1.22-6.907 1.662-9.332 0.445-2.428 0.892-4.494 0.995-4.596l0.188-0.184h43.631l0.243 0.238 0.243 0.238-0.379 1.894c-0.207 1.043-0.823 4.259-1.366 7.146-0.545 2.888-1.459 7.762-2.035 10.831-0.604 3.229-1.218 6.457-1.843 9.681-0.44 2.257-1.332 6.98-1.981 10.501-0.648 3.52-1.178 6.584-1.176 6.811l4e-3 0.41h16.293l0.36-2.051c0.199-1.128 0.518-3.158 0.71-4.512 0.19-1.354 0.653-4.234 1.026-6.399 0.373-2.167 1.117-6.451 1.655-9.519 0.537-3.069 1.439-8.311 2.001-11.65 0.562-3.34 1.396-8.213 1.855-10.829 0.579-3.287 1.183-6.568 1.81-9.846 0.538-2.8 1.435-7.523 1.994-10.503 0.559-2.977 1.394-7.482 1.856-10.009 0.465-2.526 1.31-7.104 1.88-10.173 0.569-3.069 1.29-6.65 1.598-7.959l0.563-2.381h-16.497l-0.224 1.561c-0.123 0.855-0.521 3.259-0.885 5.332-0.365 2.078-1.026 5.768-1.471 8.205-0.445 2.438-1.257 7.088-1.807 10.339-0.538 3.183-1.056 6.368-1.554 9.557l-0.557 3.649-12.108 0.241-12.109 0.241-10.141-0.236c-5.578-0.131-10.173-0.264-10.211-0.293-0.039-0.033 0.151-1.308 0.42-2.836 0.356-1.969 0.734-3.934 1.136-5.894 0.512-2.515 1.009-5.03 1.492-7.55 0.467-2.436 0.995-5.463 1.176-6.727 0.178-1.263 0.555-3.367 0.834-4.678 0.28-1.308 0.812-4.064 1.182-6.123 0.369-2.061 0.763-3.981 0.875-4.268l0.202-0.521h-16.364l-0.522 2.873c-0.289 1.58-0.674 3.832-0.855 5.004-0.181 1.174-0.791 4.939-1.355 8.369-0.562 3.43-1.396 8.525-1.849 11.322l-1.832 11.322c-0.645 3.942-1.324 7.882-2.038 11.814-0.594 3.229-1.199 6.456-1.817 9.682-0.435 2.254-1.262 6.539-1.839 9.517-0.606 3.121-1.23 6.239-1.873 9.354-0.453 2.164-0.953 4.675-1.11 5.578-0.16 0.903-0.677 3.505-1.15 5.785-0.473 2.277-0.86 4.381-0.86 4.677v0.532h8.117v3e-3zm89.817 0h7.182l0.203-0.521c0.112-0.286 0.203-1.034 0.203-1.662 0-0.63 0.452-3.903 1.003-7.276 1.26-7.682 2.551-15.358 3.875-23.031 0.566-3.232 1.164-6.459 1.79-9.682 0.532-2.707 1.349-6.916 1.815-9.353 0.464-2.437 1.381-7.072 2.035-10.302 0.653-3.23 1.27-6.002 1.37-6.16l0.182-0.288-7.264 0.087-7.263 0.089-0.606 4.269c-0.332 2.346-1.06 6.998-1.616 10.336-0.556 3.34-1.397 8.436-1.871 11.322-0.571 3.453-1.181 6.898-1.83 10.338-0.534 2.798-1.352 7.08-1.819 9.518-0.466 2.439-1.303 6.72-1.859 9.517-0.557 2.799-1.303 6.49-1.659 8.204-0.357 1.718-0.74 3.452-0.851 3.856l-0.202 0.739h7.182zm167.99 0h7.129l0.214-2.965c0.118-1.631 0.521-4.915 0.896-7.303 0.376-2.385 1.146-7.143 1.709-10.571 0.714-4.239 1.489-8.469 2.329-12.687 0.717-3.547 1.527-7.074 1.801-7.835 0.274-0.763 0.497-1.588 0.497-1.835 0-0.248 0.536-1.596 1.192-2.995 0.654-1.399 1.876-3.542 2.713-4.763l1.522-2.218 2.036-1.854 2.037-1.854 2.514-1.179 2.513-1.179 3.839 0.02 3.842 0.021 1.887 0.553c1.037 0.306 1.977 0.556 2.088 0.556 0.107 0 0.197-0.35 0.197-0.776 0-0.425 0.377-2.587 0.836-4.804 0.459-2.215 0.833-4.121 0.833-4.234 0-0.115-1.088-0.535-2.421-0.933-1.33-0.397-3.171-0.813-4.089-0.925l-1.672-0.203-2.168 0.377c-1.194 0.207-2.969 0.665-3.943 1.019-0.977 0.351-2.59 1.151-3.583 1.774-0.992 0.627-2.537 1.844-3.432 2.705-0.896 0.863-2.402 2.604-3.348 3.867-0.736 0.982-1.468 1.966-2.195 2.953l-0.479 0.656 0.29-1.312c0.159-0.724 0.604-3.087 0.987-5.251 0.383-2.166 0.779-4.198 0.876-4.513l0.179-0.575h-12.734v0.791c0 0.436-0.378 3.056-0.835 5.824-0.46 2.771-1.217 7.398-1.684 10.287-0.466 2.887-1.294 7.91-1.839 11.158-0.581 3.45-1.194 6.896-1.84 10.336-1.258 6.569-2.543 13.133-3.856 19.691-0.563 2.799-1.235 6.103-1.494 7.344-0.262 1.238-0.474 2.381-0.474 2.542v0.288h7.13v2e-3zm169.24 0h7.29v-4.386l0.84-5.438c0.464-2.988 1.226-7.727 1.696-10.523 0.469-2.798 1.054-6.342 1.299-7.878 0.246-1.534 0.896-4.855 1.448-7.383 0.551-2.527 1.236-5.26 1.527-6.072 0.289-0.811 0.529-1.664 0.532-1.893s0.623-1.704 1.378-3.276l1.377-2.861 1.816-2.37 1.816-2.37 1.984-1.468c1.094-0.809 2.85-1.879 3.905-2.381l1.92-0.913 4.173 0.028 4.173 0.029 1.645 0.519 1.644 0.519 0.275-0.17 0.276-0.168 0.016-1.047c7e-3 -0.577 0.363-2.719 0.793-4.763l0.78-3.716-0.876-0.337c-0.844-0.308-1.692-0.592-2.55-0.854l-1.667-0.518-3.006 9e-3 -3.005 7e-3 -2.449 0.848-2.45 0.846-1.838 1.091-1.841 1.091-2.391 2.461-2.392 2.461-1.284 1.91c-0.705 1.049-1.327 1.861-1.382 1.803-0.055-0.056 0.332-2.244 0.854-4.861 0.523-2.618 0.959-5.092 0.967-5.498l0.014-0.738h-12.354v0.209c0 0.115-0.308 2.221-0.686 4.678-0.376 2.457-1.133 7.199-1.678 10.539-0.658 3.994-1.323 7.986-1.997 11.978-0.587 3.452-1.2 6.897-1.844 10.339-0.464 2.436-1.286 6.718-1.83 9.517-0.542 2.798-1.435 7.303-1.982 10.01l-1.611 7.958-0.615 3.035h7.29zm-323.1-80.083l2.025 7e-3 1.612-0.539 1.612-0.54 1.427-1.423 1.426-1.42 0.75-1.896 0.752-1.895 0.026-2.789 0.028-2.788-0.668-1.091-0.667-1.09-1.162-0.705-1.165-0.709h-5.02l-1.709 0.752-1.708 0.752-0.992 1.045-0.992 1.046-0.78 1.805-0.779 1.804-0.147 2.812-0.146 2.811 0.724 1.398 0.725 1.396 1.401 0.625 1.398 0.623 2.029 9e-3z" fill="#393939"/></svg>
