<svg width="780" height="500" enable-background="new 0 0 780 500" version="1.1" viewBox="0 0 780 500" xml:space="preserve" xmlns="http://www.w3.org/2000/svg"><path d="M53.385,15h671.729c21.201,0,38.386,16.853,38.386,37.64v395.22   c0,20.788-17.185,37.64-38.386,37.64H53.385C32.186,485.5,15,468.648,15,447.86V52.64C15,31.853,32.186,15,53.385,15z" fill="none" stroke="#393939" stroke-width="30"/><path d="m704.94 250.23c0 105.73-87.905 191.78-195.95 191.78-45.065 0-86.609-15.002-119.75-40.09-33.123 25.088-74.667 40.09-119.73 40.09-108.04 0-195.94-86.049-195.94-191.78 0-105.74 87.902-191.74 195.94-191.74 45.065 0 86.61 14.945 119.73 40.069 33.143-25.124 74.687-40.069 119.75-40.069 108.04 0 195.95 86.008 195.95 191.74zm-196.23-174.81c-39.747 0-76.441 12.744-106.09 34.25 26.886 24.488 46.771 56.288 56.271 92.126h-18.16c-9.304-31.684-27.491-59.657-51.777-81.184-24.26 21.527-42.46 49.5-51.729 81.184h-18.188c9.523-35.838 29.407-67.638 56.294-92.126-29.662-21.506-66.342-34.25-106.11-34.25-98.521 0-178.39 78.16-178.39 174.6 0 96.413 79.869 174.6 178.39 174.6 39.767 0 76.447-12.744 106.11-34.248-25.299-23.059-44.385-52.603-54.475-85.856h18.364c9.755 29.118 27.074 54.819 49.734 74.91 22.685-20.091 40.026-45.792 49.782-74.91h18.358c-10.107 33.255-29.188 62.798-54.475 85.856 29.645 21.504 66.339 34.248 106.09 34.248 98.521 0 178.39-78.185 178.39-174.6 1e-3 -96.438-79.868-174.6-178.39-174.6z" fill="#393939" stroke="#979797"/><path d="m197.07 208.11h-28.565l-17.852 52.083-0.743-52.083h-26.472l-14.371 84.15h17.227l11.064-64.29 1.545 64.29h12.551l23.521-64.674-10.539 64.674h18.398l14.236-84.15zm47.412 84.071h-15.25l0.355-7.101c-4.655 5.606-10.854 8.289-19.277 8.289-9.991 0-16.795-7.635-16.795-18.677 0-16.687 11.866-26.386 32.279-26.386 2.092 0 4.769 0.19 7.506 0.534 0.569-2.277 0.707-3.233 0.707-4.458 0-4.515-3.19-6.218-11.793-6.218-8.992-0.115-16.421 2.087-19.47 3.082 0.195-1.148 2.562-15.385 2.562-15.385 9.151-2.64 15.208-3.635 22.014-3.635 15.797 0 24.167 6.926 24.147 20.053 0.02 3.521-0.568 7.863-1.488 13.588-1.602 9.889-5.024 31.128-5.495 36.312v2e-3zm-12.926-30.165c-1.935-0.193-2.778-0.269-4.107-0.269-10.441 0-15.702 3.498-15.702 10.389 0 4.271 2.582 6.984 6.57 6.984 7.51 0 12.903-6.984 13.239-17.104zm253.85-55.787c-24.383 0-41.435 21.008-41.435 51.09 0 22.347 12.342 36.316 32.147 36.316 5.082 0 9.48-0.651 16.246-2.487l3.226-19.155c-6.081 2.93-11.084 4.325-15.625 4.325-10.694 0-17.149-7.732-17.149-20.496 0-18.54 9.605-31.532 23.348-31.532 5.104 0 9.875 1.302 16.443 4.556l3.011-18.253c-2.695-1.035-12.18-4.364-20.212-4.364zm66.176 85.952h-15.229l0.352-7.101c-4.674 5.606-10.892 8.289-19.301 8.289-9.97 0-16.814-7.635-16.814-18.677 0-16.687 11.908-26.386 32.3-26.386 2.093 0 4.772 0.19 7.513 0.534 0.562-2.277 0.701-3.233 0.701-4.458 0-4.515-3.187-6.218-11.773-6.218-9.011-0.115-16.42 2.087-19.473 3.082 0.177-1.148 2.544-15.385 2.544-15.385 9.168-2.64 15.228-3.635 21.993-3.635 15.82 0 24.19 6.926 24.169 20.053 0.038 3.521-0.566 7.863-1.486 13.588-1.583 9.889-5.021 31.128-5.494 36.312v2e-3zm-12.933-30.165c-1.916-0.193-2.776-0.269-4.126-0.269-10.422 0-15.702 3.498-15.702 10.389 0 4.271 2.583 6.984 6.612 6.984 7.49 0 12.904-6.984 13.216-17.104zm-203.63 14.306c-1.232 0.423-2.854 0.649-4.946 0.649-4.379 0-6.314-1.527-6.314-5.07 0.04-2.179 3.07-18.367 5.183-31.361h9.439l2.505-16.456h-9.406l2.131-10.328h-18.282s-6.919 40.277-7.955 46.647c-1.174 7.291-2.658 15.232-2.544 18.254 0 9.741 5.124 15.042 14.526 15.042 4.267 0 8.19-0.691 13.241-2.22l2.422-15.157zm56.206 14.29c-6.295 1.877-12.36 2.757-18.77 2.757-20.494-0.043-31.166-10.505-31.166-30.539 0-23.384 13.587-40.605 32.025-40.605 15.074 0 24.716 9.625 24.716 24.778 0 5.013-0.685 9.893-2.271 16.84h-36.406c-1.231 9.891 5.263 14.024 15.899 14.024 6.546 0 12.434-1.302 19.003-4.285l-3.03 17.03zm-9.587-40.141c0.118-1.416 1.933-12.249-8.507-12.249-5.828 0-10.01 4.384-11.689 12.249h20.196zm-122.59-5.093c0 8.669 4.26 14.62 13.998 19.117 7.45 3.443 8.603 4.438 8.603 7.56 0 4.243-3.285 6.159-10.578 6.159-5.474 0-10.597-0.806-16.484-2.678 0 0-2.421 15.077-2.54 15.806 4.205 0.882 7.918 1.718 19.161 2.028 19.413 0 28.371-7.254 28.371-22.867 0-9.432-3.736-14.905-12.967-19.061-7.7-3.482-8.6-4.246-8.6-7.441 0-3.713 3.069-5.588 9.032-5.588 3.596 0 8.543 0.384 13.197 1.035l2.622-15.883c-4.772-0.727-11.985-1.339-16.19-1.339-20.588-1e-3 -27.704 10.504-27.625 23.152zm396.1 46.883h-17.418l0.879-6.369c-5.065 5.264-10.243 7.559-16.97 7.559-13.376 0-22.212-11.271-22.212-28.377 0-22.792 13.703-41.963 29.93-41.963 7.121 0 12.553 2.832 17.582 9.32l4.065-24.319h18.147l-14.003 84.149zm-27.1-15.683c8.562 0 14.604-9.514 14.604-23.061 0-8.706-3.42-13.414-9.76-13.414-8.348 0-14.272 9.511-14.272 22.963 0 8.975 3.171 13.512 9.428 13.512zm-56.582-52.672c-2.306 21.164-6.394 42.613-9.58 63.815l-0.842 4.61h18.38c6.589-41.845 8.19-50.016 18.495-48.984 1.64-8.591 4.69-16.07 6.997-19.858-7.717-1.573-12.023 2.715-17.631 10.81 0.447-3.522 1.25-6.909 1.075-10.393h-16.894zm-161.19 0c-2.312 21.164-6.416 42.613-9.603 63.815l-0.843 4.61h18.398c6.59-41.845 8.173-50.016 18.476-48.984 1.662-8.591 4.731-16.07 7.002-19.858-7.686-1.573-12.021 2.715-17.638 10.81 0.45-3.522 1.249-6.909 1.095-10.393h-16.887z" fill="#393939"/></svg>
