<svg width="780" height="500" enable-background="new 0 0 780 500" version="1.1" viewBox="0 0 780 500" xml:space="preserve" xmlns="http://www.w3.org/2000/svg"><path d="m409.41 197.26c30.938 0 56.02 23.58 56.02 52.709v0.033c0 29.129-25.082 52.742-56.02 52.742-30.941 0-56.022-23.613-56.022-52.742v-0.033c0-29.129 25.081-52.709 56.022-52.709z" fill="#F47216"/><path d="m321.43 197.94c8.836 0 16.247 1.785 25.27 6.09v22.753c-8.544-7.863-15.955-11.154-25.757-11.154-19.265 0-34.413 15.015-34.413 34.051 0 20.074 14.681 34.195 35.368 34.195 9.312 0 16.586-3.12 24.802-10.856v22.764c-9.343 4.142-16.912 5.775-25.757 5.775-31.277 0-55.581-22.597-55.581-51.736-2e-3 -28.83 24.949-51.882 56.068-51.882zm-97.113 0.626c11.546 0 22.109 3.721 30.942 10.994l-10.748 13.248c-5.351-5.646-10.411-8.027-16.563-8.027-8.854 0-15.301 4.744-15.301 10.988 0 5.354 3.618 8.188 15.944 12.481 23.364 8.043 30.289 15.176 30.289 30.926 0 19.193-14.976 32.554-36.319 32.554-15.631 0-26.993-5.795-36.457-18.871l13.268-12.03c4.73 8.608 12.622 13.223 22.42 13.223 9.163 0 15.947-5.95 15.947-13.983 0-4.164-2.056-7.733-6.158-10.258-2.066-1.195-6.158-2.978-14.199-5.646-19.292-6.538-25.91-13.527-25.91-27.186-1e-3 -16.227 14.213-28.413 32.845-28.413zm234.72 1.729h22.436l28.084 66.592 28.447-66.592h22.267l-45.493 101.69h-11.054l-44.687-101.69zm-301.21 0.152h20.541v99.143h-20.541v-99.143zm411.73 0h58.253v16.799h-37.726v22.006h36.336v16.791h-36.336v26.762h37.726v16.785h-58.253v-99.143zm115.59 57.377c15.471-2.965 23.983-12.926 23.983-28.105 0-18.562-13.575-29.271-37.266-29.271h-30.454v99.144h20.516v-39.83h2.681l28.43 39.828h25.26l-33.15-41.766zm-17.218-11.736h-6.002v-30.025h6.326c12.791 0 19.744 5.049 19.744 14.697 2e-3 9.967-6.951 15.328-20.068 15.328zm-576.09-45.641h-30.149v99.143h29.992c15.946 0 27.465-3.543 37.573-11.445 12.014-9.359 19.117-23.467 19.117-38.057 1e-3 -29.259-23.221-49.641-56.533-49.641zm23.997 74.479c-6.454 5.484-14.837 7.879-28.108 7.879h-5.514v-65.559h5.513c13.271 0 21.323 2.238 28.108 8.018 7.104 5.956 11.377 15.184 11.377 24.682 1e-3 9.513-4.273 19.024-11.376 24.98z"/></svg>
