<svg width="780" height="500" enable-background="new 0 0 780 500" version="1.1" viewBox="0 0 780 500" xml:space="preserve" xmlns="http://www.w3.org/2000/svg"><path d="m690 250.01c0 99.133-80.351 179.5-179.48 179.5-99.12 0-179.48-80.361-179.48-179.5 0-99.142 80.358-179.51 179.48-179.51 99.133 0 179.48 80.367 179.48 179.51" fill="#D9222A"/><path d="m371.87 363.99c-4.97-6.029-9.538-12.38-13.675-19.01h63.611c3.829-6.122 7.282-12.472 10.343-19.013h-84.292c-2.894-6.183-5.43-12.526-7.597-19h99.477c5.986-17.903 9.229-37.05 9.229-56.962 0-13.046-1.392-25.763-4.028-38.013h-109.86c1.385-6.427 3.123-12.773 5.209-19.008h99.44c-2.171-6.472-4.706-12.817-7.592-19.004h-84.254c3.063-6.537 6.516-12.884 10.337-19.009h63.571c-4.144-6.618-8.71-12.962-13.671-18.991h-36.224c5.569-6.763 11.623-13.113 18.112-19-31.854-28.884-74.138-46.483-120.52-46.483-99.126 1e-3 -179.48 80.368-179.48 179.51 0 99.133 80.358 179.5 179.49 179.5 46.388 0 88.667-17.596 120.52-46.475 6.499-5.896 12.56-12.26 18.133-19.037h-36.267" fill="#0097D0"/><path d="m666.07 350.04c0-3.2 2.596-5.796 5.801-5.796 3.199 2e-3 5.792 2.596 5.791 5.796 0 3.204-2.592 5.8-5.791 5.8-3.203 1e-3 -5.801-2.596-5.801-5.8v0zm5.801 4.408c2.43 1e-3 4.401-1.968 4.403-4.397v-0.011c0-2.427-1.967-4.396-4.395-4.396h-9e-3c-2.43-6e-3 -4.404 1.961-4.409 4.391v5e-3c-1e-3 2.434 1.971 4.407 4.404 4.408h6e-3zm-0.788-1.862h-1.184v-5.092h2.149c0.446 0 0.904 4e-3 1.3 0.258 0.417 0.283 0.646 0.775 0.646 1.271 0 0.582-0.338 1.111-0.88 1.315l0.934 2.246h-1.315l-0.775-2.009h-0.875v2.011zm0-2.879h0.658c0.246 0 0.505 0.016 0.726-0.102 0.191-0.136 0.304-0.357 0.301-0.592-0.01-0.207-0.116-0.397-0.288-0.513-0.212-0.125-0.541-0.101-0.763-0.101h-0.634v1.308zm-283.64-51.205c-7.671 2.033-15.088 3.025-22.93 3.01-25.017-0.024-38.046-11.418-38.046-33.201 0-25.458 16.587-44.183 39.101-44.183 18.417 0 30.175 10.5 30.175 26.946 0 5.458-0.796 10.771-2.745 18.296h-44.488c-1.583 10.633 6.188 15.306 19.413 15.306 7.925 0 15.092-1.427 23.024-4.613l-3.504 18.439zm-11.963-44.151c0-1.607 2.476-13.033-10.399-13.283-7.108 0-12.208 4.725-14.271 13.283h24.67zm27.034-4.99c0 9.404 5.296 15.9 17.329 20.736 9.199 3.771 10.649 4.859 10.649 8.222 0 4.663-4.066 6.805-13.092 6.745-6.778-0.049-12.962-0.87-20.263-2.896l-3.229 17.154c6.487 1.504 15.588 2 23.649 2.188 24.024 0 35.116-7.867 35.116-24.867 0-10.217-4.625-16.233-16.033-20.713-9.537-3.809-10.657-4.638-10.657-8.083 0-4.05 3.778-6.1 11.148-6.1 4.463 0 10.579 0.413 16.38 1.108l3.259-17.242c-5.912-0.825-14.884-1.483-20.075-1.483-25.448 1e-3 -34.256 11.46-34.181 25.231m-88.242 50.92h-18.662l0.445-7.82c-5.691 6.17-13.271 9.041-23.558 9.041-12.175 0-20.517-8.324-20.517-20.295 0-18.195 14.5-28.691 39.429-28.691 2.563 0 5.821 0.191 9.167 0.562 0.691-2.434 0.879-3.479 0.879-4.808 0-4.979-3.921-6.813-14.412-6.813-10.342 0.042-17.321 1.571-23.796 3.313l3.188-16.7c11.195-2.846 18.529-3.941 26.825-3.941 19.304 0 29.499 7.566 29.499 21.796 0.167 3.795-1.158 11.413-1.82 14.746-0.759 4.852-6.109 32.973-6.667 39.61zm-16.379-33.191c-2.366-0.242-3.396-0.312-5.013-0.312-12.729 0-19.183 3.787-19.183 11.267 0 4.692 3.149 7.634 8.058 7.634 9.147-1e-3 15.75-7.652 16.138-18.589zm194.11 32.011c-6.125 1.68-10.896 2.408-16.059 2.408-11.435 0-17.676-5.842-17.676-16.25-0.357-2.857 2.435-16.059 3.066-19.736 0.634-3.691 10.538-57.492 10.538-57.492h22.212l-3.362 17.8h11.393l-3.097 18.171h-11.44s-6.279 31.529-6.279 33.934c0 3.824 2.316 5.487 7.633 5.487 2.546 0 4.51-0.237 6.029-0.692l-2.958 16.37m99.246-74.974c-16.279 0-29 6.7-36.388 17.892l6.412-16.596c-11.816-4.337-19.435 1.85-26.325 10.65 0 0-1.154 1.462-2.3 2.8v-13.05h-20.858c-2.825 23.029-7.82 46.379-11.729 69.446l-0.941 5.021h22.438c2.125-11.708 3.875-21.213 5.617-28.788 4.768-20.787 12.787-27.141 24.829-24.333-2.779 5.979-4.305 12.892-4.305 20.554 0 18.58 10.092 33.789 35.149 33.789 25.287 0 43.597-13.51 43.597-44.31 0-18.579-12.201-33.075-35.196-33.075zm-6.529 59.316c-7.926 0.125-12.729-6.524-12.729-16.471 0-11.791 7.013-25.112 18.274-25.112 9.087 0 12.199 7.204 12.199 14.879 1e-3 16.78-6.874 26.704-17.744 26.704zm-343.19 16.847h-22.342l13.279-69.954-30.571 69.954h-20.366l-3.726-69.55-13.32 69.55h-20.271l17.267-90.996h34.913l2.912 50.726 22.117-50.726h37.721l-17.613 90.996"/><path d="m628.15 288.88c2e-3 -3.199 2.596-5.793 5.796-5.795 3.204 0 5.796 2.6 5.796 5.795 0.06 3.201-2.487 5.845-5.688 5.904-3.201 0.061-5.845-2.486-5.904-5.688-2e-3 -0.072-2e-3 -0.144 0-0.216zm5.796 4.413c2.435-3e-3 4.408-1.978 4.408-4.413 0-2.433-1.976-4.402-4.408-4.402-2.434 0-4.408 1.971-4.408 4.402 0 2.435 1.973 4.41 4.408 4.413zm-0.784-1.866h-1.188v-5.084h2.15c0.449 0 0.908 0 1.304 0.25 0.408 0.279 0.646 0.769 0.646 1.271 0 0.578-0.337 1.115-0.883 1.316l0.934 2.246h-1.316l-0.771-2.01h-0.875v2.011h-1e-3zm0-2.888h0.658c0.242 0 0.504 0.017 0.725-0.097 0.19-0.135 0.301-0.354 0.296-0.588-5e-3 -0.206-0.11-0.397-0.283-0.512-0.212-0.13-0.541-0.097-0.763-0.097h-0.633v1.294zm-240.11 4.354c-7.667 2.033-15.088 3.028-22.925 3.012-25.017-0.025-38.046-11.42-38.046-33.208 0-25.45 16.579-44.179 39.096-44.179 18.421 0 30.175 10.496 30.175 26.942 0 5.467-0.8 10.771-2.74 18.301h-44.487c-1.584 10.629 6.179 15.308 19.408 15.308 7.925 0 15.087-1.425 23.028-4.616l-3.509 18.44zm-11.963-44.15c0-1.604 2.472-13.033-10.398-13.279-7.108 0-12.204 4.729-14.271 13.279h24.669zm27.038-4.996c0 9.408 5.287 15.9 17.325 20.746 9.204 3.768 10.648 4.857 10.648 8.213 0 4.666-4.065 6.809-13.087 6.75-6.783-0.047-12.967-0.871-20.263-2.896l-3.237 17.146c6.491 1.516 15.597 2.012 23.653 2.199 24.025 0 35.121-7.871 35.121-24.871 0-10.217-4.629-16.236-16.041-20.712-9.538-3.809-10.654-4.638-10.654-8.083 0-4.05 3.783-6.1 11.146-6.1 4.471 0 10.583 0.417 16.388 1.113l3.25-17.246c-5.913-0.825-14.879-1.483-20.065-1.483-25.459-1e-3 -34.263 11.453-34.184 25.224m-88.242 50.93h-18.666l0.45-7.82c-5.696 6.158-13.275 9.033-23.559 9.033-12.175 0-20.521-8.326-20.521-20.287 0-18.205 14.495-28.696 39.429-28.696 2.563 0 5.816 0.192 9.171 0.563 0.691-2.433 0.875-3.475 0.875-4.808 0-4.983-3.917-6.813-14.408-6.813-10.342 0.042-17.321 1.575-23.796 3.313l3.184-16.696c11.199-2.85 18.529-3.946 26.829-3.946 19.304 0 29.495 7.567 29.495 21.792 0.167 3.8-1.158 11.413-1.816 14.754-0.763 4.848-6.112 32.968-6.667 39.611zm-16.387-33.198c-2.358-0.244-3.392-0.312-5.013-0.312-12.721 0-19.18 3.788-19.18 11.268 0 4.694 3.154 7.633 8.055 7.633 9.155-1e-3 15.758-7.654 16.138-18.589zm194.11 32.018c-6.12 1.676-10.896 2.408-16.055 2.408-11.434 0-17.671-5.846-17.671-16.254-0.361-2.854 2.435-16.059 3.063-19.737 0.634-3.692 10.537-57.492 10.537-57.492h22.209l-3.354 17.8h11.393l-3.097 18.171h-11.44s-6.283 31.53-6.283 33.933c0 3.825 2.32 5.479 7.633 5.479 2.542 0 4.509-0.229 6.029-0.691l-2.964 16.383m110.47-42.367c0 16.775-6.88 26.709-17.755 26.709-7.921 0.112-12.726-6.525-12.726-16.475 0-11.792 7.009-25.113 18.271-25.113 9.093 0 12.21 7.213 12.21 14.879zm23.979 0.467c0-18.579-12.208-33.079-35.194-33.079-26.45 0-43.551 17.625-43.551 43.596 0 18.578 10.084 33.791 35.149 33.791 25.288 0 43.596-13.512 43.596-44.308zm-114.66-31.383c-2.821 23.029-7.816 46.375-11.722 69.45l-0.946 5.021h22.435c8.088-44.558 10.8-57.253 27.741-52.782l8.149-21.087c-11.815-4.337-19.425 1.854-26.309 10.658 0.621-3.962 1.792-7.783 1.509-11.258l-20.857-2e-3m-270.26 74.47h-22.338l13.275-69.958-30.575 69.958h-20.362l-3.726-69.555-13.32 69.555h-20.271l17.263-91h34.921l1.846 56.334 24.575-56.334h36.325l-17.613 91" fill="#fff"/></svg>
