<svg width="780" height="500" enable-background="new 0 0 780 500" version="1.1" viewBox="0 0 780 500" xml:space="preserve" xmlns="http://www.w3.org/2000/svg"><rect width="780" height="500" fill="#FFF" stroke-width="15px" stroke="#000"/><path d="m293.2 348.73l33.359-195.76h53.358l-33.384 195.76h-53.333zm246.11-191.54c-10.569-3.966-27.135-8.222-47.821-8.222-52.726 0-89.863 26.551-90.181 64.604-0.297 28.129 26.515 43.822 46.754 53.185 20.771 9.598 27.752 15.716 27.652 24.283-0.133 13.123-16.586 19.115-31.924 19.115-21.355 0-32.701-2.967-50.225-10.273l-6.878-3.111-7.487 43.822c12.463 5.467 35.508 10.199 59.438 10.445 56.09 0 92.502-26.248 92.916-66.885 0.199-22.27-14.016-39.215-44.801-53.188-18.65-9.056-30.072-15.099-29.951-24.269 0-8.137 9.668-16.838 30.56-16.838 17.446-0.271 30.088 3.534 39.936 7.5l4.781 2.259 7.231-42.427m137.31-4.223h-41.23c-12.772 0-22.332 3.486-27.94 16.234l-79.245 179.4h56.031s9.159-24.121 11.231-29.418c6.123 0 60.555 0.084 68.336 0.084 1.596 6.854 6.492 29.334 6.492 29.334h49.512l-43.187-195.64zm-65.417 126.41c4.414-11.279 21.26-54.724 21.26-54.724-0.314 0.521 4.381-11.334 7.074-18.684l3.606 16.878s10.217 46.729 12.353 56.527h-44.293v3e-3zm-363.3-126.41l-52.239 133.5-5.565-27.129c-9.726-31.274-40.025-65.157-73.898-82.12l47.767 171.2 56.455-0.063 84.004-195.39-56.524-1e-3" fill="#0E4595"/><path d="m146.92 152.96h-86.041l-0.682 4.073c66.939 16.204 111.23 55.363 129.62 102.42l-18.709-89.96c-3.229-12.396-12.597-16.096-24.186-16.528" fill="#F2AE14"/></svg>
