<svg width="780" height="500" enable-background="new 0 0 780 500" version="1.1" viewBox="0 0 780 500" xml:space="preserve" xmlns="http://www.w3.org/2000/svg"><g fill="#393939"><path d="m572.09 255.52c-1.865 0.639-3.731 1.914-5.598 3.19l-5.6 3.829c-1.866 1.277-3.11 2.554-3.732 4.468-1.245 1.276-1.245 3.191-1.245 4.468s0 2.554 0.622 3.83c0.622 1.275 0.622 1.914 1.244 3.191 0.622 1.275 1.244 1.275 1.866 1.914 0.622 0.638 1.245 0.638 2.489 0.638 1.865 0 3.11-0.638 4.977-1.276l5.601-3.829v-20.423h-0.624z"/><path d="m502.4 238.92c-1.244-1.915-2.488-3.83-3.731-5.105-1.244-1.277-3.111-1.915-4.979-1.915-1.243 0-2.487 0-3.731 0.638-1.245 0.639-2.489 1.277-3.111 1.915-1.244 0.638-1.866 1.915-3.11 2.553-1.245 1.276-1.866 1.915-2.489 3.191v31.271c0 1.915 0 3.191 0.623 4.468 0.621 1.276 1.244 2.553 2.487 3.83 1.244 1.275 2.488 1.913 3.733 2.552 1.244 0.639 3.11 0.639 4.977 0.639s3.11-0.639 4.977-1.915c1.244-1.275 3.111-2.553 3.734-5.105 0.621-2.553 1.865-4.468 2.487-7.659 0.622-3.19 1.244-5.744 1.244-9.573 0-4.467 0-8.295-0.622-11.486s-1.244-5.746-2.489-8.299z"/><polygon points="315.86 257.21 341.98 257.21 328.92 228.49"/><path d="m736.04 0h-694.58c-22.887 0-41.458 19.051-41.458 42.553v415.89c0 23.507 18.562 42.554 41.458 42.554h694.58c22.888 0 41.459-19.051 41.459-42.554v-415.89c0-23.506-18.562-42.553-41.459-42.553zm-487.2 285.49s-6.221-0.639-34.217-10.212v1e-3c-7.466-2.552-18.042-6.382-30.485-10.849 6.844-12.126 12.444-26.166 16.176-41.482h-37.95v-14.04h46.66v-7.021h-46.66v-23.614h-18.665c-3.11 0-3.11 3.191-3.11 3.191v19.783h-47.283v7.658h47.283v15.317h-38.572v7.658h75.278c-2.489 9.573-6.222 18.508-10.576 26.804-24.264-8.296-50.394-14.678-66.57-10.849-10.576 2.553-17.42 7.02-21.152 12.126-18.664 22.336-5.599 56.8 32.974 56.8 23.019 0 44.794-13.403 61.591-34.464 25.509 12.765 75.279 33.825 75.279 33.825v1.275c0 17.232-14.309 31.272-31.106 31.272h-130.65c-17.42 0-31.107-14.039-31.107-31.271v-134.02c0-17.231 14.31-31.272 31.107-31.272h130.65c17.419 0 31.106 14.04 31.106 31.271v102.11zm-91.609-11.965c-13.688 17.871-31.107 29.359-48.527 29.359-30.485 0-39.195-23.615-24.264-37.017 4.977-4.469 13.688-6.383 18.664-7.021 18.043-1.913 34.219 5.107 54.127 14.679zm199.68 16.234l-11.198-24.253h-33.597l-11.198 24.253h-14.309l41.684-88.71s1.243-2.553 3.731-2.553h5.601v1e-3l41.061 91.261h-21.775zm49.593 0.726h-19.908v-86.795c0-2.553 1.244-3.829 4.354-3.829h15.554v90.624zm37.328-0.594h-19.908v-65.734c0-2.552 1.244-3.829 4.354-3.829h15.554v69.563zm-9.888-79.282c-5.497 0-9.953-4.048-9.953-9.042 0-4.993 4.456-9.042 9.953-9.042 5.498 0 9.955 4.049 9.955 9.042 0 4.994-4.457 9.042-9.955 9.042zm90.846 58.311c-1.866 4.466-3.732 8.934-6.843 12.125-3.111 3.19-6.223 6.382-10.578 8.297-4.354 1.913-8.709 2.552-13.687 2.552h-6.843c-1.866 0-3.731-0.639-5.6-1.276v22.975h-19.909v-83.603c-0.622-8.297 2.489-8.297 6.845-8.297h13.064v6.382c2.488-1.915 4.977-3.83 8.088-4.467 3.111-1.277 6.222-1.915 10.576-1.915s8.088 0.638 11.199 2.553c3.731 1.915 6.221 3.83 8.709 7.021s4.354 6.382 5.6 10.211c1.244 3.83 1.865 7.659 1.865 12.125 1e-3 5.743-0.62 10.848-2.486 15.317zm68.444 21.697h-19.908v-5.105c-1.244 1.276-2.487 1.915-3.109 2.552l-3.734 1.915c-1.244 0.639-2.488 1.276-4.354 1.276-1.867 0.639-3.732 0.639-5.601 0.639-3.11 0-5.599-0.639-8.088-1.276-2.487-0.639-4.354-1.914-6.22-3.829-1.867-1.276-3.112-3.19-3.734-5.744-0.622-1.915-1.244-4.467-1.244-7.021 0-2.553 0.622-5.105 1.244-7.02s2.488-3.83 3.733-5.744c1.244-1.915 3.731-3.191 5.599-4.469 2.488-1.276 4.355-2.552 7.467-3.828 2.487-1.275 4.976-1.913 8.088-3.191 2.487-0.638 5.598-1.914 8.087-2.552l2.488-0.638v-7.021c0-1.915 0-3.829-0.623-5.744l-1.865-3.829c-0.622-0.638-1.866-1.915-2.487-1.915-1.244-0.638-2.489-0.638-3.734-0.638 0 0-10.576 0-19.908 8.297l-4.354-7.021c-1.866 1.276 9.333-7.021 24.263-7.021v1e-3c4.978 0 8.711 0.638 12.443 1.277 3.11 0.638 6.221 1.915 8.711 3.829 2.487 1.915 3.731 3.829 4.976 5.744 1.244 2.552 1.866 5.105 1.866 7.658v50.418zm47.017 6.383c-1.244 2.553-6.221 15.955-19.908 15.955v-1e-3h-13.065l-0.622-12.126s16.175 0.638 21.153-5.744c1.865-2.554 3.109-9.572 3.109-9.572l-32.35-63.82h21.774l20.53 41.483 18.042-41.484h14.309l-32.972 75.309zm61.235-128.61h-6.843v19.785h-1.865v-19.785h-6.223v-1.276h14.931v1.276zm20.442 20.422h-2.487v-19.146l-1.865 5.106-4.355 12.765h-1.244l-4.355-12.765-1.865-5.106v19.146h-1.867v-21.699h3.109l4.355 12.125 1.866 4.468c0.621-1.276 1.244-3.191 1.866-4.468l4.354-12.125h2.488v21.699z"/></g></svg>
