<?xml version="1.0" encoding="utf-8"?>
<!-- Generator: Adobe Illustrator 26.0.2, SVG Export Plug-In . SVG Version: 6.00 Build 0)  -->
<svg version="1.1" id="Layer_1" xmlns="http://www.w3.org/2000/svg" xmlns:xlink="http://www.w3.org/1999/xlink" x="0px" y="0px"
	 viewBox="0 0 780 500" style="enable-background:new 0 0 780 500;" xml:space="preserve">
<style type="text/css">
	.st0{fill:#393939;}
	.st1{fill:#FFFFFF;fill-opacity:0.75;}
	.st2{fill:#FFFFFF;}
	.st3{fill:#FFFFFF;fill-opacity:0.76;}
	.st4{fill:#FFFFFF;fill-opacity:0.784;}
</style>
<path class="st0" d="M40,0h700c22.1,0,40,17.9,40,40v420c0,22.1-17.9,40-40,40H40c-22.1,0-40-17.9-40-40V40C0,17.9,17.9,0,40,0z"/>
<g>
	<path class="st1" d="M69,153.6h69.7c11.2,0,20.3,9.1,20.3,20.3v59c0,11.2-9.1,20.3-20.3,20.3H69c-11.2,0-20.3-9.1-20.3-20.3v-59
		C48.7,162.7,57.8,153.6,69,153.6z"/>
	<path class="st2" d="M78.1,310.4v-3.8H73v-11.3h-4.2l-0.4,11.3H56.9l10.6-25.1l-4-1.7l-11.7,27.1v3.5h16.4v9.7H73v-9.7L78.1,310.4z
		 M97.7,279.8c-4,0-7.9,1.4-11.2,4.6l2.6,2.9c2.6-2.5,5-3.7,8.4-3.7c4.2,0,7.5,2.4,7.5,6.7c0,4.8-3.7,7-7.5,7h-2.4l-0.6,3.8h3.3
		c4.7,0,8.2,1.8,8.2,7.5c0,4.9-3.3,8.1-8.9,8.1c-3.2,0-6.6-1.3-8.8-4l-3.2,2.6c3,3.7,7.7,5.2,12.1,5.2c8.2,0,13.7-5.2,13.7-12
		c0-6.2-4.4-9.4-9-9.7c4.2-0.8,7.8-4.4,7.8-9.2C109.8,284.3,105.1,279.8,97.7,279.8L97.7,279.8z M132.2,279.8
		c-5.3,0-8.9,1.9-12.1,5.7l3.3,2.5c2.5-2.9,4.7-4.2,8.6-4.2c4.4,0,7.1,2.8,7.1,7.2c0,6.5-3.2,10.8-18.2,25.1v3.9h23.5l0.6-4.1h-18.6
		c13.1-11.9,17.7-17.8,17.7-25.1C144.1,284.6,139.6,279.8,132.2,279.8L132.2,279.8z M180.9,316.1h-8.3v-35.7h-4.2l-11.7,7.2l2.1,3.4
		l9.1-5.5v30.5h-9.8v3.9h22.8L180.9,316.1z M250.5,310.4v-3.8h-5.1v-11.3h-4.2l-0.4,11.3h-11.4l10.6-25.1l-4-1.7l-11.7,27.1v3.5
		h16.4v9.7h4.7v-9.7L250.5,310.4z M270.1,279.8c-4,0-7.9,1.4-11.2,4.6l2.6,2.9c2.6-2.5,5-3.7,8.4-3.7c4.2,0,7.5,2.4,7.5,6.7
		c0,4.8-3.7,7-7.5,7h-2.4l-0.6,3.8h3.3c4.7,0,8.2,1.8,8.2,7.5c0,4.9-3.3,8.1-8.9,8.1c-3.2,0-6.6-1.3-8.8-4l-3.2,2.6
		c3,3.7,7.7,5.2,12.1,5.2c8.2,0,13.7-5.2,13.7-12c0-6.2-4.4-9.4-9-9.7c4.2-0.8,7.8-4.4,7.8-9.2C282.2,284.3,277.5,279.8,270.1,279.8
		L270.1,279.8z M304.6,279.8c-5.3,0-8.9,1.9-12.1,5.7l3.3,2.5c2.5-2.9,4.7-4.2,8.6-4.2c4.4,0,7.1,2.8,7.1,7.2
		c0,6.5-3.2,10.8-18.2,25.1v3.9h23.5l0.6-4.1h-18.6c13.1-11.9,17.7-17.8,17.7-25.1C316.5,284.6,312,279.8,304.6,279.8L304.6,279.8z
		 M353.3,316.1H345v-35.7h-4.2l-11.7,7.2l2.1,3.4l9.1-5.5v30.5h-9.8v3.9h22.8V316.1z M422.9,310.4v-3.8h-5.1v-11.3h-4.2l-0.4,11.3
		h-11.4l10.6-25.1l-4-1.7l-11.7,27.1v3.5h16.4v9.7h4.7v-9.7L422.9,310.4z M442.5,279.8c-4,0-7.9,1.4-11.2,4.6l2.6,2.9
		c2.6-2.5,5-3.7,8.4-3.7c4.2,0,7.5,2.4,7.5,6.7c0,4.8-3.7,7-7.5,7h-2.4l-0.6,3.8h3.3c4.7,0,8.2,1.8,8.2,7.5c0,4.9-3.3,8.1-8.9,8.1
		c-3.2,0-6.6-1.3-8.8-4l-3.2,2.6c3,3.7,7.7,5.2,12.1,5.2c8.2,0,13.7-5.2,13.7-12c0-6.2-4.4-9.4-9-9.7c4.2-0.8,7.8-4.4,7.8-9.2
		C454.6,284.3,449.9,279.8,442.5,279.8L442.5,279.8z M476.9,279.8c-5.3,0-8.9,1.9-12.1,5.7l3.3,2.5c2.5-2.9,4.7-4.2,8.6-4.2
		c4.4,0,7.1,2.8,7.1,7.2c0,6.5-3.2,10.8-18.2,25.1v3.9h23.5l0.6-4.1h-18.6c13.1-11.9,17.7-17.8,17.7-25.1
		C488.8,284.6,484.4,279.8,476.9,279.8L476.9,279.8z M525.7,316.1h-8.3v-35.7h-4.2l-11.7,7.2l2.1,3.4l9.1-5.5v30.5h-9.8v3.9h22.8
		L525.7,316.1z M595.3,310.4v-3.8h-5.1v-11.3H586l-0.4,11.3h-11.4l10.6-25.1l-4-1.7L569,306.9v3.5h16.4v9.7h4.7v-9.7L595.3,310.4z
		 M614.8,279.8c-4,0-7.9,1.4-11.2,4.6l2.6,2.9c2.6-2.5,5-3.7,8.4-3.7c4.2,0,7.5,2.4,7.5,6.7c0,4.8-3.7,7-7.5,7h-2.4l-0.6,3.8h3.3
		c4.7,0,8.2,1.8,8.2,7.5c0,4.9-3.3,8.1-8.9,8.1c-3.2,0-6.6-1.3-8.8-4l-3.2,2.6c3,3.7,7.7,5.2,12.1,5.2c8.2,0,13.7-5.2,13.7-12
		c0-6.2-4.4-9.4-9-9.7c4.2-0.8,7.8-4.4,7.8-9.2C627,284.3,622.3,279.8,614.8,279.8L614.8,279.8z M649.3,279.8
		c-5.3,0-8.9,1.9-12.1,5.7l3.3,2.5c2.5-2.9,4.7-4.2,8.6-4.2c4.4,0,7.1,2.8,7.1,7.2c0,6.5-3.2,10.8-18.2,25.1v3.9h23.5l0.6-4.1h-18.6
		c13.1-11.9,17.7-17.8,17.7-25.1C661.2,284.6,656.8,279.8,649.3,279.8L649.3,279.8z M698.1,316.1h-8.3v-35.7h-4.2l-11.7,7.2l2.1,3.4
		l9.1-5.5v30.5h-9.8v3.9h22.8V316.1z"/>
	<path class="st3" d="M55.6,415.4h6.4v-22.2l-7,1.4V391l7-1.4H66v25.8h6.4v3.3H55.6V415.4z M81.1,415.4h6.4v-22.2l-7,1.4V391l7-1.4
		h3.9v25.8h6.4v3.3H81.1V415.4z M122,415.4h13.8v3.3h-18.5v-3.3c2-2.1,4.1-4.2,6.1-6.2c2.6-2.6,4.2-4.3,4.9-5.1
		c1.3-1.4,2.1-2.6,2.6-3.6c0.5-1,0.8-2,0.8-2.9c0-1.5-0.5-2.8-1.6-3.8c-1.1-1-2.5-1.5-4.2-1.5c-1.2,0-2.5,0.2-3.9,0.6
		c-1.4,0.4-2.8,1.1-4.4,2v-4c1.6-0.6,3.1-1.1,4.5-1.4c1.4-0.3,2.6-0.5,3.8-0.5c3,0,5.4,0.8,7.2,2.3c1.8,1.5,2.7,3.5,2.7,6.1
		c0,1.2-0.2,2.3-0.7,3.4c-0.4,1.1-1.3,2.3-2.4,3.8c-0.3,0.4-1.4,1.5-3.1,3.3C126.9,410.4,124.5,412.9,122,415.4L122,415.4z M156,403
		c1.9,0.4,3.4,1.2,4.4,2.5c1.1,1.3,1.6,2.8,1.6,4.7c0,2.9-1,5.1-3,6.7c-2,1.6-4.8,2.4-8.4,2.4c-1.2,0-2.5-0.1-3.8-0.4
		c-1.4-0.3-2.7-0.6-4-1.1v-3.8c1.1,0.6,2.3,1.1,3.6,1.4c1.3,0.3,2.7,0.5,4.1,0.5c2.5,0,4.4-0.5,5.6-1.5c1.3-1,2-2.4,2-4.3
		c0-1.7-0.6-3.1-1.8-4c-1.2-1-2.9-1.5-5-1.5h-3.4v-3.2h3.6c1.9,0,3.4-0.4,4.5-1.2c1-0.8,1.5-1.9,1.5-3.4c0-1.5-0.5-2.6-1.6-3.4
		c-1.1-0.8-2.6-1.2-4.6-1.2c-1.1,0-2.2,0.1-3.5,0.4c-1.2,0.2-2.6,0.6-4.1,1.1v-3.5c1.4-0.4,2.8-0.7,4.2-0.9c1.2-0.2,2.5-0.3,3.7-0.3
		c3,0,5.4,0.7,7.1,2c1.7,1.4,2.6,3.2,2.6,5.5c0,1.6-0.5,3-1.4,4.1C159,401.8,157.7,402.6,156,403L156,403z M182.3,389.6h15.5v3.3
		h-11.9v7.1c0.6-0.2,1.1-0.3,1.7-0.4c0.6-0.1,1.1-0.2,1.7-0.2c3.3,0,5.8,0.9,7.7,2.7c1.9,1.8,2.9,4.2,2.9,7.2c0,3.1-1,5.6-2.9,7.3
		c-2,1.7-4.7,2.6-8.3,2.6c-1.2,0-2.5-0.1-3.8-0.3c-1.3-0.2-2.6-0.5-3.9-0.9v-4c1.1,0.6,2.4,1.1,3.6,1.4c1.2,0.3,2.6,0.5,4,0.5
		c2.3,0,4-0.6,5.4-1.8s2-2.8,2-4.8c0-2-0.7-3.6-2-4.8c-1.3-1.2-3.1-1.8-5.4-1.8c-1.1,0-2.1,0.1-3.2,0.4c-1.1,0.3-2.2,0.6-3.2,1.1
		L182.3,389.6L182.3,389.6z M216.2,404.9c-1.9,0-3.4,0.5-4.4,1.5c-1.1,1-1.6,2.4-1.6,4.1s0.5,3.1,1.6,4.1c1.1,1,2.6,1.5,4.4,1.5
		c1.9,0,3.4-0.5,4.4-1.5c1.1-1,1.6-2.4,1.6-4.1c0-1.8-0.5-3.1-1.6-4.1C219.5,405.4,218.1,404.9,216.2,404.9L216.2,404.9z
		 M212.2,403.2c-1.7-0.4-3-1.2-4-2.4c-0.9-1.2-1.4-2.6-1.4-4.2c0-2.3,0.8-4.2,2.5-5.5c1.7-1.4,3.9-2,6.8-2c2.9,0,5.2,0.7,6.8,2
		c1.7,1.4,2.5,3.2,2.5,5.5c0,1.7-0.5,3.1-1.4,4.2c-0.9,1.2-2.2,1.9-3.9,2.4c1.9,0.4,3.4,1.3,4.4,2.6c1.1,1.3,1.6,2.9,1.6,4.7
		c0,2.8-0.9,5-2.6,6.5c-1.7,1.5-4.2,2.3-7.4,2.3s-5.7-0.8-7.4-2.3c-1.7-1.5-2.6-3.7-2.6-6.5c0-1.9,0.5-3.4,1.6-4.7
		C208.8,404.5,210.3,403.7,212.2,403.2L212.2,403.2z M210.8,397c0,1.5,0.5,2.7,1.4,3.5c0.9,0.8,2.3,1.3,4,1.3c1.7,0,3-0.4,4-1.3
		c1-0.8,1.4-2,1.4-3.5c0-1.5-0.5-2.7-1.4-3.5c-0.9-0.8-2.3-1.3-4-1.3c-1.7,0-3,0.4-4,1.3C211.3,394.3,210.8,395.5,210.8,397
		L210.8,397z"/>
	<path class="st4" d="M308.8,414.5h6.4v-22.2l-7,1.4V390l7-1.4h3.9v25.8h6.4v3.3h-16.8L308.8,414.5z M345.6,402
		c1.9,0.4,3.4,1.2,4.4,2.5c1.1,1.3,1.6,2.9,1.6,4.7c0,2.9-1,5.1-3,6.7c-2,1.6-4.8,2.4-8.4,2.4c-1.2,0-2.5-0.1-3.8-0.4
		c-1.4-0.3-2.7-0.6-4-1.1v-3.8c1.1,0.7,2.3,1.1,3.6,1.4c1.3,0.3,2.7,0.5,4.1,0.5c2.5,0,4.4-0.5,5.6-1.5c1.3-1,2-2.4,2-4.3
		c0-1.7-0.6-3.1-1.8-4c-1.2-1-2.9-1.5-5-1.5h-3.4v-3.2h3.6c1.9,0,3.4-0.4,4.5-1.2c1-0.8,1.5-1.9,1.5-3.4c0-1.5-0.5-2.6-1.6-3.4
		c-1.1-0.8-2.6-1.2-4.5-1.2c-1.1,0-2.2,0.1-3.5,0.3c-1.2,0.2-2.6,0.6-4.1,1.1v-3.5c1.4-0.4,2.8-0.7,4.2-0.9c1.2-0.2,2.5-0.3,3.7-0.3
		c3,0,5.4,0.7,7.1,2c1.7,1.4,2.6,3.2,2.6,5.5c0,1.6-0.5,3-1.4,4.1C348.6,400.9,347.3,401.6,345.6,402L345.6,402z M362.5,414.5h13.8
		v3.3h-18.5v-3.3c2-2.1,4.1-4.2,6.1-6.2c2.6-2.6,4.2-4.3,4.9-5.1c1.3-1.4,2.1-2.6,2.6-3.6c0.5-1,0.8-2,0.8-2.9
		c0-1.5-0.5-2.8-1.6-3.8c-1.1-1-2.5-1.5-4.2-1.5c-1.2,0-2.5,0.2-3.9,0.6c-1.4,0.4-2.8,1.1-4.4,2v-4c1.6-0.6,3.1-1.1,4.5-1.4
		c1.4-0.3,2.6-0.5,3.8-0.5c3,0,5.4,0.8,7.2,2.3c1.8,1.5,2.7,3.5,2.7,6.1c0,1.2-0.2,2.3-0.7,3.4c-0.4,1.1-1.3,2.3-2.4,3.8
		c-0.3,0.4-1.4,1.5-3.1,3.3C367.4,409.4,365,411.9,362.5,414.5L362.5,414.5z M385.2,414.5h6.4v-22.2l-7,1.4V390l7-1.4h3.9v25.8h6.4
		v3.3h-16.8L385.2,414.5z M434.7,402c1.9,0.4,3.4,1.2,4.4,2.5c1.1,1.3,1.6,2.9,1.6,4.7c0,2.9-1,5.1-3,6.7c-2,1.6-4.8,2.4-8.4,2.4
		c-1.2,0-2.5-0.1-3.8-0.4c-1.4-0.3-2.7-0.6-4-1.1v-3.8c1.1,0.7,2.3,1.1,3.6,1.4c1.3,0.3,2.7,0.5,4.1,0.5c2.5,0,4.4-0.5,5.6-1.5
		c1.3-1,2-2.4,2-4.3c0-1.7-0.6-3.1-1.8-4c-1.2-1-2.9-1.5-5-1.5h-3.4v-3.2h3.6c1.9,0,3.4-0.4,4.5-1.2c1-0.8,1.5-1.9,1.5-3.4
		c0-1.5-0.5-2.6-1.6-3.4c-1.1-0.8-2.6-1.2-4.6-1.2c-1.1,0-2.2,0.1-3.5,0.3c-1.2,0.2-2.6,0.6-4.1,1.1v-3.5c1.4-0.4,2.8-0.7,4.2-0.9
		c1.2-0.2,2.5-0.3,3.7-0.3c3,0,5.4,0.7,7.1,2c1.7,1.4,2.6,3.2,2.6,5.5c0,1.6-0.5,3-1.4,4.1C437.7,400.9,436.4,401.6,434.7,402
		L434.7,402z M459.1,392l-10,15.6h10V392L459.1,392z M458,388.6h5v19h4.2v3.3H463v6.9h-3.9v-6.9h-13.2v-3.8L458,388.6L458,388.6z
		 M473.7,388.6h15.5v3.3h-11.9v7.1c0.6-0.2,1.1-0.3,1.7-0.4c0.6-0.1,1.1-0.2,1.7-0.2c3.3,0,5.8,0.9,7.7,2.7c1.9,1.8,2.9,4.2,2.9,7.2
		c0,3.1-1,5.6-2.9,7.3c-2,1.7-4.7,2.6-8.3,2.6c-1.2,0-2.5-0.1-3.8-0.3c-1.3-0.2-2.6-0.5-3.9-0.9v-4c1.1,0.6,2.4,1.1,3.6,1.4
		c1.2,0.3,2.6,0.5,4,0.5c2.3,0,4-0.6,5.4-1.8s2-2.8,2-4.8s-0.7-3.6-2-4.8c-1.3-1.2-3.1-1.8-5.4-1.8c-1.1,0-2.1,0.1-3.2,0.4
		c-1.1,0.3-2.2,0.6-3.2,1.1V388.6z M499.2,388.6h15.5v3.3h-11.9v7.1c0.6-0.2,1.1-0.3,1.7-0.4c0.6-0.1,1.1-0.2,1.7-0.2
		c3.3,0,5.8,0.9,7.7,2.7s2.9,4.2,2.9,7.2c0,3.1-1,5.6-2.9,7.3c-2,1.7-4.7,2.6-8.3,2.6c-1.2,0-2.5-0.1-3.8-0.3
		c-1.3-0.2-2.6-0.5-3.9-0.9v-4c1.1,0.6,2.4,1.1,3.6,1.4c1.2,0.3,2.6,0.5,4,0.5c2.3,0,4-0.6,5.4-1.8c1.3-1.2,2-2.8,2-4.8
		s-0.7-3.6-2-4.8c-1.3-1.2-3.1-1.8-5.4-1.8c-1.1,0-2.1,0.1-3.2,0.4c-1.1,0.3-2.2,0.6-3.2,1.1L499.2,388.6L499.2,388.6z"/>
</g>
<path class="st2" d="M745.3,250.5V248H742v-7.4h-2.8l-0.3,7.4h-7.5l7-16.5l-2.6-1.1l-7.7,17.8v2.3h10.8v6.4h3.1v-6.4L745.3,250.5
	L745.3,250.5z M714.5,230.4c-2.6,0-5.2,0.9-7.4,3l1.7,1.9c1.7-1.6,3.3-2.4,5.5-2.4c2.8,0,5,1.6,5,4.4c0,3.1-2.5,4.6-5,4.6h-1.6
	l-0.4,2.5h2.2c3.1,0,5.4,1.2,5.4,5c0,3.3-2.2,5.3-5.8,5.3c-2.1,0-4.3-0.9-5.8-2.6l-2.1,1.7c2,2.4,5.1,3.4,8,3.4c5.4,0,9-3.4,9-7.9
	c0-4-2.9-6.2-5.9-6.4c2.8-0.5,5.1-2.9,5.1-6C722.5,233.4,719.4,230.4,714.5,230.4L714.5,230.4L714.5,230.4z M691.9,230.4
	c-3.5,0-5.9,1.2-7.9,3.7l2.2,1.7c1.7-1.9,3.1-2.8,5.6-2.8c2.9,0,4.7,1.8,4.7,4.7c0,4.3-2.1,7.1-11.9,16.5v2.6H700l0.4-2.7h-12.3
	c8.6-7.8,11.6-11.7,11.6-16.5C699.8,233.5,696.9,230.4,691.9,230.4L691.9,230.4z M678.1,254.3h-5.4v-23.4h-2.8l-7.7,4.8l1.4,2.2
	l6-3.6v20h-6.4v2.6h15V254.3L678.1,254.3z"/>
</svg>
