<?xml version="1.0" encoding="UTF-8"?><svg id="a" xmlns="http://www.w3.org/2000/svg" width="780" height="500" viewBox="0 0 780 500"><path d="M40,0H740c22.1,0,40,17.9,40,40V460c0,22.1-17.9,40-40,40H40c-22.1,0-40-17.9-40-40V40C0,17.9,17.9,0,40,0Z" style="fill:#393939;"/><g><path d="M69,153.6h69.7c11.2,0,20.3,9.1,20.3,20.3v59c0,11.2-9.1,20.3-20.3,20.3H69c-11.2,0-20.3-9.1-20.3-20.3v-59c0-11.2,9.1-20.3,20.3-20.3Z" style="fill:rgba(255,255,255,.75);"/><path d="M78.1,310.4v-3.8h-5.1v-11.3h-4.2l-.4,11.3h-11.5l10.6-25.1-4-1.7-11.7,27.1v3.5h16.4v9.7h4.8v-9.7h5.1Zm19.6-30.6c-4,0-7.9,1.4-11.2,4.6l2.6,2.9c2.6-2.5,5-3.7,8.4-3.7,4.2,0,7.5,2.4,7.5,6.7,0,4.8-3.7,7-7.5,7h-2.4l-.6,3.8h3.3c4.7,0,8.2,1.8,8.2,7.5,0,4.9-3.3,8.1-8.9,8.1-3.2,0-6.6-1.3-8.8-4l-3.2,2.6c3,3.7,7.7,5.2,12.1,5.2,8.2,0,13.7-5.2,13.7-12,0-6.2-4.4-9.4-9-9.7,4.2-.8,7.8-4.4,7.8-9.2,.1-5.3-4.6-9.8-12-9.8h0Zm34.5,0c-5.3,0-8.9,1.9-12.1,5.7l3.3,2.5c2.5-2.9,4.7-4.2,8.6-4.2,4.4,0,7.1,2.8,7.1,7.2,0,6.5-3.2,10.8-18.2,25.1v3.9h23.5l.6-4.1h-18.6c13.1-11.9,17.7-17.8,17.7-25.1,0-6.2-4.5-11-11.9-11h0Zm48.7,36.3h-8.3v-35.7h-4.2l-11.7,7.2,2.1,3.4,9.1-5.5v30.5h-9.8v3.9h22.8v-3.8Zm69.6-5.7v-3.8h-5.1v-11.3h-4.2l-.4,11.3h-11.4l10.6-25.1-4-1.7-11.7,27.1v3.5h16.4v9.7h4.7v-9.7h5.1Zm19.6-30.6c-4,0-7.9,1.4-11.2,4.6l2.6,2.9c2.6-2.5,5-3.7,8.4-3.7,4.2,0,7.5,2.4,7.5,6.7,0,4.8-3.7,7-7.5,7h-2.4l-.6,3.8h3.3c4.7,0,8.2,1.8,8.2,7.5,0,4.9-3.3,8.1-8.9,8.1-3.2,0-6.6-1.3-8.8-4l-3.2,2.6c3,3.7,7.7,5.2,12.1,5.2,8.2,0,13.7-5.2,13.7-12,0-6.2-4.4-9.4-9-9.7,4.2-.8,7.8-4.4,7.8-9.2,.1-5.3-4.6-9.8-12-9.8h0Zm34.5,0c-5.3,0-8.9,1.9-12.1,5.7l3.3,2.5c2.5-2.9,4.7-4.2,8.6-4.2,4.4,0,7.1,2.8,7.1,7.2,0,6.5-3.2,10.8-18.2,25.1v3.9h23.5l.6-4.1h-18.6c13.1-11.9,17.7-17.8,17.7-25.1,0-6.2-4.5-11-11.9-11h0Zm48.7,36.3h-8.3v-35.7h-4.2l-11.7,7.2,2.1,3.4,9.1-5.5v30.5h-9.8v3.9h22.8v-3.8Zm69.6-5.7v-3.8h-5.1v-11.3h-4.2l-.4,11.3h-11.4l10.6-25.1-4-1.7-11.7,27.1v3.5h16.4v9.7h4.7v-9.7h5.1Zm19.6-30.6c-4,0-7.9,1.4-11.2,4.6l2.6,2.9c2.6-2.5,5-3.7,8.4-3.7,4.2,0,7.5,2.4,7.5,6.7,0,4.8-3.7,7-7.5,7h-2.4l-.6,3.8h3.3c4.7,0,8.2,1.8,8.2,7.5,0,4.9-3.3,8.1-8.9,8.1-3.2,0-6.6-1.3-8.8-4l-3.2,2.6c3,3.7,7.7,5.2,12.1,5.2,8.2,0,13.7-5.2,13.7-12,0-6.2-4.4-9.4-9-9.7,4.2-.8,7.8-4.4,7.8-9.2,.1-5.3-4.6-9.8-12-9.8h0Zm34.4,0c-5.3,0-8.9,1.9-12.1,5.7l3.3,2.5c2.5-2.9,4.7-4.2,8.6-4.2,4.4,0,7.1,2.8,7.1,7.2,0,6.5-3.2,10.8-18.2,25.1v3.9h23.5l.6-4.1h-18.6c13.1-11.9,17.7-17.8,17.7-25.1,0-6.2-4.4-11-11.9-11h0Zm48.8,36.3h-8.3v-35.7h-4.2l-11.7,7.2,2.1,3.4,9.1-5.5v30.5h-9.8v3.9h22.8v-3.8Zm69.6-5.7v-3.8h-5.1v-11.3h-4.2l-.4,11.3h-11.4l10.6-25.1-4-1.7-11.8,27.1v3.5h16.4v9.7h4.7v-9.7h5.2Zm19.5-30.6c-4,0-7.9,1.4-11.2,4.6l2.6,2.9c2.6-2.5,5-3.7,8.4-3.7,4.2,0,7.5,2.4,7.5,6.7,0,4.8-3.7,7-7.5,7h-2.4l-.6,3.8h3.3c4.7,0,8.2,1.8,8.2,7.5,0,4.9-3.3,8.1-8.9,8.1-3.2,0-6.6-1.3-8.8-4l-3.2,2.6c3,3.7,7.7,5.2,12.1,5.2,8.2,0,13.7-5.2,13.7-12,0-6.2-4.4-9.4-9-9.7,4.2-.8,7.8-4.4,7.8-9.2,.2-5.3-4.5-9.8-12-9.8h0Zm34.5,0c-5.3,0-8.9,1.9-12.1,5.7l3.3,2.5c2.5-2.9,4.7-4.2,8.6-4.2,4.4,0,7.1,2.8,7.1,7.2,0,6.5-3.2,10.8-18.2,25.1v3.9h23.5l.6-4.1h-18.6c13.1-11.9,17.7-17.8,17.7-25.1,0-6.2-4.4-11-11.9-11h0Zm48.8,36.3h-8.3v-35.7h-4.2l-11.7,7.2,2.1,3.4,9.1-5.5v30.5h-9.8v3.9h22.8v-3.8h0Z" style="fill:#fff;"/><path d="M55.6,415.4h6.4v-22.2l-7,1.4v-3.6l7-1.4h4v25.8h6.4v3.3h-16.8v-3.3Zm25.5,0h6.4v-22.2l-7,1.4v-3.6l7-1.4h3.9v25.8h6.4v3.3h-16.7v-3.3Zm40.9,0h13.8v3.3h-18.5v-3.3c2-2.1,4.1-4.2,6.1-6.2,2.6-2.6,4.2-4.3,4.9-5.1,1.3-1.4,2.1-2.6,2.6-3.6s.8-2,.8-2.9c0-1.5-.5-2.8-1.6-3.8s-2.5-1.5-4.2-1.5c-1.2,0-2.5,.2-3.9,.6s-2.8,1.1-4.4,2v-4c1.6-.6,3.1-1.1,4.5-1.4s2.6-.5,3.8-.5c3,0,5.4,.8,7.2,2.3s2.7,3.5,2.7,6.1c0,1.2-.2,2.3-.7,3.4-.4,1.1-1.3,2.3-2.4,3.8-.3,.4-1.4,1.5-3.1,3.3-2.7,2.5-5.1,5-7.6,7.5h0Zm34-12.4c1.9,.4,3.4,1.2,4.4,2.5,1.1,1.3,1.6,2.8,1.6,4.7,0,2.9-1,5.1-3,6.7s-4.8,2.4-8.4,2.4c-1.2,0-2.5-.1-3.8-.4-1.4-.3-2.7-.6-4-1.1v-3.8c1.1,.6,2.3,1.1,3.6,1.4s2.7,.5,4.1,.5c2.5,0,4.4-.5,5.6-1.5,1.3-1,2-2.4,2-4.3,0-1.7-.6-3.1-1.8-4-1.2-1-2.9-1.5-5-1.5h-3.4v-3.2h3.6c1.9,0,3.4-.4,4.5-1.2,1-.8,1.5-1.9,1.5-3.4s-.5-2.6-1.6-3.4-2.6-1.2-4.6-1.2c-1.1,0-2.2,.1-3.5,.4-1.2,.2-2.6,.6-4.1,1.1v-3.5c1.4-.4,2.8-.7,4.2-.9,1.2-.2,2.5-.3,3.7-.3,3,0,5.4,.7,7.1,2,1.7,1.4,2.6,3.2,2.6,5.5,0,1.6-.5,3-1.4,4.1-.9,1.2-2.2,2-3.9,2.4h0Zm26.3-13.4h15.5v3.3h-11.9v7.1c.6-.2,1.1-.3,1.7-.4,.6-.1,1.1-.2,1.7-.2,3.3,0,5.8,.9,7.7,2.7,1.9,1.8,2.9,4.2,2.9,7.2s-1,5.6-2.9,7.3c-2,1.7-4.7,2.6-8.3,2.6-1.2,0-2.5-.1-3.8-.3-1.3-.2-2.6-.5-3.9-.9v-4c1.1,.6,2.4,1.1,3.6,1.4,1.2,.3,2.6,.5,4,.5,2.3,0,4-.6,5.4-1.8s2-2.8,2-4.8-.7-3.6-2-4.8c-1.3-1.2-3.1-1.8-5.4-1.8-1.1,0-2.1,.1-3.2,.4-1.1,.3-2.2,.6-3.2,1.1l.1-14.6h0Zm33.9,15.3c-1.9,0-3.4,.5-4.4,1.5-1.1,1-1.6,2.4-1.6,4.1s.5,3.1,1.6,4.1,2.6,1.5,4.4,1.5c1.9,0,3.4-.5,4.4-1.5,1.1-1,1.6-2.4,1.6-4.1,0-1.8-.5-3.1-1.6-4.1-1.1-1-2.5-1.5-4.4-1.5h0Zm-4-1.7c-1.7-.4-3-1.2-4-2.4-.9-1.2-1.4-2.6-1.4-4.2,0-2.3,.8-4.2,2.5-5.5,1.7-1.4,3.9-2,6.8-2s5.2,.7,6.8,2c1.7,1.4,2.5,3.2,2.5,5.5,0,1.7-.5,3.1-1.4,4.2-.9,1.2-2.2,1.9-3.9,2.4,1.9,.4,3.4,1.3,4.4,2.6,1.1,1.3,1.6,2.9,1.6,4.7,0,2.8-.9,5-2.6,6.5-1.7,1.5-4.2,2.3-7.4,2.3s-5.7-.8-7.4-2.3-2.6-3.7-2.6-6.5c0-1.9,.5-3.4,1.6-4.7,1.1-1.3,2.6-2.1,4.5-2.6h0Zm-1.4-6.2c0,1.5,.5,2.7,1.4,3.5s2.3,1.3,4,1.3,3-.4,4-1.3c1-.8,1.4-2,1.4-3.5s-.5-2.7-1.4-3.5-2.3-1.3-4-1.3-3,.4-4,1.3c-.9,.8-1.4,2-1.4,3.5h0Z" style="fill:rgba(255,255,255,.76);"/><path d="M308.8,414.5h6.4v-22.2l-7,1.4v-3.7l7-1.4h3.9v25.8h6.4v3.3h-16.8l.1-3.2Zm36.8-12.5c1.9,.4,3.4,1.2,4.4,2.5,1.1,1.3,1.6,2.9,1.6,4.7,0,2.9-1,5.1-3,6.7s-4.8,2.4-8.4,2.4c-1.2,0-2.5-.1-3.8-.4-1.4-.3-2.7-.6-4-1.1v-3.8c1.1,.7,2.3,1.1,3.6,1.4,1.3,.3,2.7,.5,4.1,.5,2.5,0,4.4-.5,5.6-1.5,1.3-1,2-2.4,2-4.3,0-1.7-.6-3.1-1.8-4-1.2-1-2.9-1.5-5-1.5h-3.4v-3.2h3.6c1.9,0,3.4-.4,4.5-1.2,1-.8,1.5-1.9,1.5-3.4s-.5-2.6-1.6-3.4-2.6-1.2-4.5-1.2c-1.1,0-2.2,.1-3.5,.3-1.2,.2-2.6,.6-4.1,1.1v-3.5c1.4-.4,2.8-.7,4.2-.9,1.2-.2,2.5-.3,3.7-.3,3,0,5.4,.7,7.1,2,1.7,1.4,2.6,3.2,2.6,5.5,0,1.6-.5,3-1.4,4.1-1,1.4-2.3,2.1-4,2.5h0Zm16.9,12.5h13.8v3.3h-18.5v-3.3c2-2.1,4.1-4.2,6.1-6.2,2.6-2.6,4.2-4.3,4.9-5.1,1.3-1.4,2.1-2.6,2.6-3.6s.8-2,.8-2.9c0-1.5-.5-2.8-1.6-3.8s-2.5-1.5-4.2-1.5c-1.2,0-2.5,.2-3.9,.6s-2.8,1.1-4.4,2v-4c1.6-.6,3.1-1.1,4.5-1.4s2.6-.5,3.8-.5c3,0,5.4,.8,7.2,2.3,1.8,1.5,2.7,3.5,2.7,6.1,0,1.2-.2,2.3-.7,3.4-.4,1.1-1.3,2.3-2.4,3.8-.3,.4-1.4,1.5-3.1,3.3-2.7,2.4-5.1,4.9-7.6,7.5h0Zm22.7,0h6.4v-22.2l-7,1.4v-3.7l7-1.4h3.9v25.8h6.4v3.3h-16.8l.1-3.2Zm49.5-12.5c1.9,.4,3.4,1.2,4.4,2.5,1.1,1.3,1.6,2.9,1.6,4.7,0,2.9-1,5.1-3,6.7s-4.8,2.4-8.4,2.4c-1.2,0-2.5-.1-3.8-.4-1.4-.3-2.7-.6-4-1.1v-3.8c1.1,.7,2.3,1.1,3.6,1.4,1.3,.3,2.7,.5,4.1,.5,2.5,0,4.4-.5,5.6-1.5,1.3-1,2-2.4,2-4.3,0-1.7-.6-3.1-1.8-4-1.2-1-2.9-1.5-5-1.5h-3.4v-3.2h3.6c1.9,0,3.4-.4,4.5-1.2,1-.8,1.5-1.9,1.5-3.4s-.5-2.6-1.6-3.4-2.6-1.2-4.6-1.2c-1.1,0-2.2,.1-3.5,.3-1.2,.2-2.6,.6-4.1,1.1v-3.5c1.4-.4,2.8-.7,4.2-.9,1.2-.2,2.5-.3,3.7-.3,3,0,5.4,.7,7.1,2,1.7,1.4,2.6,3.2,2.6,5.5,0,1.6-.5,3-1.4,4.1-.9,1.4-2.2,2.1-3.9,2.5h0Zm24.4-10l-10,15.6h10v-15.6h0Zm-1.1-3.4h5v19h4.2v3.3h-4.2v6.9h-3.9v-6.9h-13.2v-3.8l12.1-18.5h0Zm15.7,0h15.5v3.3h-11.9v7.1c.6-.2,1.1-.3,1.7-.4s1.1-.2,1.7-.2c3.3,0,5.8,.9,7.7,2.7,1.9,1.8,2.9,4.2,2.9,7.2s-1,5.6-2.9,7.3c-2,1.7-4.7,2.6-8.3,2.6-1.2,0-2.5-.1-3.8-.3-1.3-.2-2.6-.5-3.9-.9v-4c1.1,.6,2.4,1.1,3.6,1.4s2.6,.5,4,.5c2.3,0,4-.6,5.4-1.8s2-2.8,2-4.8-.7-3.6-2-4.8c-1.3-1.2-3.1-1.8-5.4-1.8-1.1,0-2.1,.1-3.2,.4s-2.2,.6-3.2,1.1v-14.6h.1Zm25.5,0h15.5v3.3h-11.9v7.1c.6-.2,1.1-.3,1.7-.4s1.1-.2,1.7-.2c3.3,0,5.8,.9,7.7,2.7s2.9,4.2,2.9,7.2-1,5.6-2.9,7.3c-2,1.7-4.7,2.6-8.3,2.6-1.2,0-2.5-.1-3.8-.3-1.3-.2-2.6-.5-3.9-.9v-4c1.1,.6,2.4,1.1,3.6,1.4s2.6,.5,4,.5c2.3,0,4-.6,5.4-1.8,1.3-1.2,2-2.8,2-4.8s-.7-3.6-2-4.8c-1.3-1.2-3.1-1.8-5.4-1.8-1.1,0-2.1,.1-3.2,.4s-2.2,.6-3.2,1.1l.1-14.6h0Z" style="fill:rgba(255,255,255,.78);"/></g><path d="M745.3,250.5v-2.5h-3.3v-7.4h-2.8l-.3,7.4h-7.5l7-16.5-2.6-1.1-7.7,17.8v2.3h10.8v6.4h3.1v-6.4h3.3Zm-30.8-20.1c-2.6,0-5.2,.9-7.4,3l1.7,1.9c1.7-1.6,3.3-2.4,5.5-2.4,2.8,0,5,1.6,5,4.4,0,3.1-2.5,4.6-5,4.6h-1.6l-.4,2.5h2.2c3.1,0,5.4,1.2,5.4,5,0,3.3-2.2,5.3-5.8,5.3-2.1,0-4.3-.9-5.8-2.6l-2.1,1.7c2,2.4,5.1,3.4,8,3.4,5.4,0,9-3.4,9-7.9,0-4-2.9-6.2-5.9-6.4,2.8-.5,5.1-2.9,5.1-6,.1-3.5-3-6.5-7.9-6.5h0Zm-22.6,0c-3.5,0-5.9,1.2-7.9,3.7l2.2,1.7c1.7-1.9,3.1-2.8,5.6-2.8,2.9,0,4.7,1.8,4.7,4.7,0,4.3-2.1,7.1-11.9,16.5v2.6h15.4l.4-2.7h-12.3c8.6-7.8,11.6-11.7,11.6-16.5,.1-4.1-2.8-7.2-7.8-7.2h0Zm-13.8,23.9h-5.4v-23.4h-2.8l-7.7,4.8,1.4,2.2,6-3.6v20h-6.4v2.6h15v-2.6h-.1Z" style="fill:#fff;"/></svg>