<?xml version="1.0" encoding="utf-8"?>
<!-- Generator: Adobe Illustrator 22.0.1, SVG Export Plug-In . SVG Version: 6.00 Build 0)  -->
<svg version="1.1" id="Layer_1" xmlns="http://www.w3.org/2000/svg" xmlns:xlink="http://www.w3.org/1999/xlink" x="0px" y="0px"
	 viewBox="0 0 780 500" style="enable-background:new 0 0 780 500;" xml:space="preserve">
<style type="text/css">
	.st0{fill:#393939;}
</style>
<g>
	<path class="st0" d="M392,217c-28.2,0-23.7,37.3-23.5,56.8c0,4.2,0.3,8.3,0.4,12.5h19.8c19.9,0,28.9-12.7,28.9-26
		C417.6,247,416.6,217,392,217z"/>
	<path class="st0" d="M725,0H55C24.7,0,0,24.7,0,55v391c0,30.3,24.7,55,55,55h670c30.3,0,55-24.7,55-55V55C780,24.7,755.3,0,725,0z
		 M285.5,133.9c11.2,0,20.3,9.1,20.3,20.3c0,11.2-9.1,20.3-20.3,20.3c-11.2,0-20.3-9.1-20.3-20.3C265.2,143,274.3,133.9,285.5,133.9
		z M245.4,315.9h-39.5v-73.2h-65.2v73.2H101v-175h39.7v67.2h65.2v-67.2h39.5V315.9z M388.7,317.4h-19.2c0.2,16.2,0.2,32.5,0.2,48.8
		h-40.6c0-15.6,0.1-32,0.2-48.8c-43.9-0.2-64.1-28-64.1-57v-71.6h40.6v71.6c0,13.3,7.4,26,23.7,26c0.1-32.2,0-65.4-1.1-97.6h33.9
		c0.7,6.2,1.4,12.4,2,18.6c16-32,66.5-25,83.5,2.1C465.3,237.4,471.3,317.4,388.7,317.4z M587.2,265h-81.8
		c1.3,16.4,17.4,24.1,35.8,24.1c13.5,0,24.4-1.8,35.1-5.2l5.2,26.7c-13,5.2-28.8,7.8-46,7.8c-43.1,0-67.8-24.9-67.8-64.7
		c0-32.2,20-67.8,64.1-67.8c41,0,56.6,31.9,56.6,63.4C588.5,256.2,587.7,262.2,587.2,265z M679,223.7c-2.9-0.5-6.2-1-10.6-1
		c-14.5,0-24.4,7.8-27,20c-0.5,2.6-0.8,5.7-0.8,8.8v64.4h-39.5v-85.2c0-18.7-0.5-30.9-1-41.8h34l1.3,23.4h1
		c6.5-18.4,22.1-26.2,34.3-26.2c3.6,0,5.5,0,8.3,0.5V223.7z"/>
	<path class="st0" d="M529.5,212.3c-16.6,0-23.4,15.1-24.4,25.7h46.7C551.8,228.4,547.7,212.3,529.5,212.3z"/>
</g>
</svg>
