<svg width="780" height="500" enable-background="new 0 0 780 500" version="1.1" viewBox="0 0 780 500" xml:space="preserve" xmlns="http://www.w3.org/2000/svg"><path d="m725 0h-670c-30.327 0-55 24.673-55 55v391c0 30.327 24.673 55 55 55h670c30.325 0 55-24.673 55-55v-391c0-30.327-24.675-55-55-55zm7.973 101.89c0 0.379-0.46 2.838-1.021 5.464-0.709 3.323-1.405 6.648-2.088 9.977-0.588 2.861-1.441 6.997-1.901 9.19-0.65 3.12-1.295 6.241-1.933 9.363-0.604 2.957-1.532 7.483-2.063 10.057-0.531 2.575-1.392 6.789-1.912 9.363-0.52 2.576-1.386 6.789-1.923 9.364-0.626 3.004-1.244 6.01-1.854 9.017-0.481 2.384-1.353 6.675-1.936 9.536-0.584 2.861-1.521 7.387-2.083 10.057s-1.418 6.806-1.902 9.19c-0.485 2.384-1.356 6.675-1.938 9.536s-1.517 7.387-2.079 10.058c-0.562 2.67-1.398 6.727-1.861 9.016-1.283 6.359-2.575 12.717-3.874 19.074-0.47 2.288-1.307 6.347-1.86 9.015-0.709 3.409-1.411 6.819-2.108 10.231-0.605 2.957-1.471 7.169-1.923 9.364-0.454 2.192-1.301 6.327-1.885 9.188-0.684 3.354-1.371 6.705-2.063 10.057-0.551 2.671-1.415 6.885-1.921 9.365-0.504 2.479-1.383 6.771-1.95 9.535-0.568 2.766-1.497 7.291-2.062 10.057-0.566 2.766-1.414 6.902-1.885 9.191-0.642 3.119-1.278 6.24-1.912 9.362-0.683 3.343-1.383 6.683-2.102 10.019l-1.044 4.817-1.244 3.332c-0.684 1.833-1.713 4.269-2.287 5.414-0.571 1.144-1.738 3.163-2.592 4.487-0.854 1.322-2.044 3.018-2.644 3.767-0.601 0.749-2.407 2.683-4.018 4.299l-2.923 2.935-2.814 2c-1.548 1.101-3.217 2.22-3.705 2.486-0.49 0.268-2.355 1.221-4.146 2.115-1.789 0.896-4.317 2.037-5.617 2.534-1.3 0.499-3.875 1.346-5.722 1.883-1.847 0.539-3.827 1.069-4.398 1.179-0.573 0.109-2.559 0.52-4.414 0.914-1.855 0.393-5.601 0.979-8.322 1.303l-4.95 0.59-286.53 0.102-286.53 0.104v-0.69c0-0.379 0.457-2.838 1.015-5.465 0.559-2.626 1.427-6.804 1.931-9.283 0.502-2.479 1.362-6.692 1.909-9.364 1.346-6.527 2.676-13.058 3.989-19.592 0.517-2.576 1.378-6.79 1.916-9.363 0.686-3.293 1.364-6.588 2.037-9.884 0.582-2.86 1.467-7.231 1.967-9.711s1.294-6.303 1.765-8.495c0.47-2.193 1.071-5.158 1.333-6.59 0.263-1.43 1.114-5.645 1.891-9.363 0.654-3.117 1.29-6.238 1.905-9.363 0.271-1.43 1.132-5.645 1.914-9.363 0.781-3.718 1.639-7.932 1.907-9.363 0.268-1.43 1.131-5.644 1.917-9.363 0.788-3.72 1.638-7.854 1.888-9.189 0.252-1.335 0.94-4.769 1.53-7.629 0.589-2.861 1.705-8.245 2.479-11.964 0.775-3.72 2.099-10.196 2.942-14.393 0.845-4.196 1.854-9.189 2.243-11.096 1.143-5.608 2.296-11.215 3.461-16.819 0.574-2.767 1.507-7.292 2.074-10.058 0.568-2.765 1.442-7.057 1.943-9.536 0.501-2.48 1.356-6.615 1.9-9.19s1.48-7.101 2.08-10.057c0.6-2.957 1.605-7.482 2.233-10.057s1.516-5.696 1.974-6.935c0.457-1.241 1.72-3.927 2.806-5.973l1.975-3.717 1.795-2.352c0.986-1.292 2.749-3.335 3.916-4.539s3.135-3.016 4.376-4.026c1.239-1.011 3.034-2.375 3.987-3.031 0.954-0.656 2.827-1.805 4.162-2.553s3.209-1.727 4.162-2.176c0.954-0.449 2.905-1.27 4.335-1.823 1.43-0.552 4.161-1.479 6.068-2.058 1.907-0.58 5.488-1.454 7.957-1.941 2.469-0.488 6.369-1.14 8.67-1.449l4.181-0.562 286.71-0.108 286.71-0.111v0.687z" fill="#393939"/><path d="m266.61 285.31l5.886-2.002 1.271-0.949c0.848-0.64 1.676-1.304 2.484-1.991 0.668-0.572 1.791-1.848 2.495-2.83s1.931-3.021 2.727-4.529l1.448-2.742 1.181-3.389c0.65-1.862 1.582-5.14 2.072-7.281l0.89-3.896 0.178-6.589 0.178-6.59-0.581-2.229c-0.319-1.226-0.946-2.949-1.393-3.83l-0.81-1.601-1.505-1.512-1.504-1.512-1.793-0.826-1.794-0.826-2.541-0.541-2.542-0.542-6.242 0.366-2.428 0.752-2.427 0.751-1.86 1.056c-1.024 0.58-2.756 1.8-3.85 2.709l-1.988 1.654-0.907 4.8c-0.499 2.639-1.389 7.531-1.976 10.869-0.632 3.587-1.286 7.17-1.96 10.75l-0.893 4.683-0.178 2.987-0.177 2.989 0.442 1.865c0.243 1.027 0.79 2.647 1.217 3.602l0.775 1.734 1.343 1.281 1.342 1.282 1.923 0.878 1.922 0.877 1.893 0.334 1.892 0.336 5.79-0.348z" fill="#393939"/><path d="m510.16 285.05l2.812-0.889 2.813-0.891 1.277-0.866c0.703-0.477 1.404-0.868 1.558-0.868s1.217-0.927 2.359-2.059l2.079-2.061 1.267-2.127c0.696-1.17 1.267-2.221 1.267-2.338 0-0.115 0.461-1.392 1.024-2.836 0.562-1.443 1.421-4.105 1.906-5.919 0.487-1.812 1.093-4.519 1.347-6.015l0.461-2.722-0.548-0.227-0.549-0.227h-17.34l-2.774 0.658-2.774 0.66-2.231 1.074-2.232 1.075-2.102 2.088-2.104 2.087-1.098 2.267c-0.604 1.246-1.363 3.178-1.687 4.289l-0.588 2.022 0.147 3.334 0.145 3.333 0.743 1.428c0.409 0.785 1.129 1.885 1.6 2.446l0.858 1.019 1.569 0.808c0.863 0.444 2.397 1.019 3.407 1.274l1.838 0.47 2.774-0.146 2.776-0.141z" fill="#393939"/><path d="m359.72 246.16l0.366-3.382 0.367-3.381-0.321-2.032-0.32-2.032-0.483-0.916c-0.268-0.503-0.964-1.43-1.547-2.059l-1.062-1.145-1.936-0.886-1.936-0.886-2.662-0.342-2.664-0.343-3.469 0.223c-1.907 0.121-4.091 0.381-4.855 0.577-0.762 0.196-2.4 0.842-3.64 1.435l-2.255 1.077-2.294 2.283-2.293 2.281-1.045 2.077c-0.573 1.142-1.453 3.216-1.953 4.61-0.501 1.395-0.911 2.605-0.911 2.688 0 0.085 7.855 0.153 17.455 0.153h17.458z" fill="#393939"/><path d="m443.21 110.45l-269.54 0.101-3.931 0.528c-2.163 0.291-5.83 0.904-8.151 1.363-2.321 0.458-5.688 1.279-7.481 1.824-1.792 0.545-4.36 1.416-5.704 1.935-1.345 0.52-3.179 1.292-4.076 1.714-0.896 0.422-2.657 1.343-3.912 2.046-1.256 0.703-3.016 1.783-3.913 2.4-0.896 0.617-2.584 1.899-3.749 2.849-1.166 0.95-3.016 2.653-4.114 3.785-1.097 1.132-2.754 3.053-3.681 4.268l-1.688 2.211-1.856 3.494c-1.021 1.924-2.209 4.449-2.638 5.616-0.431 1.164-1.266 4.099-1.856 6.519-0.75 3.14-1.45 6.292-2.099 9.455-0.565 2.779-1.444 7.034-1.956 9.455-0.605 2.878-1.201 5.758-1.786 8.64-0.471 2.33-1.293 6.365-1.827 8.965-0.533 2.6-1.41 6.854-1.95 9.456-0.539 2.599-1.342 6.487-1.785 8.638-0.443 2.152-1.104 5.381-1.468 7.174-0.366 1.792-1.315 6.486-2.109 10.431-0.909 4.513-1.831 9.023-2.766 13.531-0.728 3.497-1.777 8.558-2.331 11.248-0.494 2.388-0.973 4.778-1.438 7.172-0.235 1.255-1.034 5.144-1.775 8.64-0.739 3.496-1.55 7.459-1.802 8.803-0.252 1.346-1.059 5.307-1.793 8.803-0.735 3.496-1.545 7.458-1.799 8.803-0.579 2.938-1.176 5.873-1.791 8.803-0.731 3.496-1.531 7.459-1.778 8.803-0.393 2.07-0.811 4.135-1.253 6.195-0.567 2.658-1.121 5.321-1.66 7.986-0.47 2.331-1.302 6.439-1.849 9.129-0.548 2.689-1.41 6.871-1.915 9.292-0.506 2.419-1.315 6.382-1.801 8.804-1.235 6.143-2.485 12.281-3.75 18.418-0.514 2.512-1.323 6.473-1.795 8.804-0.474 2.331-1.29 6.259-1.815 8.727-0.525 2.47-0.955 4.782-0.955 5.138v0.649l269.38-0.097 269.38-0.096 4.654-0.555c2.559-0.304 6.08-0.855 7.823-1.227 1.744-0.369 3.611-0.754 4.149-0.858 0.538-0.103 2.4-0.601 4.136-1.106 1.736-0.506 4.157-1.302 5.379-1.771 1.223-0.467 3.6-1.539 5.281-2.382 1.307-0.649 2.605-1.312 3.897-1.988 0.46-0.251 2.027-1.303 3.482-2.337l2.646-1.881 2.748-2.76c1.514-1.519 3.213-3.336 3.776-4.041 0.564-0.704 1.684-2.297 2.486-3.541 0.802-1.245 1.899-3.145 2.436-4.219 0.54-1.076 1.508-3.367 2.15-5.09l1.17-3.133 0.981-4.527c0.54-2.492 1.43-6.73 1.976-9.42s1.354-6.652 1.797-8.803c0.443-2.152 1.24-6.04 1.772-8.641 0.531-2.6 1.404-6.854 1.939-9.453 0.533-2.6 1.359-6.635 1.833-8.965 0.6-2.936 1.202-5.87 1.807-8.805 0.519-2.511 1.391-6.764 1.939-9.455 0.549-2.688 1.345-6.578 1.772-8.638 0.425-2.063 1.237-6.024 1.808-8.804 0.566-2.779 1.459-7.107 1.981-9.618 0.521-2.509 1.308-6.324 1.75-8.475 0.441-2.153 1.262-6.188 1.828-8.967 0.606-2.988 1.211-5.977 1.813-8.965 0.573-2.827 1.156-5.652 1.749-8.476 0.661-3.15 1.312-6.302 1.955-9.456 0.546-2.69 1.365-6.724 1.822-8.965 0.455-2.241 1.259-6.13 1.788-8.64 0.527-2.51 1.409-6.765 1.958-9.455 0.548-2.689 1.367-6.724 1.82-8.965s1.235-6.056 1.742-8.477c0.504-2.421 1.319-6.381 1.808-8.803 0.488-2.42 1.299-6.382 1.798-8.803 0.499-2.42 1.372-6.675 1.938-9.454 0.568-2.78 1.386-6.74 1.818-8.803 0.432-2.062 1.235-5.95 1.787-8.64 0.551-2.689 1.434-6.911 1.963-9.379 0.526-2.469 0.96-4.781 0.96-5.137v-0.649l-269.53 0.105zm-225.84 91.003l0.153-2.971 0.809-1.907 0.81-1.907 1.03-1.105 1.03-1.104 1.775-0.794 1.775-0.795h5.214l1.208 0.748 1.207 0.747 0.694 1.151 0.693 1.152-0.028 2.946-0.027 2.948-0.781 2.002-0.779 2.003-1.482 1.502-1.481 1.503-1.675 0.57-1.674 0.57-2.104-7e-3 -2.106-9e-3 -1.453-0.659-1.454-0.66-0.754-1.476-0.752-1.477 0.152-2.971zm-18.811 22.863c-0.684 3.701-1.374 7.4-2.071 11.098-0.651 3.463-1.278 6.932-1.88 10.404-0.652 3.812-1.294 7.627-1.926 11.443-0.584 3.528-1.52 9.069-2.078 12.311-0.578 3.352-1.15 6.704-1.719 10.058-0.382 2.25-0.737 4.504-1.066 6.763-0.2 1.43-0.53 3.575-0.737 4.769l-0.374 2.166h-16.921l-4e-3 -0.433c-2e-3 -0.239 0.548-3.478 1.221-7.196 0.674-3.72 1.6-8.713 2.058-11.097 0.649-3.408 1.287-6.818 1.914-10.229 0.597-3.244 1.547-8.394 2.112-11.446 0.565-3.051 1.204-6.448 1.419-7.55l0.394-2.002-0.252-0.252-0.252-0.251h-45.313l-0.195 0.194c-0.106 0.107-0.571 2.291-1.032 4.856-0.46 2.563-1.238 7.001-1.727 9.862-0.489 2.86-1.371 8.088-1.959 11.617l-1.907 11.443c-0.461 2.766-1.111 6.707-1.443 8.758l-0.605 3.727h-16.852v-0.562c0-0.311 0.402-2.534 0.893-4.942 0.492-2.407 1.028-5.159 1.194-6.112 0.164-0.953 0.683-3.606 1.153-5.895 0.667-3.291 1.315-6.586 1.945-9.884 0.6-3.147 1.459-7.673 1.91-10.057 0.641-3.408 1.27-6.819 1.887-10.231 0.742-4.155 1.447-8.317 2.116-12.484l1.903-11.964c0.471-2.956 1.335-8.34 1.92-11.964 0.477-2.946 0.946-5.894 1.407-8.843 0.188-1.24 0.587-3.619 0.887-5.288l0.543-3.035h16.995l-0.21 0.55c-0.117 0.302-0.526 2.331-0.909 4.508-0.384 2.177-0.936 5.09-1.227 6.472-0.336 1.639-0.625 3.287-0.868 4.943-0.187 1.335-0.735 4.534-1.22 7.108-0.501 2.662-1.018 5.321-1.55 7.977-0.417 2.072-0.81 4.148-1.179 6.229-0.28 1.614-0.477 2.961-0.438 2.995 0.04 0.032 4.812 0.173 10.605 0.31l10.532 0.25 12.576-0.254 12.575-0.255 0.578-3.857c0.517-3.37 1.055-6.736 1.614-10.099 0.57-3.434 1.414-8.349 1.876-10.925 0.462-2.575 1.148-6.475 1.527-8.669 0.378-2.193 0.792-4.73 0.919-5.635l0.233-1.648h17.133l-0.584 2.514c-0.321 1.384-1.068 5.168-1.66 8.41s-1.47 8.08-1.952 10.75c-0.482 2.669-1.349 7.428-1.929 10.574zm23.456 34.68c-1.374 8.106-2.715 16.219-4.024 24.337-0.572 3.562-1.042 7.022-1.042 7.688 0 0.664-0.094 1.455-0.211 1.758l-0.21 0.548h-14.918l0.209-0.779c0.116-0.43 0.513-2.262 0.884-4.075 0.37-1.812 1.145-5.713 1.723-8.67 0.578-2.956 1.447-7.481 1.931-10.058 0.485-2.574 1.335-7.1 1.89-10.056 0.672-3.635 1.306-7.276 1.9-10.925 0.491-3.05 1.365-8.435 1.942-11.964 0.578-3.527 1.334-8.443 1.678-10.923l0.63-4.509 15.086-0.186-0.189 0.305c-0.103 0.167-0.743 3.095-1.422 6.508s-1.631 8.312-2.114 10.887c-0.622 3.295-1.25 6.589-1.884 9.882-0.65 3.405-1.27 6.816-1.859 10.232zm80.624-9.328c-0.281 2.439-0.646 4.869-1.093 7.283l-0.695 3.604-1.344 4.162c-0.74 2.289-2.008 5.722-2.821 7.629-0.812 1.906-1.918 4.121-2.459 4.918-0.541 0.798-0.984 1.537-0.984 1.645 0 0.105-0.737 1.17-1.639 2.363-0.9 1.195-2.656 3.191-3.901 4.434l-2.263 2.263-2.428 1.581c-1.335 0.869-3.363 2.009-4.508 2.531l-2.08 0.949-3.877 1.004-3.876 1.002-3.58 0.221-3.579 0.219-2.821-0.365-2.82-0.365-2.367-0.947-2.366-0.948-1.923-1.937-1.922-1.938-0.866-1.638c-0.477-0.902-0.959-1.64-1.071-1.64-0.113 0-0.392 1.365-0.621 3.034-0.401 2.807-0.822 5.61-1.265 8.41-0.466 2.956-1.306 8.263-1.867 11.791-0.562 3.528-1.266 8.007-1.566 9.955-0.301 1.946-0.547 4-0.547 4.565s-0.094 1.274-0.211 1.576l-0.21 0.549h-14.912l0.189-0.781c0.105-0.428 0.653-3.12 1.221-5.981 0.567-2.86 1.5-7.698 2.074-10.75s1.53-8.2 2.124-11.444c0.594-3.242 1.456-7.924 1.913-10.402 0.458-2.48 1.305-7.084 1.884-10.231 0.579-3.146 1.516-8.454 2.083-11.791 1.287-7.568 2.559-15.14 3.816-22.714 0.57-3.434 1.538-9.402 2.152-13.265l1.114-7.023h12.716l-0.014 0.433c-8e-3 0.24-0.3 1.805-0.651 3.48l-0.636 3.047 0.911-0.597c0.5-0.326 1.123-0.807 1.382-1.066 0.26-0.259 1.289-0.992 2.286-1.63 0.996-0.638 2.86-1.645 4.14-2.236l2.329-1.079 2.68-0.683 2.679-0.685 3.285-0.377 3.283-0.377 2.947 0.216 2.948 0.216 2.948 0.705 2.948 0.707 5.354 2.766 2.262 2.399 2.263 2.399 1.171 2.337 1.172 2.336 0.723 3.121 0.725 3.122 0.229 3.121 0.23 3.121-0.398 3.676zm71.426-11.011l-0.012 3.172-0.506 3.772c-0.278 2.074-0.768 4.883-1.089 6.242l-0.582 2.47-19.29-0.123-19.291-0.125-10.436 0.488-0.597 3.868-0.594 3.868 5e-3 4.336 4e-3 4.336 0.67 2.344 0.67 2.342 1.069 1.869 1.069 1.867 2.74 2.476 1.658 0.821c0.913 0.453 2.597 1.121 3.74 1.486l2.081 0.664 6.069-0.011 6.068-0.013 3.818-0.739 3.818-0.741 3.638-1.197c2-0.659 4.221-1.481 4.934-1.825l1.296-0.625 0.187 0.186 0.188 0.187-0.847 4.125c-0.466 2.268-0.942 4.826-1.058 5.685l-0.212 1.563-4.239 0.934c-2.332 0.512-5.956 1.174-8.056 1.469-2.097 0.297-5.529 0.695-7.629 0.887l-3.813 0.348-3.815-0.044c-2.098-0.022-4.895-0.183-6.215-0.351-1.321-0.17-3.681-0.619-5.244-0.996l-2.843-0.688-2.039-0.928c-1.121-0.51-2.819-1.51-3.771-2.219-0.954-0.709-2.378-1.971-3.164-2.801-0.786-0.832-1.83-2.214-2.318-3.072-0.488-0.857-1.206-2.418-1.593-3.467s-0.942-2.922-1.231-4.162l-0.526-2.254-6e-3 -5.16-6e-3 -5.16 0.554-3.51c0.305-1.931 0.922-5.069 1.373-6.977 0.449-1.907 1.219-4.639 1.709-6.07 0.488-1.43 1.218-3.381 1.617-4.334 0.401-0.954 1.282-2.826 1.958-4.162 0.678-1.335 1.863-3.363 2.638-4.508 0.772-1.145 2.19-2.863 3.148-3.821 0.957-0.957 2.443-2.309 3.304-3.005 0.857-0.695 2.573-1.839 3.813-2.542 1.239-0.703 3.424-1.747 4.854-2.318l2.602-1.039 4.161-0.8 4.162-0.799 3.468-0.225 3.467-0.226 3.734 0.357 3.731 0.357 3.03 0.729 3.029 0.73 1.733 0.922c0.954 0.507 2.291 1.316 2.974 1.797 0.681 0.481 1.71 1.419 2.286 2.084 0.575 0.666 1.457 1.916 1.955 2.778l0.908 1.568 0.551 2.368 0.549 2.369-8e-3 3.173zm39.686-7.926l-2.609 1.247-2.608 1.246-2.116 1.958-2.115 1.96-1.581 2.344c-0.87 1.289-2.138 3.553-2.817 5.032-0.681 1.479-1.237 2.903-1.237 3.165 0 0.261-0.232 1.133-0.517 1.939-0.284 0.805-1.125 4.531-1.871 8.279-0.872 4.457-1.678 8.926-2.418 13.406-0.585 3.623-1.385 8.65-1.774 11.171s-0.808 5.994-0.931 7.716l-0.223 3.133h-14.808v-0.305c0-0.167 0.22-1.376 0.491-2.686 0.269-1.312 0.968-4.803 1.552-7.76 1.365-6.93 2.7-13.865 4.005-20.808 0.485-2.574 1.345-7.49 1.911-10.923s1.426-8.739 1.91-11.791c0.483-3.052 1.271-7.942 1.748-10.869 0.476-2.926 0.867-5.695 0.867-6.155v-0.836h13.225l-0.185 0.608c-0.101 0.332-0.512 2.479-0.909 4.768-0.398 2.288-0.86 4.785-1.026 5.549l-0.301 1.386 0.496-0.693c0.756-1.043 1.517-2.083 2.281-3.121 0.98-1.335 2.545-3.174 3.476-4.086 0.929-0.911 2.534-2.197 3.565-2.858 1.031-0.66 2.704-1.504 3.719-1.876 1.013-0.373 2.855-0.857 4.096-1.076l2.254-0.399 1.734 0.214c0.953 0.119 2.865 0.559 4.248 0.979s2.514 0.863 2.514 0.984-0.391 2.135-0.867 4.476c-0.477 2.342-0.867 4.626-0.867 5.076 0 0.451-0.093 0.819-0.207 0.819-0.113 0-1.089-0.264-2.166-0.586l-1.962-0.585-3.986-0.021-3.991-0.021zm64.258 1.225l-1.833-0.684-4.509-0.901-4.508-0.903-3.815-0.191-3.813-0.192-2.602 0.406c-1.43 0.222-3.609 0.715-4.843 1.095l-2.242 0.691-1.747 1.083-1.745 1.082-3.298 3.418-1.342 2.311c-0.738 1.272-1.854 3.483-2.479 4.913-0.627 1.431-1.262 3.069-1.414 3.642-0.151 0.572-0.601 2.132-0.997 3.467l-0.721 2.429-0.682 4.508-0.681 4.509-3e-3 3.721-5e-3 3.721 0.561 2.867 0.562 2.869 1.177 2.143 1.178 2.145 1.773 1.553 1.774 1.551 4.594 1.594 4.043 0.139 4.042 0.137 4.756-0.921 4.756-0.921 3.339-1.24c1.837-0.682 3.538-1.397 3.782-1.592 0.242-0.191 0.497-0.289 0.567-0.214 0.069 0.075-0.029 1.072-0.217 2.217-0.307 1.782-0.634 3.562-0.981 5.336-0.351 1.791-0.763 3.365-0.918 3.498-0.154 0.132-1.478 0.579-2.939 0.993-1.776 0.486-3.569 0.912-5.375 1.275-1.495 0.291-4.667 0.759-7.05 1.041l-4.332 0.514-3.817-0.042h6e-3c-2.1-0.022-4.73-0.176-5.848-0.339s-3.225-0.628-4.682-1.032l-2.65-0.737-2.02-1.065-2.017-1.068-1.909-1.877-1.907-1.878-1.198-1.875-1.201-1.875-1.038-2.594-1.039-2.594-0.654-5.045-4e-3 -4.334-3e-3 -4.334 0.324-3.295 0.325-3.295 0.895-3.642c0.491-2.003 1.464-5.28 2.16-7.283l1.267-3.64 1.652-3.364c0.909-1.851 2.319-4.341 3.134-5.536l1.484-2.172 2.655-2.614c1.462-1.438 3.098-2.926 3.638-3.308 0.899-0.614 1.814-1.204 2.745-1.77 0.971-0.592 2.77-1.479 3.998-1.97l2.233-0.893 3.468-0.729 3.469-0.728 4.681-0.36 4.683-0.359 6.639 0.381c3.651 0.211 7.925 0.529 9.498 0.708 1.572 0.179 2.927 0.394 3.01 0.478 0.085 0.083-0.079 1.453-0.364 3.045-0.283 1.59-0.714 4.179-0.956 5.752-0.241 1.574-0.483 2.862-0.536 2.862-0.057-3e-3 -0.926-0.312-1.934-0.688zm69.21 2.756l-0.032 4.343-0.932 5.028c-0.511 2.766-1.378 7.525-1.925 10.577-0.548 3.053-1.394 7.891-1.879 10.751-0.643 3.865-1.24 7.738-1.794 11.617l-0.908 6.416-0.194 4.942-0.194 4.94h-12.729l6e-3 -2.166c4e-3 -1.192 0.229-3.726 0.497-5.631 0.271-1.904 0.446-3.507 0.389-3.562-0.056-0.057-0.724 0.721-1.483 1.728s-2.147 2.589-3.082 3.517c-0.936 0.927-2.561 2.259-3.609 2.959-1.049 0.701-2.765 1.681-3.813 2.176l-1.908 0.9-2.948 0.756-2.948 0.754-4.681 0.135h3e-3l-4.682 0.134-2.042-0.321c-1.124-0.179-3.111-0.627-4.417-0.996l-2.375-0.67-2.074-1.261-2.073-1.26-1.168-1.364c-0.641-0.75-1.59-2.141-2.106-3.089l-0.938-1.726-0.507-2.645-0.505-2.646v-6.355l0.53-3.028 0.529-3.028 1.154-2.693c0.634-1.481 1.681-3.474 2.325-4.427 0.644-0.954 2.108-2.671 3.257-3.815l2.085-2.082 2.648-1.646c1.457-0.907 2.793-1.647 2.969-1.647 0.177 0 0.971-0.314 1.765-0.698 0.794-0.383 3.281-1.201 5.527-1.817l4.083-1.12 12.478-0.044 12.479-0.045 0.598-2.907 0.598-2.906 0.017-2.649 0.016-2.648-1.128-1.679-1.127-1.68-2.013-0.994-2.012-0.993-6.032-1.058-4.683 0.194-4.681 0.192-5.201 0.886c-2.861 0.488-6.67 1.28-8.462 1.763-1.792 0.482-3.309 0.827-3.37 0.765s0.332-1.82 0.877-3.908c0.543-2.089 1.175-4.694 1.401-5.79l0.413-1.995 5.672-0.021 4.162-0.504c2.289-0.279 6.761-0.667 9.94-0.863l5.779-0.358 4.487 0.341 4.486 0.341 6.518 1.45 2.187 1.109 2.186 1.107 1.333 1.279 1.331 1.278 0.982 2.008 0.981 2.007-0.033 4.342zm42.006-3.953l-1.992 0.965c-1.096 0.531-2.921 1.662-4.055 2.516l-2.062 1.551-1.886 2.504-1.886 2.505-1.429 3.022c-0.785 1.662-1.43 3.22-1.435 3.462-3e-3 0.242-0.251 1.143-0.552 2.001-0.301 0.859-1.014 3.745-1.587 6.416-0.571 2.67-1.247 6.182-1.503 7.802-0.255 1.623-0.862 5.367-1.35 8.324-0.488 2.955-1.279 7.961-1.761 11.12l-0.871 5.746v4.634h-15.142l0.64-3.207 1.674-8.408c0.567-2.861 1.494-7.621 2.058-10.578 0.564-2.956 1.419-7.482 1.9-10.057 0.668-3.636 1.306-7.277 1.915-10.924 0.571-3.434 1.504-9.13 2.072-12.658 0.567-3.529 1.354-8.54 1.744-11.137 0.392-2.596 0.711-4.82 0.711-4.941v-0.222h12.831l-0.015 0.781c-8e-3 0.429-0.46 3.043-1.003 5.809-0.543 2.765-0.942 5.078-0.886 5.138 0.056 0.061 0.701-0.797 1.435-1.907l1.334-2.018 2.483-2.6 2.483-2.601 1.909-1.152 1.91-1.152 2.544-0.894 2.544-0.896 3.121-7e-3 3.121-9e-3 1.733 0.547c0.954 0.3 2.145 0.706 2.646 0.902l0.912 0.357-0.812 3.926c-0.446 2.16-0.816 4.424-0.824 5.033l-0.016 1.106-0.287 0.178-0.288 0.178-1.706-0.548-1.707-0.547-4.335-0.031-4.33-0.029zm84.79-40.513c1e-3 0.142-0.376 2.055-0.838 4.247-0.656 3.175-1.291 6.354-1.906 9.538-0.587 3.051-1.471 7.733-1.964 10.403s-1.347 7.274-1.895 10.231c-0.549 2.956-1.468 7.949-2.041 11.097-0.574 3.146-1.433 7.985-1.908 10.75-0.526 3.064-1.062 6.128-1.604 9.189-0.562 3.23-1.089 6.468-1.579 9.71-0.46 3.053-1.304 9.527-1.873 14.392l-1.036 8.844v4.681h-13.606l0.23-2.34c0.126-1.287 0.364-3.121 0.532-4.074 0.17-0.955 0.385-2.516 0.48-3.469l0.175-1.734-0.201 0.521c-0.11 0.287-1.049 1.652-2.086 3.035l-1.886 2.513-1.789 1.576-1.79 1.576-2.082 1.066c-1.143 0.586-2.86 1.285-3.813 1.556-0.954 0.27-3.139 0.719-4.855 0.997l-3.122 0.507-3.294-0.042c-1.812-0.021-4.262-0.167-5.443-0.321-1.184-0.153-3.135-0.549-4.336-0.878s-3.12-1.064-4.266-1.631l-2.081-1.034-1.523-1.249-1.524-1.248-1.336-1.808-1.335-1.806-0.732-1.84c-0.439-1.117-0.839-2.251-1.196-3.397l-0.463-1.56-0.395-4.336-0.392-4.334 0.522-5.387 0.523-5.388 1.061-4.15c0.585-2.281 1.476-5.241 1.981-6.577 0.505-1.335 1.767-4.192 2.803-6.35l1.886-3.922 1.604-2.296c0.884-1.263 2.549-3.308 3.702-4.544l2.097-2.249 2.427-1.797 2.427-1.796 3.297-1.607 3.294-1.607 3.468-0.876 3.468-0.877 3.814-0.356 3.814-0.355 4.509 0.351 4.509 0.351 3.294 0.827c1.811 0.455 3.558 0.94 3.88 1.077l0.585 0.249 0.186-1.156c0.102-0.636 0.649-3.966 1.22-7.399 0.569-3.433 1.506-9.207 2.08-12.83 0.572-3.625 1.142-7.565 1.262-8.757l0.219-2.168h14.844v0.261z" fill="#393939"/><path d="m628.8 285.04l5.514-1.75 1.907-1.269c1.049-0.697 2.429-1.753 3.068-2.349 0.638-0.594 1.647-1.784 2.246-2.643 0.598-0.857 1.517-2.466 2.042-3.572 0.524-1.106 1.179-2.824 1.453-3.815 0.275-0.991 0.812-2.972 1.19-4.403 0.38-1.43 1.093-4.707 1.585-7.282 0.493-2.574 1.355-7.178 1.916-10.229 0.562-3.052 1.347-7.422 1.745-9.711 0.398-2.288 0.811-4.589 0.916-5.113l0.191-0.952-0.981-0.381c-0.539-0.21-2.463-0.793-4.276-1.295l-3.294-0.915h-5.721l-5.722 3e-3 -2.727 0.944-2.727 0.944-1.552 0.955c-0.855 0.525-2.293 1.669-3.196 2.539-0.904 0.872-2.273 2.433-3.042 3.469-0.768 1.036-1.885 2.819-2.483 3.964-0.748 1.458-1.459 2.936-2.13 4.431-0.575 1.292-1.045 2.54-1.049 2.773-2e-3 0.234-0.396 1.674-0.874 3.2l-0.869 2.774-0.559 3.987-0.56 3.989-0.04 4.508-0.041 4.508 0.48 2.255 0.482 2.254 2.112 4.046 1.421 1.164 1.422 1.166 1.689 0.723c0.93 0.398 2.484 0.868 3.457 1.043l1.766 0.317 2.619-0.137 2.622-0.14z" fill="#393939"/></svg>
