<svg width="780" height="500" enable-background="new 0 0 780 500" version="1.1" viewBox="0 0 780 500" xml:space="preserve" xmlns="http://www.w3.org/2000/svg"><path d="m739.83 0h-698.16c-23.005 0-41.672 19.108-41.672 42.68v417.14c0 23.577 18.657 42.681 41.672 42.681h698.16c23.006 0 41.672-19.108 41.672-42.681v-417.14c0-23.576-18.657-42.68-41.672-42.68zm-428.08 358.49c-0.778 25.866-22.803 48.51-48.12 49.156-25.628 0.077-51.262 0.011-76.893 0.033v-109.21c19.032 3.572 38.165 7.418 57.637 6.255 18.675-0.995 41.199-3.921 51.894-21.81 7.916-13.214 4.368-28.979 5.025-43.593l-0.243-37.373-43.302 0.249c-0.208 21.741 0.428 43.529-0.34 65.239-1.664 14.438-16.754 21.854-29.713 20.52-14.988-0.142-28.329-5.87-40.987-9.689h-1e-3s-0.283-95.488 0.032-139.46c4.225-25.701 29.919-44.937 55.085-42.589h70.137c-0.081 87.422-0.071 174.85-0.211 262.26zm141.54 1.078c-1.638 27.289-27.35 50.2-53.998 47.607h-71.22v-119.53c18.569 15.018 43.654 17.273 66.539 16.972 15.047-0.404 29.988-2.681 44.497-6.781l-0.314-21.668c-20.466 10.086-45.831 17.212-67.179 5.734-16.96-9.938-18.952-34.961-9.886-51.063 11.197-16.703 33.816-17.2 51.426-13.668 8.64 0.788 20.247 8.703 25.953 8.525v-19.839c-29.536-7.646-61.183-10.121-90.774-1.463-7.356 2.575-14.56 6.22-20.262 11.716l-1e-3 -2e-3c0.161-24.581-0.329-49.188 0.264-73.755 1.755-23.411 20.969-43.115 43.559-45.974 22.715-0.766 45.506-0.121 68.251-0.334h13.235c-0.059 87.841 0.117 175.69-0.09 263.53zm93.906 45.895c-26.467 0.226-52.956 0.032-79.434 0.096v-105.57h78.867c14.679 0.577 32.55-9.041 32.195-25.976 0.268-15.705-15.538-24.658-29.084-25.765 10.841-1.292 21.872-9.082 22.921-20.954 2.504-15.516-12.225-26.589-26.033-26.937-26.275-0.43-52.58-0.064-78.866-0.186v-52.033c-1.781-27.039 20.542-52.148 46.802-53.771 26.112-0.347 52.241-0.052 78.359-0.15v259.15c1.304 26.251-20.556 49.791-45.727 52.104zm-25.418-148.33c1e-3 0 14.272-0.846 14.272 13.632s-14.188 13.632-14.272 13.632h-28.947v-27.264h28.947zm-28.947-14.904v-25.376h27.065s12.681 0 12.681 12.669-12.681 12.707-12.681 12.707h-27.065z" fill="#393939"/></svg>
