<svg width="780" height="500" enable-background="new 0 0 780 500" version="1.1" viewBox="0 0 780 500" xml:space="preserve" xmlns="http://www.w3.org/2000/svg"><path d="m736.99 0h-695.48c-22.917 0-41.512 18.994-41.512 42.426v414.65c0 23.437 18.585 42.426 41.512 42.426h695.48c22.917 0 41.512-18.994 41.512-42.426v-414.65c-1e-3 -23.436-18.587-42.426-41.513-42.426zm-218.47 465.5c-48.683 0-93.598-16.839-129.42-45.172-35.828 28.333-80.719 45.172-129.42 45.172-116.77 0-211.76-97.007-211.76-216.23 0-119.2 94.987-216.19 211.76-216.19 48.703 0 93.593 16.88 129.42 45.184 35.822-28.304 80.736-45.184 129.42-45.184 116.81 0 211.8 96.991 211.8 216.19-1e-3 119.23-94.991 216.23-211.8 216.23z" fill="#393939"/><path d="m373.03 249.38c0-1.714 2.516-13.6-10.601-13.872-7.246 0-12.454 4.943-14.572 13.872h25.173z" fill="#393939"/><path d="m290.96 262.63c-2.4-0.273-3.466-0.35-5.127-0.35-13.004 0-19.562 3.923-19.562 11.736 0 4.947 3.204 7.972 8.218 7.972 9.312 0 16.071-7.971 16.471-19.358z" fill="#393939"/><path d="m611.2 236.34c-11.482 0-18.632 13.882-18.632 26.165 0 10.376 4.865 17.284 12.965 17.176 11.103 0 18.126-10.383 18.126-27.857 0-7.948-3.177-15.484-12.459-15.484z" fill="#393939"/><path d="m518.52 52.445c-42.952 0-82.604 14.37-114.68 38.613 31.319 29.731 53.771 69.013 62.994 113.2h-19.41c-9.052-39.539-29.817-74.504-58.322-100.86-28.484 26.359-49.241 61.324-58.302 100.86h-19.399c9.212-44.192 31.674-83.474 62.969-113.2-32.035-24.243-71.723-38.613-114.69-38.613-106.46 0-192.79 88.107-192.79 196.82 0 108.72 86.33 196.89 192.79 196.89 42.963 0 82.651-14.381 114.69-38.623-27.348-26.015-47.957-59.244-58.885-96.789h19.842c10.553 32.814 29.323 61.791 53.776 84.457 24.51-22.666 43.243-51.643 53.796-84.457h19.838c-10.891 37.545-31.533 70.773-58.896 96.789 32.078 24.242 71.729 38.623 114.68 38.623 106.49 0 192.81-88.172 192.81-196.89-2e-3 -108.72-86.32-196.82-192.81-196.82zm-311.9 244.79l13.553-72.921-31.203 72.921h-20.796l-3.784-72.477-13.596 72.477h-20.693l17.627-94.849h35.62l1.883 58.693 25.078-58.693h37.082l-17.975 94.849h-22.796zm107.87-41.313c-0.783 5.072-6.228 34.362-6.801 41.313h-19.062l0.467-8.164c-5.805 6.388-13.522 9.412-24.044 9.412-12.415 0-20.946-8.68-20.946-21.137 0-18.955 14.814-29.89 40.253-29.89 2.601 0 5.955 0.164 9.357 0.562 0.699-2.562 0.887-3.639 0.887-5.021 0-5.191-3.983-7.095-14.716-7.095-10.543 0.045-17.658 1.643-24.258 3.456l3.247-17.392c11.431-2.944 18.917-4.086 27.366-4.086 19.696 0 30.123 7.856 30.123 22.689 0.155 3.942-1.195 11.909-1.873 15.353zm76.432 9.076h-45.379c-1.64 11.078 6.293 15.954 19.803 15.954 8.089 0 15.383-1.469 23.477-4.813l-3.554 19.278c-7.833 2.056-15.421 3.066-23.42 3.066-25.504 0-38.826-11.875-38.826-34.606 0-26.492 16.918-45.996 39.92-45.996 18.78 0 30.783 10.953 30.783 28.066 1e-3 5.655-0.804 11.185-2.804 19.051zm66.614-27.613c-5.923-0.745-12.154-1.179-16.705-1.179-7.529 0-11.377 2.142-11.377 6.362 0 3.582 1.118 4.479 10.829 8.429 11.666 4.674 16.362 10.949 16.362 21.58 0 17.707-11.287 25.906-35.773 25.906-8.255-0.172-17.562-0.708-24.182-2.288l3.325-17.831c7.427 2.112 13.748 2.981 20.666 3.025 9.218 0.04 13.341-2.161 13.341-7.065 0-3.519-1.479-4.649-10.853-8.584-12.286-5.005-17.694-11.797-17.694-21.596-0.08-14.337 8.918-26.263 34.911-26.263 5.283 0 14.443 0.691 20.448 1.508l-3.298 17.996zm49.233 1.165h-11.694s-6.413 32.859-6.413 35.365c0 4.014 2.369 5.744 7.785 5.744 2.602 0 4.591-0.219 6.176-0.773h1e-3 -1e-3l-3.047 17.135c-6.236 1.755-11.128 2.463-16.364 2.463-11.694 0-18.059-6.086-18.059-16.926-0.39-2.933 2.491-16.721 3.127-20.563 0.631-3.862 10.781-59.88 10.781-59.88h22.67l-3.464 18.534h11.629l-3.127 18.901zm27.95 58.685h-22.922l0.976-5.274c3.972-24.015 9.095-48.356 11.97-72.367h21.272c0.3 3.638-0.894 7.61-1.525 11.767 7.022-9.142 14.804-15.628 26.855-11.097 0 0-7.439 19.466-8.33 21.958-17.294-4.675-20.046 8.562-28.296 55.013zm68.917 1.248c-25.538 0-35.84-15.848-35.84-35.211 0-27.065 17.443-45.392 44.446-45.392 23.456 0 35.91 15.09 35.91 34.455 1e-3 32.119-18.694 46.148-44.516 46.148z" fill="#393939"/></svg>
