<svg width="780" height="500" enable-background="new 0 0 780 500" version="1.1" viewBox="0 0 780 500" xml:space="preserve" xmlns="http://www.w3.org/2000/svg"><path d="M740,0H40C17.909,0,0,17.909,0,40v420c0,22.092,17.909,40,40,40h700c22.092,0,40-17.908,40-40V40   C780,17.909,762.092,0,740,0z" fill="#393939"/><path d="m701.85 310.37v-3.795h5.117v-11.271h4.198l0.401 11.271h11.443l-10.58-25.07 3.967-1.726 11.674 27.141v3.45h-16.446v9.659h-4.658v-9.659h-5.116zm-19.586-30.59c4.026 0 7.878 1.38 11.213 4.6l-2.587 2.933c-2.645-2.473-5.003-3.68-8.395-3.68-4.198 0-7.533 2.357-7.533 6.727 0 4.773 3.738 6.959 7.533 6.959h2.356l0.575 3.795h-3.335c-4.657 0-8.222 1.84-8.222 7.531 0 4.945 3.276 8.108 8.854 8.108 3.221 0 6.556-1.323 8.797-3.968l3.221 2.645c-2.99 3.68-7.705 5.233-12.133 5.233-8.164 0-13.742-5.175-13.742-12.019 0-6.151 4.37-9.371 9.027-9.717-4.197-0.805-7.763-4.428-7.763-9.199 2e-3 -5.405 4.717-9.948 12.134-9.948zm-34.477 0c5.348 0 8.913 1.897 12.075 5.692l-3.335 2.53c-2.53-2.933-4.657-4.198-8.567-4.198-4.428 0-7.073 2.76-7.073 7.188 0 6.497 3.22 10.81 18.17 25.127v3.909h-23.517l-0.575-4.081h18.63c-13.053-11.903-17.71-17.825-17.71-25.07 0-6.324 4.427-11.097 11.902-11.097zm-48.737 36.34h8.28v-35.649h4.197l11.729 7.244-2.07 3.393-9.085-5.463v30.476h9.775v3.909h-22.827v-3.91zm-69.588-5.75v-3.795h5.117v-11.271h4.198l0.401 11.271h11.443l-10.58-25.07 3.967-1.726 11.673 27.141v3.45h-16.444v9.659h-4.658v-9.659h-5.117zm-19.585-30.59c4.025 0 7.877 1.38 11.212 4.6l-2.587 2.933c-2.646-2.473-5.003-3.68-8.396-3.68-4.197 0-7.532 2.357-7.532 6.727 0 4.773 3.737 6.959 7.532 6.959h2.357l0.575 3.795h-3.334c-4.657 0-8.222 1.84-8.222 7.531 0 4.945 3.276 8.108 8.854 8.108 3.22 0 6.555-1.323 8.797-3.968l3.22 2.645c-2.989 3.68-7.704 5.233-12.132 5.233-8.165 0-13.743-5.175-13.743-12.019 0-6.151 4.37-9.371 9.028-9.717-4.198-0.805-7.763-4.428-7.763-9.199 1e-3 -5.405 4.716-9.948 12.134-9.948zm-34.478 0c5.349 0 8.913 1.897 12.075 5.692l-3.335 2.53c-2.529-2.933-4.657-4.198-8.566-4.198-4.429 0-7.073 2.76-7.073 7.188 0 6.497 3.22 10.81 18.17 25.127v3.909h-23.517l-0.575-4.081h18.63c-13.053-11.903-17.71-17.825-17.71-25.07-1e-3 -6.324 4.426-11.097 11.901-11.097zm-48.737 36.34h8.279v-35.649h4.197l11.73 7.244-2.07 3.393-9.085-5.463v30.476h9.775v3.909h-22.827v-3.91zm-69.588-5.75v-3.795h5.118v-11.271h4.196l0.403 11.271h11.442l-10.58-25.07 3.968-1.726 11.672 27.141v3.45h-16.445v9.659h-4.657v-9.659h-5.117zm-19.585-30.59c4.024 0 7.878 1.38 11.213 4.6l-2.588 2.933c-2.646-2.473-5.002-3.68-8.396-3.68-4.197 0-7.532 2.357-7.532 6.727 0 4.773 3.737 6.959 7.532 6.959h2.358l0.575 3.795h-3.335c-4.658 0-8.224 1.84-8.224 7.531 0 4.945 3.278 8.108 8.855 8.108 3.22 0 6.555-1.323 8.798-3.968l3.22 2.645c-2.99 3.68-7.705 5.233-12.133 5.233-8.165 0-13.742-5.175-13.742-12.019 0-6.151 4.37-9.371 9.027-9.717-4.197-0.805-7.762-4.428-7.762-9.199 2e-3 -5.405 4.717-9.948 12.134-9.948zm-34.477 0c5.347 0 8.912 1.897 12.075 5.692l-3.335 2.53c-2.53-2.933-4.658-4.198-8.568-4.198-4.427 0-7.072 2.76-7.072 7.188 0 6.497 3.22 10.81 18.17 25.127v3.909h-23.518l-0.575-4.081h18.63c-13.052-11.903-17.71-17.825-17.71-25.07 0-6.324 4.428-11.097 11.903-11.097zm-48.738 36.34h8.28v-35.649h4.198l11.73 7.244-2.07 3.393-9.085-5.463v30.476h9.775v3.909h-22.828v-3.91zm-69.587-5.75v-3.795h5.117v-11.271h4.198l0.402 11.271h11.443l-10.58-25.07 3.967-1.726 11.673 27.141v3.45h-16.445v9.659h-4.658v-9.659h-5.117zm-19.585-30.59c4.025 0 7.877 1.38 11.212 4.6l-2.587 2.933c-2.645-2.473-5.003-3.68-8.395-3.68-4.198 0-7.533 2.357-7.533 6.727 0 4.773 3.738 6.959 7.533 6.959h2.357l0.575 3.795h-3.335c-4.657 0-8.222 1.84-8.222 7.531 0 4.945 3.277 8.108 8.855 8.108 3.22 0 6.555-1.323 8.797-3.968l3.22 2.645c-2.99 3.68-7.705 5.233-12.132 5.233-8.165 0-13.743-5.175-13.743-12.019 0-6.151 4.37-9.371 9.028-9.717-4.198-0.805-7.763-4.428-7.763-9.199 0-5.405 4.715-9.948 12.133-9.948zm-34.478 0c5.348 0 8.913 1.897 12.075 5.692l-3.335 2.53c-2.53-2.933-4.657-4.198-8.567-4.198-4.428 0-7.073 2.76-7.073 7.188 0 6.497 3.22 10.81 18.17 25.127v3.909h-23.517l-0.575-4.081h18.63c-13.053-11.903-17.71-17.825-17.71-25.07 0-6.324 4.427-11.097 11.902-11.097zm-48.738 36.34h8.28v-35.649h4.198l11.73 7.244-2.07 3.393-9.085-5.463v30.476h9.775v3.909h-22.828v-3.91z" fill="#fff" fill-opacity=".196"/><path d="m728.53 391.94v-2.694c-2.539-0.247-4.31-0.657-5.312-1.23-1.003-0.587-1.751-1.96-2.246-4.12h-2.773v27.851h3.75v-19.806h6.581zm-22.266 0v-2.694c-2.538-0.247-4.309-0.657-5.312-1.23-1.003-0.587-1.752-1.96-2.246-4.12h-2.774v27.851h3.75v-19.806h6.582v-1e-3zm-30.78 19.805c-0.131-2.409-0.626-4.505-1.485-6.289-0.873-1.784-2.565-3.405-5.078-4.863l-3.75-2.168c-1.68-0.977-2.858-1.81-3.535-2.5-1.067-1.081-1.602-2.317-1.602-3.711 0-1.628 0.488-2.917 1.465-3.867 0.977-0.964 2.278-1.446 3.906-1.446 2.408 0 4.075 0.912 5 2.735 0.494 0.977 0.768 2.331 0.819 4.062h3.575c-0.039-2.434-0.488-4.42-1.348-5.957-1.523-2.707-4.212-4.062-8.066-4.062-3.203 0-5.54 0.866-7.012 2.597-1.484 1.732-2.228 3.66-2.228 5.782 0 2.24 0.788 4.154 2.364 5.742 0.911 0.925 2.546 2.045 4.902 3.36l2.676 1.483c1.276 0.703 2.278 1.373 3.008 2.012 1.303 1.133 2.122 2.39 2.46 3.77h-15.271v3.32h19.2zm-31.407 0.762c3.307 0 5.709-0.905 7.207-2.715 1.484-1.823 2.227-4.036 2.227-6.64h-3.672c-0.156 1.809-0.495 3.124-1.016 3.944-0.912 1.472-2.559 2.207-4.941 2.207-1.85 0-3.334-0.495-4.453-1.484-1.12-0.989-1.68-2.266-1.68-3.828 0-1.927 0.592-3.274 1.776-4.043 1.173-0.769 2.807-1.152 4.903-1.152 0.234 0 0.475 7e-3 0.722 0.02 0.235 0 0.477 7e-3 0.724 0.02v-3.104c-0.365 0.038-0.671 0.064-0.918 0.078-0.247 0.013-0.515 0.02-0.8 0.02-1.316 0-2.397-0.209-3.243-0.627-1.485-0.729-2.228-2.031-2.228-3.905 0-1.394 0.495-2.468 1.485-3.224 0.989-0.755 2.142-1.133 3.457-1.133 2.343 0 3.964 0.781 4.863 2.344 0.494 0.861 0.774 2.084 0.84 3.673h3.476c0-2.083-0.416-3.854-1.25-5.312-1.432-2.605-3.951-3.908-7.558-3.908-2.852 0-5.059 0.639-6.621 1.914-1.562 1.264-2.344 3.1-2.344 5.508 0 1.719 0.462 3.113 1.387 4.181 0.573 0.664 1.315 1.185 2.226 1.562-1.471 0.404-2.616 1.186-3.437 2.345-0.833 1.146-1.25 2.552-1.25 4.219 0 2.669 0.879 4.844 2.637 6.523s4.252 2.517 7.481 2.517zm-27.91-7.891c-0.234 2.005-1.166 3.392-2.793 4.16-0.833 0.391-1.797 0.586-2.89 0.586-2.084 0-3.628-0.664-4.631-1.992-1.002-1.328-1.504-2.8-1.504-4.414 0-1.953 0.6-3.464 1.797-4.531 1.186-1.068 2.611-1.602 4.278-1.602 1.211 0 2.252 0.234 3.125 0.703 0.859 0.469 1.595 1.12 2.207 1.953l3.047-0.176-2.13-15.059h-14.53v3.399h11.895l1.19 7.772c-0.65-0.495-1.269-0.866-1.854-1.113-1.042-0.43-2.247-0.645-3.613-0.645-2.565 0-4.74 0.826-6.524 2.479-1.783 1.654-2.676 3.751-2.676 6.29 0 2.644 0.82 4.975 2.461 6.992 1.628 2.019 4.232 3.027 7.813 3.027 2.278 0 4.297-0.639 6.054-1.914 1.745-1.289 2.722-3.262 2.93-5.918h-3.652v3e-3zm-28.203-9.121c-1.55 0-2.761-0.43-3.633-1.289-0.873-0.872-1.31-1.907-1.31-3.104 0-1.043 0.417-2 1.25-2.871 0.834-0.873 2.104-1.31 3.81-1.31 1.692 0 2.917 0.437 3.672 1.31 0.755 0.871 1.133 1.894 1.133 3.065 0 1.315-0.488 2.344-1.465 3.086s-2.129 1.113-3.457 1.113zm-0.215 13.848c-1.628 0-2.976-0.437-4.043-1.309-1.081-0.886-1.621-2.2-1.621-3.945 0-1.81 0.554-3.184 1.66-4.121s2.525-1.406 4.258-1.406c1.68 0 3.054 0.482 4.12 1.445 1.055 0.951 1.583 2.272 1.583 3.965 0 1.458-0.481 2.722-1.445 3.789-0.977 1.055-2.481 1.582-4.512 1.582zm5-12.5c0.977-0.417 1.738-0.905 2.285-1.465 1.028-1.042 1.543-2.396 1.543-4.063 0-2.083-0.756-3.873-2.267-5.369-1.51-1.498-3.651-2.248-6.425-2.248-2.683 0-4.785 0.711-6.309 2.131-1.523 1.406-2.285 3.053-2.285 4.939 0 1.746 0.442 3.158 1.328 4.239 0.494 0.612 1.263 1.211 2.305 1.797-1.159 0.533-2.071 1.146-2.735 1.836-1.236 1.303-1.854 2.995-1.854 5.078 0 2.461 0.827 4.551 2.479 6.271 1.654 1.705 3.991 2.558 7.013 2.558 2.721 0 5.025-0.735 6.914-2.207 1.875-1.484 2.812-3.633 2.812-6.445 0-1.653-0.403-3.079-1.211-4.277-0.807-1.213-2.004-2.137-3.593-2.775z" fill="#fff" fill-opacity=".196"/><path d="m541.3 392.97v-2.695c-2.539-0.247-4.311-0.657-5.312-1.23-1.003-0.586-1.752-1.959-2.246-4.121h-2.773v27.852h3.75v-19.803h6.582v-3e-3zm-28.828 20.566c3.307 0 5.709-0.905 7.207-2.715 1.484-1.823 2.227-4.036 2.227-6.641h-3.672c-0.156 1.811-0.495 3.125-1.016 3.945-0.912 1.472-2.56 2.207-4.941 2.207-1.85 0-3.333-0.495-4.453-1.484s-1.681-2.266-1.681-3.828c0-1.927 0.593-3.274 1.778-4.043 1.172-0.769 2.806-1.152 4.902-1.152 0.234 0 0.476 7e-3 0.723 0.02 0.234 0 0.475 7e-3 0.722 0.021v-3.106c-0.363 0.039-0.67 0.064-0.918 0.078-0.246 0.014-0.513 0.02-0.8 0.02-1.315 0-2.396-0.208-3.243-0.626-1.483-0.728-2.226-2.03-2.226-3.905 0-1.394 0.494-2.468 1.484-3.223 0.989-0.755 2.142-1.133 3.456-1.133 2.345 0 3.966 0.781 4.864 2.344 0.495 0.859 0.775 2.084 0.84 3.672h3.477c0-2.084-0.417-3.854-1.25-5.312-1.433-2.604-3.952-3.906-7.56-3.906-2.851 0-5.058 0.639-6.619 1.914-1.563 1.263-2.345 3.1-2.345 5.508 0 1.719 0.462 3.112 1.387 4.181 0.573 0.663 1.315 1.184 2.227 1.562-1.472 0.403-2.617 1.185-3.438 2.343-0.833 1.147-1.25 2.554-1.25 4.221 0 2.668 0.88 4.843 2.638 6.522 1.757 1.677 4.25 2.517 7.48 2.516zm-13.125-0.762c-0.131-2.409-0.625-4.506-1.484-6.289-0.872-1.783-2.565-3.404-5.078-4.863l-3.75-2.168c-1.681-0.977-2.858-1.811-3.535-2.5-1.068-1.081-1.603-2.317-1.603-3.71 0-1.628 0.489-2.917 1.466-3.868 0.977-0.963 2.278-1.445 3.905-1.445 2.41 0 4.076 0.912 5 2.734 0.496 0.977 0.769 2.331 0.82 4.062h3.575c-0.039-2.436-0.488-4.42-1.348-5.957-1.523-2.708-4.213-4.062-8.066-4.062-3.203 0-5.541 0.866-7.012 2.598-1.484 1.731-2.227 3.658-2.227 5.78 0 2.24 0.788 4.154 2.363 5.743 0.911 0.925 2.545 2.045 4.902 3.359l2.676 1.484c1.275 0.703 2.278 1.374 3.008 2.012 1.302 1.133 2.122 2.39 2.46 3.771h-15.273v3.32l19.201-1e-3zm-24.844-19.804v-2.695c-2.539-0.247-4.311-0.657-5.312-1.23-1.003-0.586-1.752-1.959-2.246-4.121h-2.773v27.852h3.75v-19.803h6.582v-3e-3zm-39.922 20.566c3.307 0 5.709-0.905 7.207-2.715 1.483-1.823 2.226-4.036 2.226-6.641h-3.671c-0.156 1.811-0.495 3.125-1.016 3.945-0.911 1.472-2.559 2.207-4.941 2.207-1.85 0-3.334-0.495-4.454-1.484s-1.68-2.266-1.68-3.828c0-1.927 0.593-3.274 1.778-4.043 1.172-0.769 2.806-1.152 4.901-1.152 0.235 0 0.476 7e-3 0.724 0.02 0.234 0 0.476 7e-3 0.723 0.021v-3.106c-0.364 0.039-0.671 0.064-0.918 0.078s-0.515 0.02-0.801 0.02c-1.315 0-2.396-0.208-3.242-0.626-1.484-0.728-2.227-2.03-2.227-3.905 0-1.394 0.494-2.468 1.484-3.223 0.989-0.755 2.142-1.133 3.457-1.133 2.344 0 3.965 0.781 4.863 2.344 0.494 0.859 0.774 2.084 0.84 3.672h3.476c0-2.084-0.416-3.854-1.25-5.312-1.432-2.604-3.951-3.906-7.558-3.906-2.852 0-5.059 0.639-6.621 1.914-1.562 1.263-2.344 3.1-2.344 5.508 0 1.719 0.462 3.112 1.387 4.181 0.573 0.663 1.314 1.184 2.227 1.562-1.472 0.403-2.617 1.185-3.438 2.343-0.833 1.147-1.25 2.554-1.25 4.221 0 2.668 0.879 4.843 2.636 6.522 1.759 1.677 4.253 2.517 7.482 2.516zm-25.098-10.664v-12.676l8.965 12.676h-8.965zm-0.058 9.902v-6.835h12.266v-3.438l-12.812-17.773h-2.969v18.145h-4.121v3.066h4.121v6.836h3.515v-1e-3zm-13.926-7.128c-0.234 2.005-1.166 3.392-2.793 4.16-0.833 0.391-1.797 0.586-2.891 0.586-2.084 0-3.627-0.664-4.63-1.992-1.002-1.328-1.504-2.8-1.504-4.414 0-1.954 0.6-3.464 1.797-4.53 1.186-1.068 2.611-1.603 4.278-1.603 1.211 0 2.252 0.234 3.125 0.703 0.859 0.469 1.595 1.12 2.207 1.953l3.047-0.176-2.13-15.059h-14.53v3.398h11.895l1.19 7.773c-0.65-0.495-1.269-0.866-1.854-1.113-1.042-0.43-2.246-0.645-3.613-0.645-2.565 0-4.74 0.827-6.523 2.48-1.784 1.653-2.677 3.75-2.677 6.289 0 2.644 0.82 4.974 2.461 6.992 1.628 2.019 4.232 3.027 7.813 3.027 2.278 0 4.297-0.638 6.055-1.913 1.745-1.29 2.722-3.263 2.931-5.919h-3.654v3e-3zm-22.266 0c-0.234 2.005-1.165 3.392-2.793 4.16-0.834 0.391-1.797 0.586-2.891 0.586-2.083 0-3.627-0.664-4.63-1.992-1.002-1.328-1.503-2.8-1.503-4.414 0-1.954 0.599-3.464 1.797-4.53 1.185-1.068 2.61-1.603 4.277-1.603 1.21 0 2.252 0.234 3.125 0.703 0.859 0.469 1.596 1.12 2.207 1.953l3.047-0.176-2.129-15.059h-14.531v3.398h11.894l1.192 7.773c-0.651-0.495-1.27-0.866-1.856-1.113-1.041-0.43-2.245-0.645-3.612-0.645-2.565 0-4.74 0.827-6.523 2.48-1.784 1.653-2.676 3.75-2.676 6.289 0 2.644 0.82 4.974 2.46 6.992 1.628 2.019 4.232 3.027 7.812 3.027 2.279 0 4.298-0.638 6.056-1.913 1.744-1.29 2.721-3.263 2.93-5.919h-3.653z" fill="#fff" fill-opacity=".196"/><path d="M0,154h780V52H0V154z"/><path d="M46,177h562v80H46V177z" fill="#fff"/><path d="m528.85 230.6h-7.199v-31h-3.651l-10.2 6.3 1.8 2.95 7.9-4.75v26.5h-8.5v3.4h19.85v-3.4zm17.58-31.6c-4.649 0-7.75 1.65-10.5 4.95l2.9 2.2c2.2-2.55 4.05-3.65 7.45-3.65 3.85 0 6.149 2.4 6.149 6.25 0 5.65-2.8 9.4-15.8 21.85v3.4h20.45l0.5-3.55h-16.2c11.351-10.35 15.4-15.5 15.4-21.8 1e-3 -5.5-3.849-9.65-10.349-9.65zm29.98 0c-3.5 0-6.851 1.2-9.75 4l2.25 2.55c2.3-2.15 4.35-3.2 7.3-3.2 3.65 0 6.55 2.05 6.55 5.85 0 4.15-3.25 6.05-6.55 6.05h-2.05l-0.5 3.3h2.899c4.051 0 7.15 1.6 7.15 6.55 0 4.3-2.85 7.05-7.7 7.05-2.8 0-5.7-1.15-7.649-3.45l-2.801 2.3c2.601 3.2 6.7 4.55 10.551 4.55 7.1 0 11.949-4.5 11.949-10.45 0-5.35-3.8-8.15-7.85-8.45 3.65-0.7 6.75-3.85 6.75-8 1e-3 -4.7-4.099-8.65-10.549-8.65z"/><path d="m71 357.5h83c13.807 0 25 11.193 25 25v45c0 13.807-11.193 25-25 25h-83c-13.807 0-25-11.193-25-25v-45c0-13.807 11.193-25 25-25z" fill="#fff" fill-opacity=".5"/></svg>
