<svg width="780" height="500" enable-background="new 0 0 780 500" version="1.1" viewBox="0 0 780 500" xml:space="preserve" xmlns="http://www.w3.org/2000/svg"><polygon points="486.1 347.13 500.13 347.13 504.13 333.22 490.2 333.22" fill="#393939"/><path d="m497.32 308.85l-4.858 16.469s5.291-2.782 8.206-3.673c2.915-0.667 7.232-1.225 7.232-1.225l3.348-11.46h-14.034l0.106-0.111z" fill="#393939"/><path d="m504.18 285.26l-4.481 13.907s5.003-2.153 7.816-2.838c2.813-0.687 6.983-0.882 6.983-0.882l3.23-10.09h-13.445l-0.103-0.097z" fill="#393939"/><path d="m418.18 299.17s5.29-5.005 14.36-6.562c2.051-0.445 15.007-0.225 15.007-0.225l1.944-6.676h-27.316l-3.996 13.575 1e-3 -0.112z" fill="#393939"/><path d="m443.87 304.29h-27.1l-1.619 5.675h23.537c2.807-0.334 3.347 0.111 3.562-0.111l1.728-5.563h-0.108v-1e-3z" fill="#393939"/><path d="m367.78 221.44c-0.324 2.002-2.052 9.458-4.319 12.574-1.62 2.336-3.456 3.783-5.615 3.783-0.647 0-4.319 0-4.426-5.675 0-2.781 0.539-5.675 1.187-8.79 1.944-9.013 4.319-16.467 10.257-16.467 4.643-1e-3 4.966 5.562 2.916 14.575z" fill="#393939"/><path d="m556.26 222.93c-0.432 1.891-2.16 9.457-4.427 12.573-1.513 2.225-5.183 3.672-7.233 3.672-0.647 0-4.211 0-4.427-5.562 0-2.783 0.539-5.675 1.187-8.791 1.944-8.79 4.32-16.245 10.258-16.245 4.643 0 6.693 5.452 4.643 14.465v-0.112h-1e-3z" fill="#393939"/><path d="m511.29 185.45c-1.295 6.12-5.182 11.35-10.147 13.797-4.104 2.113-9.07 2.336-14.252 2.336h-3.348l0.216-1.335s6.155-27.594 6.155-27.483l0.215-1.447 0.108-1.112 2.482 0.223s12.74 1.112 12.957 1.112c4.967 2.004 7.127 7.122 5.614 13.909z" fill="#393939"/><path d="m740.77 0h-699.05c-23.035 0-41.725 19.07-41.725 42.596v416.31c0 23.53 18.681 42.596 41.725 42.596h699.05c23.035 0 41.726-19.07 41.726-42.596v-416.31c0-23.53-18.682-42.596-41.726-42.596zm-187.64 196.45c2.846 1.131 4.789 2.873 6.162 4.934 0.062-0.48 0.125-0.967 0.188-1.464l0.648-0.556c8.961-1.337 11.443-1.67 20.837-3.45l0.216 0.778c-1.729 7.344-3.347 14.577-5.075 21.808-3.454 15.243-4.641 23.033-5.937 31.044l-0.864 0.667v-0.112c-9.07-0.111-11.66-0.111-19.976 0.334l-0.539-0.667 0.721-2.798c-2.86 2.338-5.933 3.923-9.23 4.112-3.347 0.223-6.692-0.223-10.364-1.891-11.553-4.562-9.718-17.692-8.097-24.813 1.51-7.121 4.318-14.575 9.933-19.916 7.988-7.565 17.382-9.68 21.377-8.01zm-87.945-8.889c0-0.111 5.83-27.705 5.83-27.705s0.432-2.113 0.647-3.338c2.59 0.333 9.068 0.445 25.265 0.223l6.262-0.112c12.632 0.112 23.537 0.223 29.043 8.123 2.16 3.004 2.915 6.787 2.915 10.682 0 3.003-0.432 5.896-0.971 8.344-2.268 10.014-7.234 18.359-14.575 23.923-10.798 8.123-24.509 8.123-36.71 8.123h-1.297c-0.863 0.555-1.726 1.78-1.726 1.78-0.108 0.445-2.916 12.462-2.916 12.462-0.108 0-3.346 16.355-3.887 19.137-2.483-0.334-8.206-0.334-22.35-0.112 0.65-2.781 14.47-61.53 14.47-61.53zm-71.706 41.939c3.671-16.801 4.535-23.254 5.613-31.822l0.647-0.445c8.64-1.224 10.798-1.558 20.082-3.449l0.757 0.89-1.296 5.341c1.513-1.001 3.132-2.003 4.644-2.782 4.427-2.226 9.285-2.893 11.982-2.893 4.104 0 8.531 1.225 10.474 6.12 1.728 4.339 0.541 9.68-1.835 20.251l-1.188 5.341c-2.482 11.794-2.807 13.908-4.104 21.919l-0.862 0.667 0.107 0.112c-7.449-0.112-10.041-0.112-18.786 0.333l-0.324-0.668c0.756-3.45 1.62-6.787 2.375-10.237l0.971-4.673c1.621-7.231 3.24-15.8 3.348-18.358 0.216-1.558 0.647-5.452-3.563-5.452-1.835 0-3.777 0.889-5.613 1.779-0.972 3.895-3.132 14.799-4.212 19.694-2.051 10.459-2.267 11.683-3.238 16.802l-0.647 0.667c-7.665-0.111-10.364-0.111-19.218 0.334l-0.432-0.779c1.512-6.229 2.914-12.461 4.318-18.692zm7.5 49.641l-3.563 12.127h-26.56l-2.915 2.561c-1.296 1.225-1.619 0.779-3.24 1.67-1.51 0.777-4.642 2.335-8.745 2.335h-8.529l3.454-11.682h2.592c2.16 0 3.672-0.224 4.427-0.668 0.864-0.557 1.836-1.78 2.807-3.783l4.858-9.124h19.327l-3.291 6.564h19.378zm-166.35-64.096c-2.592 9.68-5.614 20.695-17.167 27.705-6.586 4.116-16.411 6.454-26.884 6.454-8.098 0-22.458-1.335-27.532-10.459-1.62-2.783-2.375-6.231-2.375-10.348l1.834-14.021 0.973-4.227 11.014-50.406s0.539-2.781 0.648-3.226c0.216 0.333 3.993 0.557 25.048 0.333 0 0.111 0 0.334-0.107 0.667-1.943 5.897-12.741 50.627-12.741 50.627 0 0.11-2.051 13.352-2.051 13.352l0.109 2.226c0.647 6.564 4.534 10.013 11.336 10.013 4.21 0 7.882-1.223 11.013-3.894 5.398-4.562 7.018-11.684 9.286-21.586 0 0 10.365-49.068 10.904-51.738v0.112c1.511 0.334 5.938 0.445 21.27 0.334-0.109 0.111-0.109 0.333-0.216 0.667-1.943 6.008-13.064 52.406-13.064 52.406l-1.298 5.009zm60.939 5.666l-1.187 5.341c-2.376 11.794-2.807 13.908-4.104 21.919l-0.863 0.667 0.107 0.112h1e-3 -1e-3c-7.45-0.112-10.149-0.112-18.894 0.333l-0.325-0.668c0.756-3.45 1.619-6.787 2.267-10.237l1.08-4.673c1.619-7.231 3.131-15.8 3.347-18.358 0.216-1.558 0.647-5.452-3.672-5.452-1.835 0-3.67 0.889-5.613 1.779-1.081 3.895-3.132 14.799-4.212 19.694-2.16 10.459-2.267 11.683-3.239 16.802l-0.648 0.667c-7.666-0.111-10.364-0.111-19.218 0.334l-0.432-0.779c1.512-6.231 2.915-12.462 4.319-18.693 3.67-16.801 4.643-23.254 5.613-31.822l0.756-0.445c8.638-1.224 10.689-1.558 20.082-3.449l0.755 0.89-1.403 5.341c1.619-1.001 3.131-2.003 4.75-2.782 4.427-2.226 9.286-2.893 11.985-2.893 4.102 0 8.637 1.225 10.473 6.12 1.731 4.341 0.65 9.681-1.724 20.252zm31.723-3.309c-0.864 3.672-1.728 7.343-2.483 11.016-1.621 7.789-2.376 10.682-2.699 12.795-0.432 2.003-0.541 3.005-1.189 7.01l-0.432 0.333-0.432 0.334-0.216-0.112c-4.534 0-7.449-0.111-10.255 0-2.808 0-5.507 0.223-9.718 0.334l-0.216-0.334-0.216-0.445c1.188-4.451 1.728-6.008 2.375-7.566 0.54-1.558 1.079-3.115 2.16-7.677 1.294-5.898 2.159-10.015 2.698-13.687 0.648-3.45 0.972-6.453 1.404-9.903l0.323-0.222 0.324-0.334c4.536-0.668 7.343-1.113 10.258-1.558 2.916-0.445 5.938-1.001 10.581-1.891l0.216 0.445 0.107 0.445-2.59 11.017zm0.88-15.357c-4.966 3.561-12.416 4.229-16.518 1.78-4.211-2.67-3.672-7.565 1.295-11.015 4.967-3.56 12.417-4.34 16.627-1.78 4.211 2.558 3.562 7.454-1.404 11.015zm6.887 20.844c1.512-7.121 4.211-14.577 9.933-20.028 7.99-7.566 18.138-8.011 22.458-8.011 7.125 0 14.035 1.668 17.922 6.787 2.483 3.337 4.534 8.901 1.944 20.696h0.106c-0.864 3.672-3.131 12.351-8.205 18.137-6.586 7.121-15.332 9.568-23.861 9.568-3.347 0-8.53-0.444-12.092-2.001-11.661-4.898-9.825-17.916-8.205-25.148zm39.977 141.13h-21.81c-1.726 0-3.022-0.223-4.966-0.668-1.836-0.444-2.699-1.335-3.454-2.559-0.757-1.335-2.053-2.338-1.189-5.23l6.262-21.362h-10.796l3.563-12.239h10.796l2.915-9.902h-10.795l3.456-11.685-0.216-0.11h47.396l-3.456 11.684h-18.894l-2.914 9.901h19.434l-3.563 12.018h-19.327l-4.75 16.134c-0.539 1.78 4.643 2.003 6.478 2.003l9.717-1.336-3.887 13.351zm80.264-33.83c-0.646 2.337-1.187 4.118-2.915 5.675-1.835 1.559-3.886 3.227-8.852 3.227l-9.178 0.445-0.108 8.457c-0.107 2.335 0.541 2.112 0.863 2.558 0.433 0.445 0.756 0.558 1.188 0.78l2.915-0.224 8.747-0.444-3.672 12.462h-10.041c-7.018 0-12.309-0.224-13.929-1.558-1.727-1.113-1.942-2.448-1.942-4.896l0.646-33.157h16.088l-0.216 6.787h3.886c1.297 0 2.27-0.111 2.809-0.445 0.539-0.333 0.864-0.89 1.08-1.669l1.619-5.34h12.479l0.045-0.223 0.109 0.223h-0.154l-1.467 7.342zm1.42-15.773c-0.97 1.558-2.159 3.004-4.533 4.339-2.268 1.225-4.32 2.003-6.263 2.115-1.728 0.11-4.535 0.223-8.206 0.223h-25.804l-7.234 24.812c-0.646 2.447-0.971 3.67-0.539 4.338 0.323 0.558 1.295 1.225 2.483 1.225l11.336-1.112-3.887 13.574h-12.739c-4.104 0-7.019-0.111-9.07-0.224-1.943-0.221-3.996 0-5.399-1.111-1.187-1.112-3.022-2.559-2.915-4.006 0.109-1.335 0.648-3.561 1.513-6.676l23.212-79.223h16.52l-2.375 8.568s5.182-4.339 8.853-5.898c3.671-1.335 11.876-2.67 11.876-2.67l26.776-0.11-9.177 31.377c-1.512 5.34-3.348 8.79-4.428 10.459zm132.61-5.441h-18.894l-2.915 9.681h18.894l-3.132 10.569h-20.405l-3.67 4.45h8.313l2.051 13.353c0.216 1.335 0.216 2.225 0.646 2.782 0.434 0.445 2.917 0.668 4.319 0.668h2.483l-3.886 13.018h-6.371c-0.971 0-2.483-0.111-4.534-0.111-1.944-0.224-3.238-1.336-4.534-2.003-1.188-0.557-2.915-2.003-3.347-4.562l-1.944-13.353-9.285 13.13c-2.916 4.116-6.909 7.344-13.712 7.344h-12.955l1.231-4.129h-4.271l-1.188 3.895h-17.276l1.189-3.895h-34.982l3.454-11.792h3.562l18.356-62.756 3.67-12.685h17.6l-1.836 6.342s4.642-3.448 9.178-4.674c3.581-0.989 20.946-1.468 27.444-1.618l-0.049-0.05h18.786l0.216 7.232c-0.106 1.224 0.864 1.78 3.131 1.78h3.779l-3.454 11.906h-10.149c-8.745 0.668-12.093-3.227-11.877-7.566l-0.146-5.95-1.553 5.171h-6.046l0.107 0.111-18.139 61.753h4.859l-1.581 5.351h4.405c1.403 0 2.699-0.555 3.67-1.112 0.972-0.445 1.836-0.89 2.699-2.335l13.604-19.695h-17.924l3.023-10.569h20.514l2.915-9.681h-20.188l3.453-11.906h56.145l-3.453 11.906zm12.79-37.747l-1.404 1.67h-0.148l-7.115 12.589c-2.269 4.339-6.587 7.677-13.281 7.677l-11.553-0.223 3.348-11.571h2.267c1.188 0 2.051-0.111 2.699-0.445 0.648-0.223 0.973-0.668 1.512-1.335l4.319-7.01h0.549l-0.086-0.239c5.83-9.011 7.232-12.904 13.28-23.142-1.079-11.461-1.62-15.132-2.483-22.698-0.54-4.451-1.188-9.013-1.728-13.576-1.08-9.235-0.863-7.9-1.943-13.796l-0.109-0.112c0-0.333 0-0.667 0.109-1.001l0.646-0.668c8.855-1.224 9.069-1.558 18.787-3.449l0.755 0.89 1.297 25.592c0.108 0.557 0.108 0.89 0.108 1.447 5.073-11.794 4.966-8.568 11.229-23.588v0.111c0-0.223 0.107-0.333 0.107-0.445l0.647-0.668c8.422-1.224 10.149-1.558 19.327-3.449l0.755 0.89 0.109 0.11c0-1e-3 -37.142 65.647-42 76.439z" fill="#393939"/></svg>
