<svg width="780" height="500" enable-background="new 0 0 780 500" version="1.1" viewBox="0 0 780 500" xml:space="preserve" xmlns="http://www.w3.org/2000/svg"><rect width="780" height="500" fill="#fff"/><path d="m114.26 257.95c-4.8 0.601-13.203 2.399-18.004 6.601-14.403 12.6-6.001 34.799 23.406 34.799 16.803 0 33.607-10.801 46.81-27.601-19.204-9-34.808-15.601-52.212-13.799z" fill="#2BA6DF"/><path d="m221.83 273.4c27.006 9 33.007 9.6 33.007 9.6v-95.998c0-16.199-13.203-29.398-30.006-29.398h-126.03c-16.204 0-30.007 13.2-30.007 29.4v126c0 16.199 13.203 29.398 30.007 29.398h126.03c16.203 0 30.006-13.2 30.006-29.4v-1.199s-48.01-19.799-72.616-31.799c-16.203 19.799-37.208 32.398-59.413 32.398-37.208 0-49.811-32.398-31.807-53.398 3.6-4.8 10.202-9 20.404-11.399 15.604-3.601 40.81 2.399 64.215 10.2 4.2-7.801 7.801-16.2 10.202-25.2h-72.616v-7.2h37.208v-14.399h-45.61v-7.2h45.61v-18.599s0-3 3-3h18.005v22.2h45.01v6.601h-45.01v13.199h36.608c-3.6 14.399-9.002 27.6-15.604 38.998 12.003 4.2 22.205 7.801 29.407 10.199v-4e-3z" fill="#2BA6DF"/><path d="m340.49 201.22l39.607 85.798h-21.005l-10.802-22.802h-32.408l-10.802 22.802h-13.803l40.209-83.398s1.198-2.4 3.6-2.4h5.404zm-21.006 55.197h25.206l-12.604-27-12.602 27zm87.448 31.282h-19.204v-81.598c0-2.399 1.2-3.601 4.2-3.601h15.004v85.199zm36.007-0.558h-19.203v-61.798c0-2.4 1.198-3.601 4.198-3.601h15.005v65.399zm23.483-64.116h12.604v6c2.399-1.8 4.801-3.601 7.801-4.2 3.002-1.199 6.002-1.8 10.203-1.8 4.198 0 7.801 0.601 10.803 2.399 3.6 1.801 6 3.601 8.4 6.601 2.399 3 4.2 6 5.401 9.601 1.199 3.6 1.799 7.199 1.799 11.397 0 5.4-0.6 10.201-2.397 14.4-1.801 4.199-3.603 8.399-6.603 11.399-3.002 2.999-6.002 5.999-10.203 7.8-4.2 1.799-8.401 2.398-13.202 2.398h-6.603c-1.799 0-3.6-0.601-5.399-1.199v21.6h-19.206v-78.598c-0.599-7.798 2.401-7.798 6.602-7.798zm12.603 46.798c0 1.801 0 3 0.6 4.2 0.6 1.199 1.201 2.398 2.4 3.601 1.198 1.199 2.399 1.799 3.602 2.399 1.199 0.601 3 0.601 4.801 0.601 1.799 0 3-0.601 4.801-1.801 1.199-1.199 3-2.4 3.603-4.8 0.6-2.399 1.799-4.2 2.397-7.2 0.603-3 1.201-5.4 1.201-9 0-4.199 0-7.799-0.6-10.799-0.603-3-1.201-5.4-2.4-7.8-1.201-1.8-2.399-3.601-3.6-4.8-1.201-1.2-3.002-1.801-4.803-1.801-1.199 0-2.4 0-3.601 0.601s-2.399 1.2-3.002 1.8c-1.199 0.6-1.799 1.801-3 2.4-1.201 1.199-1.801 1.8-2.399 3v29.399zm81.028-46.798c4.801 0 8.402 0.601 12.002 1.2 3 0.6 6.002 1.8 8.402 3.6 2.4 1.801 3.6 3.6 4.801 5.4 1.199 2.4 1.801 4.8 1.801 7.199v47.398h-19.205v-4.801c-1.198 1.201-2.397 1.801-3 2.399l-3.602 1.802c-1.199 0.6-2.4 1.198-4.199 1.198-1.801 0.601-3.602 0.601-5.401 0.601-3 0-5.4-0.601-7.804-1.199-2.397-0.6-4.198-1.801-6-3.6-1.801-1.201-3.002-3-3.602-5.4-0.6-1.801-1.199-4.199-1.199-6.6 0-2.402 0.601-4.802 1.199-6.601 0.6-1.802 2.4-3.601 3.602-5.399 1.199-1.802 3.601-3 5.4-4.201 2.4-1.199 4.201-2.398 7.203-3.601 2.398-1.198 4.799-1.799 7.801-2.998 2.4-0.601 5.4-1.801 7.801-2.4l2.4-0.6v-6.601c0-1.8 0-3.6-0.6-5.399l-1.802-3.601c-0.6-0.6-1.799-1.8-2.397-1.8-1.201-0.6-2.4-0.6-3.603-0.6 0 0-10.202 0-19.204 7.8l-4.201-6.601c-1.797 1.204 9.004-6.595 23.407-6.595zm6.599 31.799c-1.8 0.601-3.601 1.8-5.398 3l-5.402 3.601c-1.801 1.199-3 2.399-3.6 4.199-1.201 1.2-1.201 3-1.201 4.2 0 1.199 0 2.4 0.601 3.601 0.6 1.199 0.6 1.8 1.198 3 0.603 1.199 1.201 1.199 1.802 1.8 0.6 0.601 1.2 0.601 2.399 0.601 1.801 0 3.002-0.601 4.801-1.2l5.402-3.6v-19.2l-0.602-2e-3zm46.555 53.998h-12.604l-0.6-11.399s15.604 0.601 20.404-5.399c1.801-2.4 3-9 3-9l-31.205-59.998h21.004l19.805 39 17.404-39h13.803l-31.807 70.799c-1.2 2.4-6.001 14.998-19.204 14.997z" fill="#3F3A39"/><ellipse cx="433.4" cy="204.1" rx="9.602" ry="8.5" fill="#2BA6DF"/><path d="m683.68 172.91h-6.602v-1.201h14.402v1.201h-6.601v18.599h-1.801v-18.599h0.602zm10.716-1.201h2.399l4.201 11.4 1.801 4.2c0.601-1.2 1.199-3 1.799-4.2l4.201-11.4h2.4v20.4h-2.397v-18l-1.8 4.801-4.201 12h-1.199l-4.2-12-1.802-4.801v18h-1.801v-20.4h0.599z" fill="#3F3A39"/></svg>
