<svg width="780" height="500" enable-background="new 0 0 780 501" version="1.1" viewBox="0 0 780 501" xml:space="preserve" xmlns="http://www.w3.org/2000/svg"><rect width="780" height="500" fill="#fff"/><path d="m333.56 399.69l-286.53 0.104v-0.69c0-0.379 0.457-2.838 1.015-5.465 0.559-2.626 1.427-6.804 1.931-9.283 0.502-2.479 1.362-6.692 1.909-9.364 1.346-6.527 2.676-13.058 3.989-19.592 0.517-2.576 1.378-6.79 1.916-9.363 0.686-3.293 1.364-6.588 2.037-9.884 0.582-2.86 1.467-7.231 1.967-9.711s1.294-6.303 1.765-8.495c0.47-2.193 1.071-5.158 1.333-6.59 0.263-1.43 1.114-5.645 1.891-9.363 0.654-3.117 1.29-6.238 1.905-9.363 0.271-1.43 1.132-5.645 1.914-9.363 0.781-3.718 1.639-7.932 1.907-9.363 0.268-1.43 1.131-5.644 1.917-9.363 0.788-3.72 1.638-7.854 1.888-9.189 0.252-1.335 0.94-4.768 1.53-7.629 0.589-2.861 1.705-8.245 2.479-11.964 0.775-3.72 2.099-10.196 2.942-14.394 0.845-4.195 1.854-9.188 2.243-11.096 1.143-5.608 2.296-11.215 3.461-16.818 0.574-2.768 1.507-7.293 2.074-10.059 0.568-2.766 1.442-7.057 1.943-9.536s1.356-6.614 1.9-9.19c0.544-2.574 1.48-7.101 2.08-10.057 0.6-2.957 1.605-7.482 2.233-10.057s1.516-5.696 1.974-6.935c0.457-1.241 1.72-3.927 2.806-5.973l1.975-3.717 1.795-2.352c0.986-1.292 2.749-3.335 3.916-4.539s3.135-3.016 4.376-4.026c1.239-1.011 3.034-2.375 3.987-3.031 0.954-0.656 2.827-1.805 4.162-2.553s3.209-1.727 4.162-2.176c0.954-0.449 2.905-1.27 4.335-1.823 1.43-0.552 4.161-1.479 6.068-2.058 1.907-0.58 5.488-1.454 7.957-1.941 2.469-0.488 6.369-1.14 8.67-1.449l4.181-0.562 286.71-0.108 286.71-0.111v0.69c0 0.379-0.46 2.838-1.021 5.464-0.709 3.323-1.405 6.648-2.088 9.977-0.588 2.861-1.441 6.997-1.901 9.19-0.65 3.12-1.295 6.241-1.933 9.363-0.604 2.957-1.532 7.483-2.063 10.057-0.531 2.575-1.392 6.789-1.912 9.363-0.52 2.576-1.386 6.789-1.923 9.363-0.626 3.004-1.244 6.01-1.854 9.018-0.481 2.384-1.353 6.675-1.936 9.536-0.584 2.86-1.521 7.387-2.083 10.057s-1.418 6.806-1.902 9.19c-0.485 2.384-1.356 6.675-1.938 9.535-0.582 2.861-1.517 7.388-2.079 10.059-0.562 2.67-1.398 6.727-1.861 9.016-1.283 6.359-2.575 12.718-3.874 19.074-0.47 2.288-1.307 6.346-1.86 9.016-0.709 3.408-1.411 6.818-2.108 10.23-0.605 2.957-1.471 7.169-1.923 9.364-0.454 2.192-1.301 6.327-1.885 9.188-0.684 3.354-1.371 6.705-2.063 10.057-0.551 2.671-1.415 6.885-1.921 9.365-0.504 2.479-1.383 6.771-1.95 9.535-0.568 2.766-1.497 7.291-2.062 10.057-0.566 2.766-1.414 6.902-1.885 9.191-0.642 3.119-1.278 6.24-1.912 9.362-0.683 3.343-1.383 6.683-2.102 10.019l-1.044 4.817-1.244 3.332c-0.684 1.833-1.713 4.269-2.287 5.414-0.571 1.144-1.738 3.163-2.592 4.487-0.854 1.322-2.044 3.018-2.644 3.767-0.601 0.749-2.407 2.683-4.018 4.299l-2.923 2.935-2.814 2c-1.548 1.101-3.217 2.22-3.705 2.486-0.49 0.268-2.355 1.221-4.146 2.115-1.789 0.896-4.317 2.037-5.617 2.534-1.3 0.499-3.875 1.346-5.722 1.883-1.847 0.539-3.827 1.069-4.398 1.179-0.573 0.109-2.559 0.52-4.414 0.914-1.855 0.393-5.601 0.979-8.322 1.303l-4.95 0.59-286.53 0.1zm-101.94-74.115h7.456l0.21-0.549c0.117-0.302 0.211-1.011 0.211-1.576s0.246-2.619 0.547-4.565c0.3-1.948 1.004-6.427 1.566-9.955 0.561-3.529 1.401-8.835 1.867-11.791 0.443-2.8 0.864-5.604 1.265-8.41 0.229-1.669 0.508-3.034 0.621-3.034 0.112 0 0.594 0.737 1.071 1.639l0.866 1.639 1.922 1.938 1.923 1.937 2.366 0.948 2.367 0.947 2.82 0.365 2.821 0.365 3.579-0.219 3.58-0.221 3.876-1.002 3.877-1.005 2.08-0.948c1.145-0.522 3.173-1.662 4.508-2.531l2.428-1.581 2.263-2.263c1.245-1.242 3.001-3.238 3.901-4.434 0.902-1.193 1.639-2.258 1.639-2.364s0.443-0.846 0.984-1.644c0.541-0.797 1.647-3.012 2.459-4.918 0.813-1.907 2.081-5.34 2.821-7.629l1.344-4.162 0.695-3.604c0.382-1.982 0.874-5.26 1.093-7.283l0.397-3.678-0.23-3.121-0.229-3.121-0.725-3.121-0.723-3.121-1.172-2.336-1.171-2.338-2.263-2.398-2.262-2.398-2.677-1.384-2.677-1.383-2.948-0.707-2.948-0.705-2.948-0.216-2.947-0.217-3.283 0.377-3.285 0.378-2.679 0.685-2.68 0.684-2.329 1.078c-1.28 0.592-3.144 1.599-4.14 2.236-0.997 0.639-2.026 1.371-2.286 1.63-0.259 0.259-0.882 0.74-1.382 1.066l-0.911 0.597 0.636-3.047c0.351-1.675 0.643-3.24 0.651-3.48l0.014-0.433h-12.716l-1.114 7.022c-0.614 3.863-1.582 9.832-2.152 13.266-1.257 7.574-2.529 15.145-3.816 22.714-0.567 3.337-1.504 8.644-2.083 11.791s-1.426 7.751-1.884 10.231c-0.457 2.479-1.319 7.16-1.913 10.402-0.701 3.816-1.409 7.631-2.124 11.444-0.677 3.586-1.369 7.169-2.074 10.75-0.568 2.86-1.116 5.554-1.221 5.981l-0.189 0.781h7.457v1e-3zm32.1-40.095l-2.895 0.175-1.892-0.336-1.893-0.334-1.922-0.877-1.923-0.878-1.342-1.282-1.343-1.281-0.775-1.734c-0.427-0.954-0.974-2.574-1.217-3.602l-0.442-1.865 0.177-2.989 0.178-2.987 0.893-4.683c0.674-3.579 1.328-7.163 1.96-10.75 0.587-3.338 1.477-8.229 1.976-10.869l0.907-4.8 1.988-1.654c1.094-0.908 2.826-2.129 3.85-2.709l1.86-1.056 2.427-0.751 2.428-0.752 3.121-0.184 3.121-0.183 2.542 0.542 2.541 0.541 1.794 0.826 1.793 0.826 1.504 1.512 1.505 1.512 0.81 1.602c0.447 0.881 1.074 2.604 1.393 3.83l0.581 2.229-0.178 6.59-0.178 6.59-0.89 3.895c-0.49 2.142-1.422 5.419-2.072 7.281l-1.181 3.389-1.448 2.742c-0.796 1.509-2.023 3.547-2.727 4.529s-1.827 2.258-2.495 2.83c-0.809 0.688-1.637 1.352-2.484 1.991l-1.271 0.949-2.943 1.001-2.943 1.001-2.895 0.173zm72.011 9.534l3.815 0.044 3.813-0.348c2.1-0.191 5.532-0.59 7.629-0.887 2.1-0.295 5.724-0.957 8.056-1.469l4.239-0.933 0.212-1.564c0.115-0.858 0.592-3.417 1.058-5.685l0.847-4.125-0.188-0.186-0.187-0.187-1.296 0.625c-0.713 0.344-2.934 1.166-4.934 1.825l-3.638 1.197-3.818 0.741-3.818 0.739-6.068 0.013-6.069 0.011-2.081-0.664c-1.144-0.365-2.827-1.033-3.74-1.486l-1.659-0.821-1.369-1.237-1.37-1.238-1.069-1.867-1.069-1.869-0.67-2.342-0.67-2.344-4e-3 -4.336-5e-3 -4.336 0.594-3.867 0.597-3.869 5.218-0.244 5.218-0.244 19.291 0.125 19.29 0.123 0.582-2.47c0.321-1.359 0.811-4.168 1.089-6.242l0.506-3.772 0.011-3.172 0.012-3.173-0.549-2.368-0.551-2.369-0.908-1.567c-0.498-0.862-1.38-2.112-1.955-2.778-0.576-0.665-1.605-1.604-2.286-2.084-0.683-0.48-2.02-1.29-2.974-1.797l-1.733-0.922-3.029-0.73-3.03-0.729-3.731-0.357-3.734-0.356-3.467 0.226-3.468 0.225-4.162 0.8-4.161 0.8-2.602 1.039c-1.431 0.57-3.615 1.615-4.854 2.318-1.24 0.703-2.956 1.847-3.813 2.541-0.86 0.696-2.347 2.049-3.304 3.006-0.958 0.957-2.376 2.676-3.148 3.82-0.774 1.146-1.96 3.174-2.638 4.508-0.676 1.336-1.557 3.209-1.958 4.162-0.399 0.953-1.129 2.904-1.617 4.334-0.49 1.432-1.26 4.162-1.709 6.07-0.53 2.311-0.988 4.637-1.373 6.977l-0.554 3.51 6e-3 5.16 6e-3 5.16 0.526 2.254c0.289 1.24 0.845 3.113 1.231 4.162s1.104 2.609 1.593 3.468 1.532 2.239 2.318 3.071c0.785 0.83 2.21 2.092 3.164 2.801 0.952 0.709 2.65 1.709 3.771 2.219l2.039 0.928 2.843 0.688c1.563 0.378 3.923 0.826 5.244 0.996 1.317 0.165 4.114 0.325 6.212 0.348zm6.531-48.853c-9.6 0-17.455-0.068-17.455-0.153 0-0.083 0.41-1.293 0.911-2.688 0.5-1.394 1.38-3.468 1.953-4.609l1.045-2.077 2.293-2.281 2.294-2.283 2.255-1.077c1.239-0.593 2.878-1.238 3.641-1.435 0.764-0.196 2.947-0.456 4.854-0.577l3.469-0.223 2.664 0.343 2.662 0.342 1.936 0.886 1.936 0.887 1.062 1.145c0.583 0.629 1.278 1.557 1.546 2.059l0.483 0.916 0.32 2.033 0.321 2.031-0.367 3.381-0.366 3.383h-17.457v-3e-3zm103.75 48.855l3.817 0.042 4.332-0.514c2.383-0.282 5.555-0.75 7.05-1.041 1.806-0.363 3.599-0.789 5.375-1.275 1.462-0.414 2.785-0.861 2.939-0.993 0.155-0.133 0.567-1.706 0.918-3.497s0.792-4.192 0.981-5.337c0.188-1.145 0.286-2.142 0.217-2.217-0.07-0.075-0.325 0.022-0.568 0.214-0.243 0.194-1.944 0.91-3.781 1.592l-3.339 1.24-4.756 0.921-4.756 0.921-4.042-0.137-4.043-0.138-2.297-0.798-2.297-0.797-1.774-1.551-1.773-1.553-1.178-2.145-1.177-2.143-0.562-2.869-0.561-2.867 5e-3 -3.721 3e-3 -3.721 0.681-4.508 0.682-4.51 0.721-2.428c0.396-1.335 0.846-2.895 0.997-3.467 0.152-0.573 0.787-2.211 1.413-3.643 0.625-1.43 1.741-3.641 2.479-4.912l1.342-2.312 1.649-1.709 1.648-1.709 1.745-1.082 1.747-1.083 2.242-0.691c1.233-0.379 3.413-0.873 4.843-1.094l2.602-0.406 3.813 0.191 3.815 0.191 4.508 0.902 4.509 0.901 1.833 0.685c1.008 0.375 1.877 0.685 1.932 0.685 0.054 0 0.296-1.288 0.537-2.862 0.242-1.572 0.672-4.162 0.956-5.752 0.285-1.592 0.449-2.962 0.364-3.045-0.083-0.084-1.438-0.299-3.01-0.479-1.573-0.178-5.848-0.496-9.498-0.707l-6.639-0.381-4.683 0.358-4.681 0.36-3.469 0.728-3.468 0.729-2.233 0.893c-1.229 0.491-3.027 1.378-3.998 1.971-0.931 0.566-1.846 1.156-2.745 1.77-0.54 0.382-2.176 1.87-3.638 3.309l-2.655 2.613-1.484 2.172c-0.814 1.195-2.225 3.686-3.134 5.536l-1.652 3.364-1.267 3.64c-0.696 2.003-1.669 5.28-2.16 7.283l-0.895 3.642-0.325 3.295-0.324 3.295 3e-3 4.334 4e-3 4.334 0.327 2.522 0.327 2.522 1.039 2.594 1.038 2.594 1.201 1.875 1.198 1.875 1.907 1.878 1.909 1.877 2.017 1.068 2.02 1.065 2.65 0.737c1.457 0.404 3.564 0.869 4.682 1.032s3.748 0.316 5.848 0.339h-3e-3zm57.044-0.128l4.681-0.135 2.948-0.754 2.948-0.756 1.908-0.9c1.049-0.495 2.765-1.475 3.813-2.176 1.05-0.7 2.675-2.032 3.609-2.959 0.935-0.928 2.322-2.51 3.082-3.517s1.428-1.784 1.483-1.728c0.058 0.056-0.118 1.658-0.389 3.562-0.269 1.905-0.493 4.438-0.497 5.631l-6e-3 2.166h12.729l0.194-4.94 0.194-4.942 0.908-6.416c0.5-3.529 1.307-8.757 1.794-11.617 0.485-2.86 1.331-7.697 1.879-10.75 0.547-3.053 1.414-7.812 1.925-10.578l0.932-5.027 0.032-4.344 0.03-4.344-0.981-2.007-0.982-2.008-1.331-1.278-1.333-1.279-2.185-1.106-2.188-1.108-3.259-0.726-3.259-0.726-4.486-0.34-4.487-0.342-5.778 0.358c-3.181 0.196-7.652 0.584-9.941 0.862l-4.162 0.505-2.836 0.011-2.836 0.011-0.413 1.995c-0.227 1.096-0.858 3.701-1.401 5.79-0.545 2.088-0.938 3.847-0.877 3.908s1.578-0.283 3.37-0.765c1.792-0.483 5.601-1.275 8.462-1.764l5.201-0.886 4.682-0.192 4.682-0.193 3.016 0.529 3.017 0.528 2.012 0.993 2.013 0.994 1.127 1.68 1.128 1.68-0.016 2.647-0.017 2.649-0.598 2.905-0.598 2.907-12.479 0.045-12.478 0.044-4.083 1.12c-2.246 0.616-4.733 1.434-5.527 1.816-0.794 0.385-1.588 0.699-1.765 0.699-0.176 0-1.512 0.739-2.969 1.646l-2.648 1.645-2.085 2.082c-1.148 1.146-2.613 2.862-3.257 3.816-0.645 0.953-1.691 2.945-2.325 4.427l-1.154 2.693-0.529 3.028-0.53 3.028v6.355l0.505 2.646 0.507 2.646 0.938 1.725c0.517 0.948 1.466 2.339 2.106 3.089l1.168 1.364 2.073 1.26 2.074 1.261 2.375 0.67c1.306 0.369 3.293 0.817 4.417 0.996l2.042 0.321 4.682-0.134h-1e-3zm4.335-9.699l-2.774 0.146-1.838-0.469c-1.01-0.257-2.544-0.83-3.407-1.274l-1.569-0.808-0.858-1.019c-0.471-0.562-1.19-1.661-1.6-2.446l-0.743-1.428-0.145-3.333-0.147-3.334 0.588-2.022c0.323-1.111 1.082-3.043 1.687-4.289l1.098-2.267 2.104-2.087 2.102-2.088 2.232-1.075 2.231-1.073 2.774-0.66 2.774-0.66h17.34l0.549 0.228 0.548 0.226-0.461 2.723c-0.254 1.496-0.859 4.203-1.347 6.015-0.485 1.813-1.344 4.476-1.906 5.919-0.563 1.444-1.024 2.721-1.024 2.836 0 0.117-0.57 1.168-1.267 2.338l-1.267 2.127-2.079 2.061c-1.143 1.132-2.206 2.059-2.359 2.059s-0.854 0.392-1.558 0.868l-1.277 0.866-2.813 0.891-2.812 0.889-2.776 0.14zm112.88 9.822l3.294 0.042 3.122-0.507c1.717-0.278 3.901-0.727 4.855-0.997 0.953-0.271 2.671-0.97 3.813-1.556l2.082-1.066 1.79-1.576 1.789-1.576 1.886-2.513c1.037-1.383 1.976-2.748 2.086-3.035l0.201-0.521-0.175 1.734c-0.124 1.161-0.284 2.317-0.479 3.469-0.169 0.953-0.407 2.787-0.533 4.074l-0.23 2.34h13.606v-4.681l1.036-8.844c0.569-4.864 1.413-11.339 1.873-14.392s1.171-7.42 1.58-9.709c0.406-2.289 1.13-6.426 1.604-9.19 0.476-2.765 1.334-7.604 1.908-10.75 0.573-3.148 1.492-8.142 2.041-11.097 0.548-2.957 1.401-7.562 1.895-10.231s1.377-7.353 1.964-10.403c0.615-3.184 1.25-6.363 1.906-9.537 0.462-2.192 0.839-4.105 0.838-4.248v-0.261h-14.844l-0.219 2.168c-0.12 1.192-0.689 5.132-1.262 8.757-0.681 4.279-1.374 8.556-2.08 12.83-0.411 2.466-0.817 4.932-1.22 7.399l-0.186 1.155-0.585-0.248c-0.322-0.137-2.069-0.622-3.88-1.077l-3.294-0.827-4.508-0.352-4.51-0.351-3.814 0.354-3.814 0.356-3.468 0.877-3.468 0.876-3.294 1.607-3.296 1.607-2.428 1.795-2.427 1.797-2.097 2.25c-1.153 1.235-2.818 3.281-3.702 4.543l-1.604 2.297-1.886 3.922c-1.036 2.158-2.298 5.015-2.803 6.35-0.506 1.336-1.396 4.295-1.981 6.577l-1.061 4.15-0.523 5.388-0.522 5.387 0.392 4.334 0.395 4.336 0.463 1.56c0.257 0.858 0.794 2.388 1.196 3.397l0.732 1.84 1.335 1.806 1.336 1.808 1.524 1.248 1.523 1.249 2.081 1.034c1.146 0.566 3.064 1.302 4.267 1.631 1.2 0.329 3.151 0.725 4.335 0.878 1.183 0.156 3.632 0.301 5.445 0.323zm5.913-9.837l-2.619 0.137-1.766-0.317c-0.972-0.175-2.527-0.645-3.457-1.043l-1.689-0.723-1.422-1.166-1.421-1.164-1.056-2.023-1.057-2.022-0.482-2.254-0.48-2.255 0.041-4.508 0.04-4.508 0.56-3.989 0.559-3.987 0.869-2.773c0.479-1.526 0.872-2.967 0.874-3.201 4e-3 -0.232 0.474-1.48 1.049-2.772 0.672-1.495 1.382-2.973 2.13-4.431 0.599-1.145 1.717-2.928 2.483-3.965 0.769-1.035 2.138-2.596 3.042-3.469 0.904-0.869 2.341-2.014 3.196-2.539l1.552-0.955 2.727-0.943 2.727-0.944 5.722-3e-3h5.722l3.294 0.915c1.813 0.502 3.737 1.085 4.276 1.295l0.981 0.382-0.191 0.951c-0.104 0.524-0.518 2.825-0.916 5.113-0.398 2.289-1.184 6.659-1.745 9.711s-1.423 7.656-1.916 10.23c-0.492 2.574-1.205 5.852-1.585 7.281-0.39 1.47-0.786 2.938-1.189 4.403-0.275 0.991-0.93 2.709-1.454 3.815-0.525 1.106-1.444 2.715-2.042 3.572-0.599 0.858-1.608 2.049-2.246 2.643-0.639 0.596-2.02 1.652-3.068 2.349l-1.907 1.269-2.757 0.875-2.757 0.875-2.622 0.138zm-510.38 8.149h8.425l0.605-3.727c0.332-2.051 0.982-5.992 1.443-8.757l1.907-11.444c0.588-3.529 1.47-8.757 1.959-11.617 0.489-2.861 1.267-7.299 1.727-9.861 0.461-2.565 0.926-4.75 1.032-4.856l0.195-0.194h45.313l0.252 0.252 0.252 0.252-0.394 2.002c-0.215 1.102-0.854 4.498-1.419 7.551-0.565 3.052-1.515 8.201-2.112 11.445-0.627 3.412-1.265 6.821-1.914 10.229-0.458 2.384-1.384 7.377-2.058 11.097-0.673 3.719-1.223 6.957-1.221 7.196l4e-3 0.433h16.921l0.374-2.166c0.207-1.192 0.537-3.338 0.737-4.769 0.198-1.431 0.679-4.476 1.066-6.763 0.387-2.288 1.16-6.815 1.719-10.057 0.558-3.242 1.494-8.783 2.078-12.312s1.45-8.679 1.926-11.443c0.602-3.472 1.229-6.94 1.88-10.403 0.559-2.957 1.491-7.95 2.071-11.099 0.58-3.146 1.447-7.905 1.929-10.577 0.482-2.67 1.36-7.508 1.952-10.75s1.339-7.025 1.66-8.41l0.584-2.514h-17.133l-0.233 1.648c-0.127 0.904-0.541 3.441-0.919 5.635-0.379 2.193-1.065 6.094-1.527 8.669-0.462 2.576-1.306 7.491-1.876 10.925-0.559 3.363-1.097 6.729-1.614 10.1l-0.578 3.856-12.575 0.255-12.576 0.254-10.532-0.25c-5.793-0.137-10.565-0.277-10.605-0.31-0.039-0.034 0.158-1.381 0.438-2.995 0.369-2.081 0.762-4.157 1.179-6.229 0.532-2.656 1.049-5.315 1.55-7.978 0.485-2.574 1.033-5.772 1.22-7.108 0.186-1.334 0.577-3.559 0.868-4.942 0.291-1.382 0.843-4.295 1.227-6.472 0.383-2.178 0.792-4.207 0.909-4.508l0.21-0.551h-16.995l-0.543 3.035c-0.3 1.669-0.699 4.048-0.887 5.288-0.189 1.239-0.822 5.219-1.407 8.843s-1.449 9.008-1.92 11.964l-1.903 11.964c-0.669 4.168-1.375 8.329-2.116 12.484-0.617 3.412-1.246 6.822-1.887 10.23-0.451 2.385-1.31 6.91-1.91 10.058-0.629 3.298-1.278 6.593-1.945 9.884-0.47 2.288-0.989 4.941-1.153 5.895-0.166 0.953-0.702 3.705-1.194 6.113-0.491 2.407-0.893 4.631-0.893 4.941v0.562h8.427v2e-3zm93.278 0h7.459l0.21-0.548c0.117-0.303 0.211-1.094 0.211-1.758 0-0.666 0.47-4.126 1.042-7.688 1.309-8.118 2.65-16.23 4.024-24.338 0.589-3.416 1.208-6.826 1.859-10.23 0.552-2.86 1.4-7.309 1.884-9.882 0.483-2.575 1.435-7.474 2.114-10.888 0.679-3.412 1.319-6.341 1.422-6.508l0.189-0.305-7.543 0.093-7.543 0.093-0.63 4.51c-0.344 2.479-1.1 7.396-1.678 10.923-0.577 3.528-1.451 8.914-1.942 11.964-0.594 3.648-1.228 7.29-1.9 10.925-0.555 2.956-1.405 7.481-1.89 10.056-0.484 2.576-1.353 7.102-1.931 10.058-0.578 2.957-1.353 6.858-1.723 8.67-0.371 1.813-0.768 3.646-0.884 4.075l-0.209 0.779h7.459v-1e-3zm174.46 0h7.403l0.223-3.133c0.123-1.722 0.541-5.195 0.931-7.716s1.189-7.548 1.774-11.171c0.74-4.48 1.546-8.949 2.418-13.406 0.746-3.748 1.587-7.474 1.871-8.279s0.517-1.678 0.517-1.938c0-0.263 0.557-1.687 1.237-3.165 0.68-1.479 1.947-3.743 2.817-5.032l1.581-2.344 2.115-1.96 2.116-1.958 2.608-1.246 2.609-1.247 3.989 0.021 3.986 0.021 1.961 0.585c1.078 0.322 2.054 0.586 2.167 0.586 0.114 0 0.207-0.368 0.207-0.819 0-0.449 0.391-2.733 0.867-5.075 0.477-2.341 0.867-4.355 0.867-4.476s-1.131-0.564-2.514-0.984-3.295-0.86-4.248-0.979l-1.734-0.214-2.254 0.398c-1.24 0.22-3.083 0.703-4.096 1.076-1.015 0.373-2.688 1.217-3.72 1.877-1.03 0.66-2.636 1.946-3.564 2.857-0.931 0.912-2.495 2.751-3.477 4.086-0.764 1.037-1.524 2.078-2.28 3.121l-0.496 0.693 0.301-1.387c0.166-0.764 0.628-3.261 1.026-5.549 0.397-2.289 0.809-4.436 0.908-4.768l0.186-0.608h-13.226v0.837c0 0.459-0.391 3.229-0.866 6.154-0.478 2.928-1.265 7.816-1.748 10.869-0.484 3.052-1.345 8.357-1.91 11.791-0.604 3.646-1.24 7.288-1.911 10.923-1.305 6.942-2.64 13.878-4.005 20.808-0.584 2.957-1.283 6.447-1.552 7.76-0.271 1.31-0.491 2.519-0.491 2.686v0.305h7.407zm175.76 0h7.57v-4.634l0.871-5.746c0.481-3.159 1.272-8.165 1.761-11.12 0.487-2.957 1.095-6.701 1.35-8.324 0.256-1.62 0.933-5.131 1.503-7.801 0.573-2.672 1.286-5.558 1.587-6.416 0.302-0.858 0.549-1.76 0.552-2.002 5e-3 -0.242 0.649-1.8 1.435-3.462l1.429-3.022 1.887-2.506 1.885-2.504 2.062-1.551c1.134-0.854 2.959-1.984 4.056-2.516l1.991-0.965 4.334 0.029 4.335 0.031 1.707 0.547 1.706 0.549 0.288-0.179 0.287-0.178 0.017-1.106c7e-3 -0.608 0.378-2.873 0.823-5.033l0.812-3.926-0.912-0.356c-0.874-0.323-1.756-0.624-2.646-0.902l-1.733-0.547-3.121 9e-3 -3.121 8e-3 -2.544 0.896-2.544 0.894-1.91 1.152-1.909 1.152-2.483 2.601-2.483 2.601-1.334 2.018c-0.733 1.109-1.379 1.968-1.435 1.907-0.057-0.061 0.343-2.373 0.886-5.138 0.543-2.767 0.995-5.381 1.003-5.81l0.015-0.781h-12.831v0.222c0 0.121-0.319 2.346-0.711 4.941-0.391 2.598-1.177 7.608-1.744 11.137-0.682 4.221-1.373 8.44-2.072 12.658-0.608 3.646-1.247 7.288-1.915 10.924-0.481 2.574-1.336 7.101-1.9 10.057-0.563 2.957-1.49 7.717-2.058 10.578l-1.673 8.408-0.641 3.207h7.568zm-335.55-84.623l2.104 8e-3 1.674-0.57 1.675-0.57 1.481-1.503 1.482-1.502 0.779-2.003 0.781-2.002 0.027-2.948 0.028-2.946-0.693-1.151-0.694-1.151-1.207-0.746-1.208-0.748h-5.214l-1.775 0.795-1.775 0.793-1.03 1.104-1.03 1.104-0.81 1.908-0.809 1.906-0.153 2.971-0.152 2.971 0.752 1.478 0.754 1.476 1.454 0.66 1.453 0.659 2.106 7e-3z" fill="#B3131B"/></svg>
